<svg width="33" height="30" viewBox="0 0 33 30" fill="none" xmlns="http://www.w3.org/2000/svg">
<path d="M8.62776 21.1672H2.20329C1.31671 21.1672 0.597168 21.8852 0.597168 22.7734V27.5917C0.597168 28.4799 1.31671 29.1978 2.20329 29.1978H8.62776C9.51434 29.1978 10.2339 28.4799 10.2339 27.5917V22.7734C10.2339 21.8852 9.51434 21.1672 8.62776 21.1672Z" fill="#2276FF"/>
<path d="M31.1136 0.287842H24.6891C23.8025 0.287842 23.083 1.00578 23.083 1.89396V27.5919C23.083 28.48 23.8025 29.198 24.6891 29.198H31.1136C32.0002 29.198 32.7197 28.48 32.7197 27.5919V1.89396C32.7197 1.00578 32.0002 0.287842 31.1136 0.287842Z" fill="#2276FF"/>
<path d="M19.8707 16.3491H13.4462C12.5596 16.3491 11.8401 17.0671 11.8401 17.9552V27.592C11.8401 28.4801 12.5596 29.1981 13.4462 29.1981H19.8707C20.7573 29.1981 21.4768 28.4801 21.4768 27.592V17.9552C21.4768 17.0671 20.7573 16.3491 19.8707 16.3491Z" fill="#2276FF"/>
</svg>
