<svg width="40" height="28" viewBox="0 0 40 28" fill="none" xmlns="http://www.w3.org/2000/svg">
<path d="M0.960449 12.2698V22.9635C0.960449 25.6438 3.141 27.8243 5.82125 27.8243H34.986C37.6663 27.8243 39.8468 25.6438 39.8468 22.9635V12.2698H0.960449ZM11.6542 22.9635H7.76556C6.69133 22.9635 5.82125 22.0934 5.82125 21.0192C5.82125 19.945 6.69133 19.0749 7.76556 19.0749H11.6542C12.7284 19.0749 13.5985 19.945 13.5985 21.0192C13.5985 22.0934 12.7284 22.9635 11.6542 22.9635Z" fill="#C0D7FF"/>
<path d="M39.8468 8.38128V5.4648C39.8468 2.78456 37.6663 0.604004 34.986 0.604004H5.82125C3.141 0.604004 0.960449 2.78456 0.960449 5.4648V8.38128H39.8468Z" fill="#C0D7FF"/>
</svg>
