<svg width="14" height="14" viewBox="0 0 14 14" fill="none" xmlns="http://www.w3.org/2000/svg">
<path d="M0 4.2002V8.0502C0 9.01515 0.78505 9.8002 1.75 9.8002H12.25C13.2149 9.8002 14 9.01515 14 8.0502V4.2002H0ZM3.85 8.0502H2.45C2.06325 8.0502 1.75 7.73695 1.75 7.3502C1.75 6.96345 2.06325 6.6502 2.45 6.6502H3.85C4.23675 6.6502 4.55 6.96345 4.55 7.3502C4.55 7.73695 4.23675 8.0502 3.85 8.0502Z" fill="#2276FF"/>
<path d="M14 2.8V1.75C14 0.78505 13.2149 0 12.25 0H1.75C0.78505 0 0 0.78505 0 1.75V2.8H14Z" fill="#2276FF"/>
</svg>
