<svg width="201" height="36" viewBox="0 0 201 36" fill="none" xmlns="http://www.w3.org/2000/svg">
<g clip-path="url(#clip0_115_9101)">
<path d="M48.972 29.6097C47.0352 29.6097 45.4249 28.9679 44.1451 27.6804C42.8614 26.3968 42.2158 24.7334 42.2158 22.6826C42.2158 20.6318 42.85 18.9532 44.1261 17.643C45.4021 16.3328 47.0124 15.6758 48.972 15.6758C50.4227 15.6758 51.6988 16.0252 52.7963 16.724C53.8939 17.4227 54.6117 18.376 54.9459 19.5837L52.9634 20.2824C52.7773 19.5001 52.3216 18.8773 51.5962 18.4102C50.8709 17.9468 50.024 17.7114 49.0556 17.7114C47.7529 17.7114 46.6706 18.1747 45.8047 19.0937C44.9388 20.0128 44.5059 21.2015 44.5059 22.656C44.5059 24.1106 44.9388 25.3145 45.8047 26.2297C46.6706 27.145 47.7605 27.5969 49.0821 27.5969C50.0316 27.5969 50.8709 27.3576 51.5962 26.8829C52.3216 26.4082 52.7773 25.7778 52.9634 24.9992L54.9459 25.6676C54.6117 26.8943 53.8939 27.8589 52.7963 28.5539C51.6988 29.2527 50.4227 29.6021 48.972 29.6021V29.6097Z" fill="#FF0000"/>
<path d="M64.4364 15.6796C65.9972 15.6796 67.2581 16.1239 68.2037 17.0164C69.1532 17.9089 69.6241 19.1659 69.6241 20.7838V29.3287H67.391V21.2889C67.391 20.1192 67.072 19.2267 66.4416 18.6229C65.8073 18.019 64.9529 17.7152 63.8705 17.7152C62.7881 17.7152 61.9526 18.0836 61.2994 18.8203C60.6462 19.5571 60.3234 20.5559 60.3234 21.8206V29.3287H58.0903V9.78931H60.3234V17.7722C61.2159 16.3784 62.5869 15.6758 64.425 15.6758H64.4326L64.4364 15.6796Z" fill="#FF0000"/>
<path d="M84.8455 27.6844C83.5239 28.968 81.8681 29.6136 79.8781 29.6136C77.8881 29.6136 76.2323 28.9794 74.9106 27.6995C73.589 26.4235 72.9282 24.7639 72.9282 22.7169C72.9282 20.6699 73.5852 18.9154 74.8955 17.6203C76.2057 16.3253 77.8691 15.6797 79.8781 15.6797C81.8871 15.6797 83.5239 16.3253 84.8455 17.6203C86.1672 18.9154 86.828 20.613 86.828 22.7169C86.828 24.8209 86.1672 26.4007 84.8455 27.6844ZM79.8781 27.6008C81.1997 27.6008 82.3086 27.1489 83.2011 26.245C84.0936 25.3411 84.5379 24.1562 84.5379 22.6865C84.5379 21.2168 84.0974 19.9711 83.2125 19.0711C82.3276 18.1672 81.2149 17.7153 79.8743 17.7153C78.5337 17.7153 77.421 18.1672 76.5399 19.0711C75.655 19.9749 75.2145 21.1788 75.2145 22.6865C75.2145 24.1942 75.655 25.3449 76.5399 26.245C77.4247 27.1489 78.5375 27.6008 79.8743 27.6008H79.8781Z" fill="#FF0000"/>
<path d="M108.16 15.9607H110.477L105.733 29.3325H103.276L99.4251 18.752L95.6008 29.3325H93.1133L88.3965 15.9607H90.7131L94.5109 26.9324L98.3618 15.9607H100.511L104.362 26.9324L108.16 15.9607Z" fill="#FF0000"/>
<path d="M118.964 29.6098C116.936 29.6098 115.246 28.9528 113.898 27.6426C112.55 26.3324 111.874 24.6234 111.874 22.5194C111.874 20.4155 112.542 18.7217 113.887 17.3849C115.224 16.0443 116.921 15.3721 118.968 15.3721C120.552 15.3721 121.942 15.7632 123.142 16.5418C124.342 17.3241 125.098 18.4331 125.417 19.8648L122.067 20.8978C121.938 20.2446 121.604 19.7281 121.065 19.3483C120.525 18.9685 119.895 18.7748 119.166 18.7748C118.197 18.7748 117.4 19.1166 116.766 19.7926C116.131 20.4724 115.816 21.3687 115.816 22.4852C115.816 23.6018 116.131 24.498 116.766 25.1664C117.4 25.8349 118.197 26.1691 119.166 26.1691C119.891 26.1691 120.525 25.983 121.065 25.6108C121.604 25.2386 121.938 24.7259 122.067 24.0765L125.417 25.0791C125.098 26.5298 124.342 27.6502 123.142 28.4287C121.942 29.211 120.548 29.5984 118.968 29.5984V29.606L118.964 29.6098Z" fill="#FF0000"/>
<path d="M133.897 29.6136C131.831 29.6136 130.118 28.9566 128.763 27.6463C127.403 26.3361 126.723 24.6195 126.723 22.4966C126.723 20.3737 127.399 18.6837 128.747 17.3621C130.096 16.0404 131.786 15.3796 133.814 15.3796C135.842 15.3796 137.414 16.0025 138.697 17.2519C139.981 18.5014 140.627 20.1382 140.627 22.1624C140.627 22.4245 140.6 22.8308 140.543 23.3891H130.578C130.707 24.4145 131.075 25.2044 131.683 25.7627C132.287 26.3209 133.027 26.5982 133.901 26.5982C134.607 26.5982 135.222 26.4197 135.743 26.0703C136.263 25.7171 136.59 25.212 136.719 24.5626L140.068 25.4816C139.715 26.8412 138.975 27.8666 137.851 28.5654C136.723 29.2642 135.409 29.6136 133.897 29.6136ZM130.715 20.818H136.939C136.829 20.1496 136.495 19.5875 135.936 19.128C135.378 18.6723 134.683 18.4444 133.84 18.4444C132.241 18.4444 131.197 19.2343 130.715 20.818Z" fill="#FF0000"/>
<path d="M150.702 15.372C152.267 15.372 153.535 15.8239 154.515 16.7278C155.491 17.6316 155.981 18.9001 155.981 20.5407V29.3363H152.157V21.661C152.157 20.7116 151.917 20.0052 151.443 19.5381C150.968 19.0748 150.322 18.8393 149.502 18.8393C148.682 18.8393 148.036 19.1051 147.561 19.6368C147.087 20.1647 146.847 20.9167 146.847 21.8851V29.3401H143.023V15.6568H146.847V16.9404C147.778 15.8998 149.061 15.3758 150.698 15.3758V15.3682L150.702 15.372Z" fill="#FF0000"/>
<path d="M165.832 29.6097C164.287 29.6097 163.003 29.1919 161.981 28.3564C160.956 27.5209 160.447 26.2145 160.447 24.4486V18.9191H157.876V15.653H159.718C160.204 15.1137 160.443 13.8111 160.443 11.7451H164.268V15.653H168.426V18.9191H164.268V24.2815C164.268 25.698 165.031 26.4044 166.558 26.4044C167.173 26.4044 167.75 26.2943 168.289 26.0702L168.791 29.1122C167.913 29.4464 166.93 29.6135 165.832 29.6135V29.6097Z" fill="#FF0000"/>
<path d="M178.118 15.372C178.9 15.372 179.569 15.4669 180.131 15.6492L179.572 19.2798C178.904 19.0406 178.186 18.9191 177.423 18.9191C176.546 18.9191 175.824 19.2039 175.243 19.7697C174.669 20.3394 174.377 21.1635 174.377 22.2383V29.3287H170.553V15.6492H174.377V16.9328C175.308 15.8923 176.557 15.3682 178.118 15.3682V15.372Z" fill="#FF0000"/>
<path d="M193.917 26.3132C193.989 26.3132 194.194 26.2753 194.532 26.2031V29.4122C194.103 29.5413 193.617 29.6059 193.081 29.6059C191.406 29.6059 190.29 29.0742 189.732 28.0146C188.763 29.0742 187.358 29.6059 185.516 29.6059C184.1 29.6059 182.945 29.2451 182.053 28.5197C181.16 27.7944 180.716 26.7804 180.716 25.4777C180.716 24.27 181.122 23.3054 181.942 22.5876C182.763 21.8699 183.841 21.4483 185.182 21.3154L189.367 20.8977V20.6204C189.367 19.9292 189.143 19.3937 188.699 19.0026C188.254 18.6114 187.685 18.4177 186.993 18.4177C185.767 18.4177 185.003 18.995 184.703 20.1495L181.323 19.6216C181.563 18.1519 182.231 17.0733 183.321 16.3973C184.407 15.7175 185.717 15.3757 187.244 15.3757C189.086 15.3757 190.537 15.8201 191.6 16.7125C192.66 17.605 193.191 18.881 193.191 20.5369V25.5613C193.191 26.0626 193.431 26.3132 193.917 26.3132ZM189.367 23.8865V23.4421L186.211 23.8333C185.653 23.8903 185.22 24.0498 184.912 24.3232C184.605 24.5929 184.449 24.9309 184.449 25.3448C184.449 25.8309 184.654 26.1917 185.064 26.431C185.474 26.6702 186.006 26.7842 186.655 26.7652C187.457 26.7272 188.106 26.4575 188.611 25.9562C189.113 25.4549 189.363 24.7638 189.363 23.8903L189.367 23.8865Z" fill="#FF0000"/>
<path d="M196.708 29.3287V9.78931H200.532V29.3325H196.708V29.3287Z" fill="#FF0000"/>
<path d="M19.6005 35.5001C15.8977 35.5001 12.8215 34.2848 10.3796 31.8505C7.93381 29.4161 6.71094 26.2792 6.71094 22.4283C6.71094 18.5774 7.93381 15.41 10.3796 12.9871C12.8253 10.5679 15.8977 9.35645 19.6005 9.35645C22.4564 9.35645 24.9781 10.0514 27.1694 11.4452C29.3607 12.839 30.781 14.8404 31.4342 17.4532L25.6237 19.1242C25.3085 17.9128 24.6135 16.9405 23.5349 16.2C22.4564 15.4632 21.1462 15.091 19.5967 15.091C17.637 15.091 16.0306 15.767 14.7849 17.1228C13.5393 18.4786 12.9164 20.2446 12.9164 22.4245C12.9164 24.6044 13.5393 26.4007 14.7849 27.7413C16.0306 29.0857 17.6332 29.7579 19.5967 29.7579C21.1462 29.7579 22.4602 29.3895 23.5349 28.649C24.6135 27.9122 25.3199 26.9362 25.6579 25.7247L31.4304 27.3957C30.7772 30.0086 29.3531 32.0138 27.1656 33.4038C24.9743 34.7975 22.4526 35.4925 19.5967 35.4925L19.6005 35.5001Z" fill="#FF0000"/>
<path d="M4.43983 9.11708C6.82102 9.11708 8.75027 7.18783 8.75027 4.80664C8.75027 2.42546 6.81722 0.5 4.43983 0.5C2.06245 0.5 0.129395 2.42925 0.129395 4.81044C0.129395 7.19162 2.05865 9.12088 4.43983 9.12088V9.11708Z" fill="#FF0000"/>
</g>
<defs>
<clipPath id="clip0_115_9101">
<rect width="200.403" height="35" fill="white" transform="translate(0.129395 0.5)"/>
</clipPath>
</defs>
</svg>
