<svg width="597" height="366" viewBox="0 0 597 366" fill="none" xmlns="http://www.w3.org/2000/svg">
<g clip-path="url(#clip0_307_18004)">
<path opacity="0.15" d="M20.8554 281.613L324.754 106.149H426.416L482.387 138.461L498.176 129.456L562.851 132.373L568.448 192.054C568.448 192.054 568.448 192.063 568.44 192.071V192.079C567.885 193.338 566.675 194.31 564.992 194.31L477.002 194.482L189.186 360.655C177.116 367.626 162.242 367.626 150.172 360.655L20.8554 285.994C19.1638 285.021 19.1638 282.586 20.8554 281.613Z" fill="black"/>
<path d="M0.310547 228.429L5.51622 225.029L44.6283 251.531L324.754 89.804H426.416L482.387 122.117L498.176 113.111L596.503 119.199L568.457 175.718C568.457 175.718 568.457 175.726 568.448 175.734V175.743C567.893 177.001 566.683 177.974 565 177.974L477.01 178.145L189.186 344.31C177.116 351.281 162.242 351.281 150.172 344.31L20.8554 269.649C20.316 269.339 19.9728 268.873 19.7767 268.366L19.7522 268.382L0.310547 228.429Z" fill="black"/>
<path d="M0.310547 228.429V218.36L9.80662 222.945L342.161 31.0542H443.823L578.427 108.763L578.051 108.24L596.495 109.131V119.199L494.4 119.395L152.934 316.549L0.310547 228.429Z" fill="#2276FF" stroke="black" stroke-miterlimit="10"/>
<path d="M0.310547 218.361L342.161 20.9861H443.823L596.495 109.131L494.4 109.327L152.934 306.473L0.310547 218.361Z" fill="#C0D7FF" stroke="black" stroke-linecap="round" stroke-linejoin="round"/>
<path d="M307.388 60.6049L426.179 128.802L153.114 286.892L34.3394 218.287L307.388 60.6049Z" fill="white" stroke="black" stroke-linecap="round" stroke-linejoin="round"/>
<path d="M235.547 290.692L235.432 293.741L389.094 205.024V201.984L235.547 290.692Z" fill="white"/>
<g opacity="0.15">
<path d="M264.206 199.859L82.5306 94.969C77.709 92.1822 78.3138 87.3198 83.879 84.1081L178.488 29.4853C184.054 26.2736 192.479 25.9222 197.301 28.7089L378.976 133.599C383.798 136.386 383.193 141.248 377.628 144.46L283.019 199.082C277.453 202.294 269.028 202.646 264.206 199.859Z" fill="black"/>
</g>
<path d="M382.238 126.04L378.037 125.378L197.301 21.0273C192.48 18.2406 184.054 18.592 178.489 21.8037L83.8795 76.4265C82.8335 77.0312 81.9672 77.685 81.2807 78.3796L79.2786 78.0609V82.5638H79.2867C79.2867 84.3372 80.3409 86.0206 82.5311 87.2873L264.207 192.177C269.028 194.964 277.454 194.613 283.019 191.401L377.628 136.778C380.701 135.005 382.254 132.733 382.229 130.575H382.238V126.032V126.04Z" fill="black"/>
<path d="M272.379 189.112C269.265 189.112 266.413 188.459 264.362 187.274L82.686 82.3838C80.6838 81.2315 79.5806 79.6461 79.5806 77.93C79.5806 75.8297 81.2068 73.6805 84.0344 72.0542L178.644 17.4232C181.528 15.7561 185.353 14.8081 189.137 14.8081C192.25 14.8081 195.102 15.4619 197.154 16.6468L378.829 121.537C380.832 122.689 381.935 124.274 381.935 125.991C381.935 128.091 380.309 130.24 377.481 131.866L282.872 186.489C279.987 188.156 276.162 189.112 272.379 189.112Z" fill="#C0D7FF"/>
<path d="M189.137 14.4976V15.1105C192.201 15.1105 194.996 15.7479 196.998 16.9084L378.674 121.798C380.578 122.893 381.624 124.381 381.624 125.982C381.624 127.976 380.055 130.019 377.326 131.597L282.716 186.22C279.881 187.854 276.113 188.794 272.378 188.794C269.314 188.794 266.519 188.156 264.517 186.996L82.833 82.1142C80.9289 81.0191 79.8828 79.5317 79.8828 77.93C79.8828 75.936 81.4519 73.8929 84.1814 72.3157L178.791 17.6929C181.626 16.0584 185.394 15.1186 189.129 15.1186V14.5057M189.129 14.5057C185.435 14.5057 181.528 15.4047 178.488 17.1617L83.879 71.7845C78.3138 74.9962 77.709 79.8668 82.5306 82.6453L264.206 187.535C266.388 188.794 269.314 189.415 272.378 189.415C276.072 189.415 279.979 188.516 283.019 186.759L377.628 132.136C383.193 128.924 383.798 124.054 378.976 121.275L197.301 16.3772C195.119 15.1186 192.193 14.4976 189.129 14.4976V14.5057Z" fill="black"/>
<path d="M96.2112 64.6666L295.351 179.641L312.586 169.687L113.438 54.7129L96.2112 64.6666Z" fill="black"/>
<path d="M224.196 92.452L168.682 60.4007L187.053 49.7932L242.567 81.8445L224.196 92.452Z" fill="white"/>
<g opacity="0.15">
<path d="M339.105 14.0804L344.621 14.2766C348.78 14.4237 352.842 15.5841 356.454 17.6517L366.122 23.1843C367.184 23.789 367.544 25.1374 366.939 26.1998L357.255 43.1244C356.65 44.1867 355.302 44.5463 354.239 43.9416L344.572 38.409C340.96 36.3415 336.898 35.181 332.738 35.0339L327.222 34.8378C322.466 34.6662 317.816 33.3423 313.689 30.9805L305.304 26.1834C304.242 25.5787 303.882 24.2303 304.487 23.1679L314.171 6.24333C314.776 5.18095 316.124 4.82137 317.187 5.42611L325.571 10.2232C329.707 12.5849 334.348 13.917 339.105 14.0804Z" fill="black"/>
</g>
<path d="M339.105 9.25892L344.621 9.45505C348.781 9.60215 352.842 10.7626 356.455 12.8302L366.122 18.3627C367.185 18.9675 367.544 20.3159 366.939 21.3783L357.255 38.3028C356.651 39.3652 355.302 39.7248 354.24 39.12L344.572 33.5875C340.96 31.5199 336.898 30.3595 332.739 30.2124L327.223 30.0162C322.466 29.8446 317.816 28.5207 313.69 26.159L305.305 21.3619C304.242 20.7572 303.883 19.4088 304.488 18.3464L314.172 1.4218C314.776 0.359416 316.125 -0.000159502 317.187 0.604582L325.572 5.40165C329.707 7.76341 334.349 9.09547 339.105 9.25892Z" fill="white" stroke="black" stroke-linecap="round" stroke-linejoin="round"/>
<path d="M347.326 29.1989C343.55 27.0333 339.252 25.8483 334.904 25.7584L329.666 25.6522C324.844 25.5541 320.088 24.2303 315.904 21.8358L312.807 20.0624C313.068 19.4168 313.109 18.714 312.921 18.0357C312.733 17.3575 312.341 16.7691 311.793 16.3441L315.871 9.22613C316.247 9.38141 316.656 9.45495 317.056 9.45495C318.168 9.45495 319.197 8.87473 319.777 7.92676L322.875 9.70012C327.165 12.1599 332.052 13.5165 336.996 13.6309L342.267 13.7535C346.451 13.8516 350.587 15.0039 354.231 17.0796L359.167 19.9072C358.636 21.2229 359.053 22.7511 360.181 23.6255L355.931 31.0458C355.555 30.8906 355.155 30.817 354.746 30.817C353.766 30.817 352.842 31.2747 352.245 32.0265L347.326 29.2071V29.1989Z" fill="#E2FDFF"/>
<path d="M319.908 8.5071L322.654 10.0762C327.01 12.5687 331.962 13.9498 336.988 14.0642L342.259 14.1868C346.378 14.2767 350.439 15.4126 354.011 17.4556L358.628 20.1034C358.448 20.7327 358.44 21.4028 358.62 22.0484C358.799 22.694 359.135 23.2661 359.609 23.7155L355.719 30.5066C355.4 30.4167 355.065 30.3677 354.738 30.3677C353.757 30.3677 352.817 30.7681 352.147 31.4627L347.53 28.8231C343.689 26.6248 339.325 25.4153 334.896 25.3254L329.657 25.2192C324.909 25.1211 320.227 23.8218 316.108 21.46L313.329 19.8664C313.697 18.5752 313.313 17.1778 312.349 16.2543L316.067 9.75745C316.386 9.84734 316.721 9.89637 317.056 9.89637C318.176 9.89637 319.23 9.37335 319.908 8.51528M319.589 7.32214C319.549 7.42838 319.508 7.53461 319.45 7.63268C318.944 8.52345 318.012 9.02195 317.056 9.02195C316.59 9.02195 316.124 8.90754 315.691 8.6542L311.213 16.4831C312.529 17.235 312.986 18.9185 312.234 20.2423L315.683 22.2118C319.941 24.6472 324.746 25.9792 329.649 26.0855L334.888 26.1917C339.178 26.2816 343.379 27.442 347.105 29.575L352.376 32.5905C352.891 31.7243 353.806 31.2421 354.746 31.2421C355.212 31.2421 355.678 31.3565 356.111 31.6017L360.761 23.4785C359.445 22.7267 358.987 21.0432 359.739 19.7193L354.452 16.6956C350.742 14.5709 346.558 13.4104 342.283 13.3123L337.012 13.1898C332.125 13.0753 327.337 11.7515 323.095 9.31615L319.589 7.31396V7.32214Z" fill="black"/>
<path d="M363.131 22.024C362.943 22.024 362.755 21.975 362.583 21.8769C362.33 21.7298 362.15 21.4928 362.068 21.215C361.995 20.9289 362.028 20.6347 362.175 20.3814C362.371 20.0382 362.739 19.8257 363.131 19.8257C363.319 19.8257 363.507 19.8747 363.678 19.9728C363.932 20.1199 364.12 20.3569 364.193 20.6347C364.267 20.9208 364.234 21.215 364.087 21.4683C363.891 21.8115 363.523 22.024 363.131 22.024Z" fill="#C0D7FF"/>
<path d="M363.139 20.1361C363.278 20.1361 363.409 20.1688 363.531 20.2423C363.907 20.463 364.038 20.9452 363.826 21.3211C363.687 21.5662 363.425 21.7215 363.139 21.7215C363 21.7215 362.869 21.6888 362.747 21.6153C362.371 21.3946 362.24 20.9125 362.453 20.5365C362.592 20.2914 362.853 20.1361 363.139 20.1361ZM363.139 19.5232C362.649 19.5232 362.175 19.7765 361.921 20.226C361.537 20.8961 361.766 21.7542 362.445 22.1383C362.665 22.2609 362.902 22.3263 363.139 22.3263C363.629 22.3263 364.103 22.0729 364.357 21.6234C364.741 20.9533 364.512 20.0952 363.834 19.7112C363.613 19.5886 363.376 19.5232 363.139 19.5232Z" fill="black"/>
<path d="M355.13 36.0148C354.942 36.0148 354.754 35.9658 354.583 35.8677C354.06 35.5654 353.872 34.8953 354.174 34.3722C354.37 34.029 354.738 33.8165 355.13 33.8165C355.318 33.8165 355.506 33.8656 355.678 33.9636C356.201 34.266 356.389 34.9361 356.086 35.4591C355.89 35.8024 355.522 36.0148 355.13 36.0148Z" fill="#C0D7FF"/>
<path d="M355.13 34.1271C355.269 34.1271 355.4 34.1598 355.523 34.2333C355.702 34.3396 355.841 34.5112 355.89 34.7155C355.939 34.9198 355.915 35.1323 355.817 35.312C355.678 35.5572 355.416 35.7125 355.13 35.7125C354.991 35.7125 354.861 35.6798 354.738 35.6062C354.558 35.5 354.419 35.3284 354.37 35.1241C354.313 34.9198 354.346 34.7073 354.444 34.5275C354.583 34.2823 354.844 34.1271 355.13 34.1271ZM355.13 33.5142C354.64 33.5142 354.166 33.7675 353.913 34.217C353.529 34.8871 353.757 35.7452 354.436 36.1293C354.656 36.2518 354.893 36.3172 355.13 36.3172C355.621 36.3172 356.095 36.0639 356.348 35.6144C356.732 34.9443 356.503 34.0862 355.825 33.7021C355.604 33.5795 355.367 33.5142 355.13 33.5142Z" fill="black"/>
<path d="M316.631 6.30891C316.443 6.30891 316.256 6.25988 316.084 6.16181C315.561 5.85944 315.373 5.18932 315.675 4.6663C315.871 4.32307 316.239 4.1106 316.631 4.1106C316.819 4.1106 317.007 4.15963 317.179 4.25769C317.702 4.56007 317.89 5.23018 317.588 5.7532C317.391 6.09643 317.024 6.30891 316.631 6.30891Z" fill="#C0D7FF"/>
<path d="M316.639 4.42126C316.778 4.42126 316.909 4.45395 317.031 4.5275C317.407 4.74815 317.538 5.23031 317.326 5.60623C317.187 5.85139 316.925 6.00667 316.639 6.00667C316.5 6.00667 316.369 5.97398 316.247 5.90043C315.871 5.67978 315.74 5.19762 315.953 4.8217C316.092 4.57653 316.353 4.42126 316.639 4.42126ZM316.639 3.80835C316.149 3.80835 315.675 4.06169 315.421 4.51116C315.037 5.18128 315.266 6.03935 315.945 6.42345C316.165 6.54603 316.402 6.61141 316.639 6.61141C317.129 6.61141 317.603 6.35807 317.857 5.9086C318.241 5.23848 318.012 4.3804 317.334 3.99631C317.113 3.87373 316.876 3.80835 316.639 3.80835Z" fill="black"/>
<path d="M308.557 20.4141C308.369 20.4141 308.181 20.3651 308.009 20.267C307.756 20.1199 307.568 19.8829 307.494 19.6051C307.421 19.3191 307.454 19.0249 307.601 18.7715C307.797 18.4283 308.165 18.2158 308.557 18.2158C308.745 18.2158 308.933 18.2649 309.104 18.3629C309.358 18.51 309.546 18.747 309.619 19.0249C309.693 19.3109 309.66 19.6051 309.513 19.8584C309.317 20.2017 308.949 20.4141 308.557 20.4141Z" fill="#C0D7FF"/>
<path d="M308.565 18.5262C308.704 18.5262 308.835 18.5589 308.957 18.6325C309.137 18.7387 309.276 18.9103 309.325 19.1146C309.382 19.3189 309.35 19.5314 309.252 19.7112C309.113 19.9564 308.851 20.1116 308.565 20.1116C308.426 20.1116 308.295 20.079 308.173 20.0054C307.993 19.8992 307.854 19.7276 307.805 19.5232C307.756 19.3189 307.781 19.1065 307.879 18.9267C308.018 18.6815 308.279 18.5262 308.565 18.5262ZM308.565 17.9133C308.075 17.9133 307.601 18.1667 307.348 18.6161C306.963 19.2863 307.192 20.1443 307.871 20.5284C308.091 20.651 308.328 20.7164 308.565 20.7164C309.055 20.7164 309.529 20.463 309.783 20.0136C310.167 19.3435 309.938 18.4854 309.26 18.1013C309.039 17.9787 308.802 17.9133 308.565 17.9133Z" fill="black"/>
<path d="M357.41 18.3875L350.047 31.2586" stroke="black" stroke-linejoin="round"/>
<path d="M355.065 17.0881L347.702 29.9511" stroke="black" stroke-linejoin="round"/>
<path d="M343.607 13.4514L336.244 26.3144" stroke="black" stroke-linejoin="round"/>
<path d="M326.331 10.9016L318.968 23.7646" stroke="black" stroke-linejoin="round"/>
<path d="M322.147 8.84229L314.784 21.7053" stroke="black" stroke-linejoin="round"/>
<path d="M343.313 18.984L342.169 20.9861C341.164 22.735 339.276 23.7892 337.258 23.7238L329.707 23.4705C328.309 23.4215 327.459 21.9014 328.154 20.6838L329.306 18.6734C330.311 16.9164 332.207 15.8622 334.226 15.9357L341.769 16.2054C343.166 16.2545 344.016 17.7745 343.321 18.9921L343.313 18.984Z" fill="white" stroke="black" stroke-linecap="round" stroke-linejoin="round"/>
<path d="M338.998 15.9194L334.618 23.4869" stroke="black" stroke-linejoin="round"/>
<path d="M335.844 15.8213L331.472 23.3806" stroke="black" stroke-linejoin="round"/>
<g opacity="0.15">
<path d="M157.069 255.748C187.869 255.748 212.836 241.333 212.836 223.55C212.836 205.767 187.869 191.352 157.069 191.352C126.27 191.352 101.302 205.767 101.302 223.55C101.302 241.333 126.27 255.748 157.069 255.748Z" fill="black" stroke="black" stroke-miterlimit="10"/>
</g>
<path d="M158.091 160.265L157.364 128.336C157.364 128.336 157.364 128.32 157.38 128.32C167.734 128.058 178.194 129.513 187.364 132.683C187.38 132.683 187.38 132.7 187.364 132.708L158.115 160.273C158.115 160.273 158.091 160.273 158.091 160.265Z" fill="white" stroke="black" stroke-miterlimit="10" stroke-linecap="round"/>
<path d="M121.275 151.308C130.779 145.644 143.479 142.327 157.11 141.943L157.821 173.201L121.275 151.308Z" fill="#C0D7FF"/>
<path d="M156.865 142.204L157.56 172.752L121.774 151.308C131.139 145.841 143.544 142.613 156.865 142.204ZM157.347 141.681C143.994 142.024 130.812 145.228 120.809 151.3C120.809 151.308 120.809 151.316 120.809 151.324L158.074 173.651C158.074 173.651 158.091 173.651 158.091 173.634L157.363 141.697C157.363 141.697 157.363 141.681 157.347 141.681Z" fill="black"/>
<path d="M158.091 173.643L158.05 199.115C158.05 199.115 158.042 199.132 158.025 199.132L120.801 178.252C120.801 178.252 120.801 178.252 120.801 178.235V151.332C120.801 151.332 120.817 151.316 120.826 151.316L158.091 173.626C158.091 173.626 158.091 173.626 158.091 173.643Z" fill="black" stroke="black" stroke-miterlimit="10"/>
<path d="M105.871 211.937V187.216C105.871 187.216 105.871 187.2 105.887 187.2L157.944 188.164C157.944 188.164 157.96 188.164 157.96 188.181L158.025 220.044H157.903L146.65 249.047C146.65 249.047 146.642 249.047 146.633 249.055C137.464 247.74 128.777 245.018 121.61 240.883C111.599 235.105 106.41 228.012 105.952 220.444L105.912 220.052C105.912 220.052 105.838 212.599 105.879 211.945L105.871 211.937Z" fill="#2276FF" stroke="black" stroke-miterlimit="10"/>
<path d="M146.756 236.993L155.844 225.716L158.042 220.052L193.616 199.516L193.64 198.159H195.961L197.718 197.146H197.734C198.315 197.481 198.862 197.816 199.41 198.167L213.466 206.691C213.466 206.691 213.466 206.691 213.466 206.707V219.014C213.498 226.99 208.26 234.966 197.718 241.047C183.891 249.031 164.416 251.752 146.724 249.227C146.715 249.227 146.707 249.227 146.707 249.211L146.724 249.178V237.018C146.724 237.018 146.724 237.018 146.724 237.009L146.756 236.993Z" fill="black" stroke="black" stroke-miterlimit="10"/>
<path d="M187.731 123.784C191.311 125.034 194.604 126.505 197.562 128.181L160.134 149.788L187.731 123.776V123.784Z" fill="#C0D7FF"/>
<path d="M187.788 124.07C191.123 125.239 194.228 126.62 197.048 128.181L161.891 148.48L187.788 124.07ZM187.666 123.49C187.666 123.49 187.666 123.49 187.658 123.49L158.458 151.006C158.458 151.006 158.459 151.03 158.467 151.03L198.036 128.189C198.036 128.189 198.053 128.173 198.036 128.164C194.849 126.326 191.36 124.773 187.666 123.49Z" fill="black"/>
<path d="M197.726 128.434V184.92C197.726 184.92 197.726 184.928 197.726 184.936L158.075 207.827C158.075 207.827 158.05 207.827 158.05 207.81L158.124 151.267C158.124 151.267 158.124 151.259 158.124 151.251L197.701 128.418C197.701 128.418 197.726 128.418 197.726 128.434Z" fill="#E2FDFF" stroke="black" stroke-miterlimit="10" stroke-linecap="round"/>
<path d="M146.74 236.977L158.042 207.843L197.726 184.928C197.726 184.928 197.734 184.928 197.743 184.928C218.737 197.056 218.729 216.702 197.743 228.829C183.915 236.813 164.441 239.535 146.756 237.01C146.748 237.01 146.74 237.001 146.748 236.993L146.74 236.977Z" fill="white" stroke="black" stroke-miterlimit="10"/>
<path d="M157.976 188.173L146.674 217.306C146.674 217.306 146.666 217.315 146.658 217.315C137.489 215.999 128.802 213.277 121.635 209.142C100.967 197.211 100.657 177.982 120.679 165.822C120.679 165.822 120.687 165.822 120.695 165.822L157.968 188.156C157.968 188.156 157.968 188.164 157.968 188.173H157.976Z" fill="white" stroke="black" stroke-miterlimit="10"/>
<path opacity="0.15" d="M275.231 135.74C292.061 135.74 305.705 127.863 305.705 118.145C305.705 108.428 292.061 100.551 275.231 100.551C258.401 100.551 244.757 108.428 244.757 118.145C244.757 127.863 258.401 135.74 275.231 135.74Z" fill="black"/>
<path d="M309.145 102.496V96.2602H307.347C305.729 93.4817 303.049 90.8666 299.208 88.6519C285.961 81.0027 264.484 81.0027 251.245 88.6519C247.413 90.8666 244.724 93.4817 243.106 96.2602H241.308V102.447C241.283 107.472 244.593 112.506 251.237 116.347C264.484 123.997 285.961 123.997 299.2 116.347C305.819 112.523 309.137 107.513 309.137 102.504L309.145 102.496Z" fill="black"/>
<path d="M275.231 115.841C293.961 115.841 309.145 107.074 309.145 96.2602C309.145 85.4462 293.961 76.6797 275.231 76.6797C256.5 76.6797 241.316 85.4462 241.316 96.2602C241.316 107.074 256.5 115.841 275.231 115.841Z" fill="#2276FF" stroke="black" stroke-miterlimit="10"/>
<path d="M266.781 86.192L284.849 86.2329C286.296 86.2329 287.661 86.4372 288.87 86.7968C289.736 87.0174 290.521 87.3279 291.183 87.7039C291.199 87.7039 291.207 87.7202 291.224 87.7284C291.886 88.1125 292.417 88.5619 292.801 89.0605C293.422 89.7551 293.774 90.5478 293.782 91.3813L293.847 101.817C293.863 104.645 289.892 106.941 284.988 106.933L271.987 106.908C268.26 106.908 264.746 106.059 262.098 104.53C259.45 103.002 257.988 100.975 257.971 98.8262L257.922 91.316C257.906 88.4884 261.878 86.192 266.781 86.2002V86.192ZM289.467 96.7096L289.426 90.2372C289.426 90.0166 289.336 89.8123 289.189 89.6162C289.009 89.4691 288.821 89.3383 288.601 89.2076C288.38 89.0768 288.151 88.9706 287.898 88.8725C287.571 88.7826 287.211 88.7336 286.827 88.7336L275.623 88.709C274.928 88.709 274.283 88.8643 273.793 89.1422C273.302 89.42 273.041 89.7959 273.041 90.1964L273.082 96.6687C273.082 97.0692 273.359 97.4451 273.85 97.723C274.34 98.0008 274.994 98.1643 275.68 98.1643L286.884 98.1888C287.579 98.1888 288.225 98.0335 288.715 97.7556C289.205 97.4778 289.467 97.1019 289.467 96.7014V96.7096ZM289.704 99.8968C288.862 100.142 287.914 100.281 286.901 100.281L275.697 100.256C273.989 100.256 272.436 99.8477 271.308 99.1939C270.18 98.5402 269.478 97.6494 269.478 96.6606L269.437 90.1882C269.437 89.608 269.674 89.0604 270.107 88.5701C268.513 88.8561 267.353 89.7142 267.361 90.7276L267.402 97.7311C267.402 98.72 268.08 99.6516 269.298 100.354C270.516 101.057 272.125 101.449 273.842 101.449L285.969 101.474C287.726 101.474 289.213 100.812 289.704 99.8886V99.8968ZM261.542 91.3078L261.591 98.818C261.6 100.412 262.687 101.915 264.648 103.051C266.609 104.187 269.208 104.808 271.97 104.816L284.972 104.841C287.17 104.841 289.058 104.065 289.843 102.961C288.715 103.354 287.391 103.574 285.985 103.574L273.858 103.55C271.096 103.55 268.579 102.888 266.756 101.834C264.934 100.779 263.798 99.3329 263.79 97.7311L263.749 90.7276C263.749 89.9104 264.133 89.1503 264.803 88.4966C262.891 88.946 261.542 90.0329 261.551 91.3078H261.542Z" fill="white"/>
</g>
<defs>
<clipPath id="clip0_307_18004">
<rect width="596.806" height="365.885" fill="white"/>
</clipPath>
</defs>
</svg>
