<svg width="366" height="419" viewBox="0 0 366 419" fill="none" xmlns="http://www.w3.org/2000/svg">
<g clip-path="url(#clip0_699_1232)">
<path opacity="0.15" d="M6.49008 334.628L146.2 415.285C155.277 420.526 171.145 419.867 181.627 413.812L448.27 259.871C458.751 253.817 459.894 244.662 450.817 239.412L311.107 158.755C302.03 153.514 286.162 154.173 275.681 160.228L9.03784 314.178C-1.44382 320.233 -2.58692 329.387 6.49008 334.638V334.628Z" fill="black"/>
<path d="M456.94 205.894V230.984C456.94 235.004 454.005 239.247 448.26 242.551L181.627 396.492C171.145 402.546 155.278 403.195 146.201 397.954L6.49028 317.308C2.6638 315.099 0.648842 312.183 0.396973 309.112V284.022C0.648842 287.103 2.6638 290.009 6.49028 292.217L11.7699 295.269L146.191 372.884C155.278 378.124 171.136 377.475 181.617 371.411L445.528 219.04L448.27 217.461C454.005 214.148 456.95 209.914 456.95 205.894H456.94Z" fill="black"/>
<path d="M6.49008 292.218L146.2 372.874C155.277 378.115 171.145 377.456 181.627 371.402L448.27 217.461C458.751 211.406 459.894 202.252 450.817 197.001L311.107 116.345C302.03 111.104 286.162 111.763 275.681 117.817L9.03784 271.758C-1.44382 277.813 -2.58692 286.967 6.49008 292.218Z" fill="#C0D7FF" stroke="black" stroke-width="0.592368" stroke-linecap="round" stroke-linejoin="round"/>
<path d="M13.3588 292.392L146.462 369.241C155.113 374.24 170.225 373.61 180.213 367.846L443.184 216.24C453.172 210.476 454.257 201.748 445.606 196.749L312.503 119.9C303.852 114.901 288.74 115.531 278.752 121.295L15.7806 272.901C5.79302 278.665 4.70804 287.393 13.3588 292.392Z" fill="white"/>
<path opacity="0.15" d="M74.3206 310.604C89.8735 310.604 102.482 303.326 102.482 294.349C102.482 285.371 89.8735 278.094 74.3206 278.094C58.7678 278.094 46.1597 285.371 46.1597 294.349C46.1597 303.326 58.7678 310.604 74.3206 310.604Z" fill="black"/>
<path d="M105.659 279.886V274.122H104.003C102.511 271.554 100.031 269.133 96.4855 267.089C84.2407 260.017 64.4011 260.017 52.1564 267.089C48.6108 269.133 46.1309 271.554 44.639 274.122H42.9825V279.837C42.9631 284.487 46.0146 289.137 52.1564 292.682C64.3914 299.754 84.2407 299.754 96.4855 292.682C102.608 289.147 105.669 284.516 105.669 279.886H105.659Z" fill="black"/>
<path d="M74.3208 292.218C91.6286 292.218 105.659 284.116 105.659 274.122C105.659 264.128 91.6286 256.026 74.3208 256.026C57.0131 256.026 42.9824 264.128 42.9824 274.122C42.9824 284.116 57.0131 292.218 74.3208 292.218Z" fill="#2276FF" stroke="black" stroke-width="0.592368" stroke-miterlimit="10"/>
<path d="M66.5126 264.822L83.2135 264.861C84.5503 264.861 85.8097 265.055 86.9334 265.384C87.7374 265.587 88.4543 265.878 89.0743 266.227C89.084 266.227 89.0937 266.236 89.113 266.246C89.7233 266.604 90.2174 267.021 90.5661 267.476C91.1377 268.125 91.4671 268.852 91.4671 269.617L91.5252 279.256C91.5446 281.872 87.8731 283.993 83.3394 283.983L71.3175 283.954C67.8688 283.954 64.6236 283.17 62.1824 281.755C59.7412 280.341 58.3849 278.471 58.3752 276.486L58.3365 269.549C58.3171 266.934 61.9886 264.812 66.5223 264.822H66.5126ZM87.4759 274.548L87.4371 268.571C87.4371 268.368 87.3596 268.174 87.2143 267.999C87.0497 267.864 86.8753 267.738 86.6719 267.622C86.4684 267.505 86.2553 267.399 86.0228 267.312C85.7225 267.234 85.3834 267.186 85.0347 267.186L74.679 267.166C74.0396 267.166 73.439 267.312 72.9934 267.564C72.5478 267.815 72.2959 268.174 72.2959 268.542L72.3346 274.519C72.3346 274.887 72.5865 275.236 73.0418 275.497C73.4971 275.759 74.0977 275.904 74.7371 275.904L85.0928 275.924C85.7322 275.924 86.3328 275.778 86.7784 275.526C87.224 275.275 87.4759 274.916 87.4759 274.548ZM87.689 277.493C86.914 277.716 86.0325 277.851 85.1025 277.851L74.7468 277.832C73.1678 277.832 71.734 277.454 70.6878 276.854C69.6416 276.253 69.0022 275.42 68.9925 274.509L68.9538 268.532C68.9538 267.99 69.1766 267.486 69.5738 267.04C68.1013 267.302 67.026 268.096 67.0357 269.036L67.0744 275.507C67.0744 276.418 67.7041 277.28 68.8278 277.929C69.9516 278.578 71.4434 278.936 73.0321 278.936L84.2403 278.956C85.8678 278.956 87.2434 278.345 87.6987 277.493H87.689ZM61.6592 269.559L61.698 276.495C61.698 277.968 62.7055 279.353 64.5267 280.399C66.3382 281.445 68.7407 282.027 71.2981 282.027L83.32 282.056C85.3544 282.056 87.0884 281.339 87.815 280.322C86.7687 280.68 85.5481 280.884 84.25 280.884L73.0418 280.864C70.4844 280.864 68.1594 280.254 66.4835 279.285C64.7979 278.316 63.7517 276.97 63.742 275.497L63.7033 269.026C63.7033 268.271 64.052 267.573 64.6817 266.963C62.9089 267.379 61.6689 268.387 61.6786 269.559H61.6592Z" fill="white"/>
<path opacity="0.15" d="M361.753 219.185L178.818 324.796C164.742 332.933 141.696 332.933 127.621 324.796L127.359 324.641C113.283 316.504 113.283 303.193 127.359 295.066L310.294 189.455C311.97 188.476 314.624 188.438 316.203 189.348L361.956 215.765C363.535 216.676 363.448 218.207 361.772 219.175L361.753 219.185Z" fill="black"/>
<path d="M364.794 75.3093L376.235 81.9064V101.717L364.794 95.1102V75.3093Z" fill="white" stroke="black" stroke-width="0.592368" stroke-miterlimit="10"/>
<path d="M356.028 27.541L319.042 48.8918V6.19019C319.042 4.24304 317.763 1.92778 316.184 1.01717C314.605 0.106565 311.96 0.155001 310.275 1.12373L127.349 106.744C120.278 110.823 116.751 116.18 116.751 121.527V299.812C116.751 305.16 120.287 310.517 127.349 314.595L127.611 314.75C141.754 322.916 164.675 322.916 178.818 314.75L361.753 209.129C363.429 208.161 364.804 205.787 364.804 203.85V29.0813C364.804 29.0813 363.38 28.2579 361.947 27.4344C360.368 26.5238 357.723 26.5723 356.037 27.541H356.028Z" fill="#2276FF" stroke="black" stroke-width="0.592368" stroke-miterlimit="10"/>
<path d="M127.348 136.3C113.273 128.173 113.273 114.862 127.348 106.735L310.283 1.12373C311.969 0.155001 314.613 0.106565 316.192 1.01717C317.771 1.92778 317.684 3.45837 316.008 4.4271L138.179 107.093C136.493 108.062 133.752 109.621 132.192 110.784C123.938 116.984 123.192 125.247 130.303 131.089C131.804 132.329 134.565 133.888 136.357 134.634C146.558 138.896 161.167 138.47 172.026 133.568C173.799 132.774 176.521 131.185 178.207 130.207L356.027 27.541C357.712 26.5723 360.357 26.5238 361.936 27.4344C363.515 28.345 363.428 29.8756 361.752 30.8444L178.817 136.465C164.741 144.593 141.695 144.593 127.61 136.465L127.348 136.31V136.3Z" fill="white" stroke="black" stroke-width="0.592368" stroke-miterlimit="10"/>
<path d="M178.208 130.207C176.522 131.176 173.8 132.755 172.027 133.559C161.158 138.461 146.559 138.897 136.349 134.634C134.567 133.888 131.796 132.329 130.294 131.089C123.184 125.247 123.93 116.984 132.183 110.794C133.753 109.622 136.494 108.081 138.17 107.103L315.99 4.42723C317.463 3.56506 317.705 2.28634 316.668 1.37573C318.005 2.43165 319.032 4.45629 319.032 6.19032L356.018 27.5411L178.198 130.217L178.208 130.207Z" fill="white"/>
<mask id="mask0_699_1232" style="mask-type:luminance" maskUnits="userSpaceOnUse" x="125" y="1" width="232" height="137">
<path d="M178.208 130.207C176.522 131.176 173.8 132.755 172.027 133.559C161.158 138.461 146.559 138.897 136.349 134.634C134.567 133.888 131.796 132.329 130.294 131.089C123.184 125.247 123.93 116.984 132.183 110.794C133.753 109.622 136.494 108.081 138.17 107.103L315.99 4.42723C317.463 3.56506 317.705 2.28634 316.668 1.37573C318.005 2.43165 319.032 4.45629 319.032 6.19032L356.018 27.5411L178.198 130.217L178.208 130.207Z" fill="white"/>
</mask>
<g mask="url(#mask0_699_1232)">
<path d="M319.041 39.4661V18.6868C319.041 17.1272 317.947 15.2382 316.6 14.4632L315.757 13.9788C314.411 13.2038 312.231 13.2038 310.875 13.9788L118.902 124.821L147.499 141.328L316.61 43.6898C317.956 42.9148 319.051 41.0161 319.051 39.4661H319.041Z" fill="white" stroke="black" stroke-width="0.592368" stroke-miterlimit="10"/>
<path d="M310.885 13.9788L118.902 124.821L124.617 128.124L316.61 17.2822C317.956 16.5072 317.956 15.2382 316.61 14.4632L315.767 13.9788C314.421 13.2038 312.241 13.2038 310.885 13.9788Z" fill="#C0D7FF" stroke="black" stroke-width="0.592368" stroke-linecap="round" stroke-linejoin="round"/>
<path d="M330.482 46.0728V25.2935C330.482 23.7339 329.388 21.8449 328.041 21.0699L327.198 20.5855C325.852 19.8105 323.672 19.8105 322.316 20.5855L130.333 131.428L158.93 147.935L328.051 50.2965C329.397 49.5215 330.492 47.6228 330.492 46.0728H330.482Z" fill="white" stroke="black" stroke-width="0.592368" stroke-miterlimit="10"/>
<path d="M322.326 20.5857L130.343 131.428L136.058 134.731L328.051 23.8794C329.397 23.1044 329.397 21.8353 328.051 21.0604L327.208 20.576C325.862 19.801 323.682 19.801 322.326 20.576V20.5857Z" fill="#C0D7FF" stroke="black" stroke-width="0.592368" stroke-linecap="round" stroke-linejoin="round"/>
<path d="M341.923 52.6698V31.8906C341.923 30.3309 340.828 28.4419 339.482 27.6669L338.639 27.1826C337.292 26.4076 335.113 26.4076 333.756 27.1826L141.773 138.025L170.37 154.532L339.482 56.8935C340.828 56.1185 341.923 54.2198 341.923 52.6698Z" fill="white" stroke="black" stroke-width="0.592368" stroke-miterlimit="10"/>
<path d="M333.756 27.1828L141.773 138.025L147.489 141.328L339.481 30.4765C340.828 29.7015 340.828 28.4325 339.481 27.6575L338.639 27.1732C337.292 26.3982 335.113 26.3982 333.756 27.1732V27.1828Z" fill="#C0D7FF" stroke="black" stroke-width="0.592368" stroke-linecap="round" stroke-linejoin="round"/>
</g>
<path d="M178.208 130.207C176.522 131.176 173.8 132.755 172.027 133.559C161.158 138.461 146.559 138.897 136.349 134.634C134.567 133.888 131.796 132.329 130.294 131.089C123.184 125.247 123.93 116.984 132.183 110.794C133.753 109.622 136.494 108.081 138.17 107.103L315.99 4.42723C317.463 3.56506 317.705 2.28634 316.668 1.37573C318.005 2.43165 319.032 4.45629 319.032 6.19032L356.018 27.5411L178.198 130.217L178.208 130.207Z" stroke="black" stroke-width="0.592368" stroke-miterlimit="10"/>
<path d="M387.666 91.3224V131.912C387.666 133.462 386.562 135.361 385.234 136.136L311.185 178.886C311.185 178.886 311.088 178.944 311.039 178.954C305.45 182.151 300.364 182.567 296.654 180.649C295.53 180.068 291.19 177.539 290.134 176.852C286.782 174.682 284.738 170.4 284.738 164.413C284.738 152.052 293.437 136.93 304.374 129.994H304.384L373.784 89.9178C373.929 89.8306 374.036 89.7531 374.152 89.6659C375.121 88.8909 374.995 87.8059 373.784 87.1085L364.784 81.9161V75.3093L385.225 87.1085C386.426 87.7963 387.433 89.4043 387.617 90.8574C387.646 91.0124 387.656 91.1771 387.656 91.3321L387.666 91.3224Z" fill="white" stroke="black" stroke-width="0.592368" stroke-miterlimit="10"/>
<path d="M387.666 91.3224V131.912C387.666 133.462 386.562 135.361 385.235 136.136L311.185 178.886C311.185 178.886 311.088 178.944 311.04 178.954C303.745 183.119 297.322 182.557 293.67 178.266C291.626 175.863 290.444 172.299 290.444 167.736C290.444 154.968 299.734 139.274 311.175 132.648L381.941 91.7971L385.225 89.908C386.426 89.2009 387.424 89.6271 387.618 90.838C387.647 90.993 387.656 91.1577 387.656 91.3127L387.666 91.3224Z" fill="white" stroke="black" stroke-width="0.592368" stroke-miterlimit="10"/>
<path d="M307.61 157.836C307.61 163.309 311.447 165.527 316.184 162.786C320.921 160.054 324.757 153.399 324.757 147.925C324.757 142.452 320.921 140.234 316.184 142.975C311.447 145.707 307.61 152.362 307.61 157.836Z" fill="white" stroke="black" stroke-width="0.592368" stroke-miterlimit="10"/>
<path d="M325.057 144.002L322.519 142.549L310.119 163.386L313.035 165.062L325.057 144.002Z" fill="white" stroke="black" stroke-width="0.592368" stroke-miterlimit="10"/>
<path d="M310.468 159.482C310.468 164.955 314.304 167.174 319.042 164.432C323.779 161.701 327.615 155.045 327.615 149.572C327.615 144.099 323.779 141.88 319.042 144.622C314.304 147.354 310.468 154.009 310.468 159.482Z" fill="white" stroke="black" stroke-width="0.592368" stroke-miterlimit="10"/>
<path opacity="0.15" d="M330.623 267.593C348.224 267.491 362.446 259.173 362.387 249.013C362.329 238.853 348.012 230.7 330.411 230.801C312.809 230.902 298.587 239.221 298.646 249.38C298.705 259.54 313.021 267.694 330.623 267.593Z" fill="black"/>
<path d="M361.588 235.896H355.689C354.739 235.13 353.703 234.394 352.521 233.716C340.363 226.693 320.398 226.731 308.153 233.803C307.01 234.462 306.012 235.169 305.082 235.905H298.931V247.53H298.998C299.338 251.87 302.321 256.142 308.008 259.426C320.165 266.449 340.131 266.411 352.376 259.339C358.052 256.064 361.075 251.831 361.511 247.53H361.598V235.905L361.588 235.896Z" fill="white" stroke="black" stroke-width="0.592368" stroke-linecap="round" stroke-linejoin="round"/>
<path d="M330.333 254.323C347.657 254.223 361.654 246.032 361.596 236.027C361.538 226.023 347.448 217.993 330.125 218.093C312.801 218.193 298.805 226.384 298.862 236.388C298.92 246.393 313.01 254.423 330.333 254.323Z" fill="white" stroke="black" stroke-width="0.592368" stroke-linecap="round" stroke-linejoin="round"/>
<path d="M330.314 250.904C344.374 250.823 355.734 244.178 355.687 236.062C355.64 227.946 344.204 221.432 330.144 221.513C316.084 221.594 304.724 228.239 304.771 236.355C304.818 244.471 316.254 250.985 330.314 250.904Z" fill="#80DEA4" stroke="black" stroke-width="0.592368" stroke-linecap="round" stroke-linejoin="round"/>
<path d="M361.588 225.501H355.689C354.739 224.736 353.703 224 352.521 223.321C340.363 216.298 320.398 216.337 308.153 223.409C307.01 224.067 306.012 224.775 305.082 225.511H298.931V237.136H298.998C299.338 241.475 302.321 245.748 308.008 249.032C320.165 256.055 340.131 256.016 352.376 248.944C358.052 245.67 361.075 241.437 361.511 237.136H361.598V225.511L361.588 225.501Z" fill="white" stroke="black" stroke-width="0.592368" stroke-linecap="round" stroke-linejoin="round"/>
<path d="M330.331 243.929C347.655 243.829 361.652 235.638 361.594 225.633C361.536 215.629 347.446 207.599 330.123 207.699C312.799 207.799 298.803 215.99 298.86 225.995C298.918 235.999 313.008 244.029 330.331 243.929Z" fill="white" stroke="black" stroke-width="0.592368" stroke-linecap="round" stroke-linejoin="round"/>
<path d="M330.312 240.509C344.372 240.428 355.732 233.783 355.685 225.667C355.638 217.551 344.202 211.037 330.142 211.118C316.082 211.199 304.722 217.844 304.769 225.96C304.816 234.076 316.252 240.59 330.312 240.509Z" fill="#80DEA4" stroke="black" stroke-width="0.592368" stroke-linecap="round" stroke-linejoin="round"/>
<path d="M361.589 215.116H355.689C354.74 214.351 353.703 213.615 352.521 212.937C340.364 205.913 320.398 205.952 308.153 213.024C307.01 213.683 306.013 214.39 305.083 215.126H298.931V226.751H298.999C299.338 231.091 302.322 235.363 308.008 238.647C320.166 245.67 340.131 245.631 352.376 238.56C358.053 235.285 361.075 231.052 361.511 226.751H361.598V215.126L361.589 215.116Z" fill="white" stroke="black" stroke-width="0.592368" stroke-linecap="round" stroke-linejoin="round"/>
<path d="M330.339 233.544C347.663 233.444 361.66 225.253 361.602 215.249C361.544 205.244 347.454 197.214 330.131 197.314C312.807 197.414 298.81 205.605 298.868 215.61C298.926 225.615 313.016 233.644 330.339 233.544Z" fill="white" stroke="black" stroke-width="0.592368" stroke-linecap="round" stroke-linejoin="round"/>
<path d="M330.32 230.124C344.38 230.043 355.74 223.398 355.693 215.282C355.646 207.166 344.211 200.653 330.151 200.734C316.091 200.815 304.731 207.46 304.778 215.576C304.824 223.692 316.26 230.205 330.32 230.124Z" fill="#798BFF" stroke="black" stroke-width="0.592368" stroke-linecap="round" stroke-linejoin="round"/>
<path d="M323.023 218.73L321.831 218.042L323.091 217.315C321.754 216.162 321.182 214.942 321.386 213.673C321.589 212.404 322.587 211.251 324.369 210.214C326.142 209.188 327.983 208.626 329.891 208.509C331.8 208.393 333.543 208.703 335.113 209.43L331.887 211.29C330.007 210.534 328.273 210.621 326.675 211.542C325.774 212.065 325.319 212.656 325.299 213.305C325.28 213.963 325.677 214.642 326.481 215.349L330.676 212.927L331.867 213.615L327.528 216.124C327.634 216.201 327.818 216.317 328.07 216.463C328.39 216.647 328.642 216.782 328.806 216.86L333.146 214.351L334.338 215.039L330.162 217.451C332.623 218.342 334.783 218.245 336.643 217.17C337.515 216.666 337.941 216.133 337.922 215.552C337.903 214.981 337.525 214.409 336.769 213.847L339.898 212.036C341.342 212.975 342 214.031 341.865 215.203C341.739 216.366 340.751 217.48 338.92 218.546C337.147 219.572 335.18 220.154 333.02 220.299C330.86 220.444 328.777 220.154 326.762 219.408L325.483 220.144L324.292 219.456L325.406 218.817C325.241 218.739 324.999 218.613 324.67 218.42C324.418 218.274 324.234 218.158 324.127 218.081L323.013 218.72L323.023 218.73Z" fill="white"/>
<path opacity="0.15" d="M289.98 295.241C307.71 295.139 322.035 286.76 321.976 276.525C321.917 266.29 307.496 258.076 289.766 258.178C272.036 258.28 257.711 266.66 257.77 276.895C257.829 287.129 272.25 295.343 289.98 295.241Z" fill="black"/>
<path d="M320.368 263.184H314.469C313.519 262.419 312.483 261.683 311.301 261.005C299.144 253.981 279.178 254.02 266.933 261.092C265.79 261.751 264.792 262.458 263.862 263.194H257.711V274.819H257.779C258.118 279.159 261.101 283.431 266.788 286.715C278.945 293.738 298.911 293.699 311.156 286.628C316.833 283.353 319.855 279.12 320.291 274.819H320.378V263.194L320.368 263.184Z" fill="white" stroke="black" stroke-width="0.592368" stroke-linecap="round" stroke-linejoin="round"/>
<path d="M289.116 281.607C306.44 281.507 320.436 273.316 320.379 263.311C320.321 253.307 306.231 245.277 288.907 245.377C271.584 245.477 257.587 253.668 257.645 263.673C257.702 273.677 271.793 281.707 289.116 281.607Z" fill="white" stroke="black" stroke-width="0.592368" stroke-linecap="round" stroke-linejoin="round"/>
<path d="M289.097 278.187C303.157 278.106 314.517 271.461 314.47 263.345C314.423 255.229 302.987 248.715 288.928 248.796C274.868 248.877 263.508 255.522 263.554 263.638C263.601 271.754 275.037 278.268 289.097 278.187Z" fill="#80DEA4" stroke="black" stroke-width="0.592368" stroke-linecap="round" stroke-linejoin="round"/>
<path d="M320.369 252.8H314.469C313.52 252.034 312.483 251.298 311.302 250.62C299.144 243.597 279.178 243.636 266.934 250.707C265.791 251.366 264.793 252.073 263.863 252.809H257.711V264.434H257.779C258.118 268.774 261.102 273.046 266.788 276.33C278.946 283.354 298.912 283.315 311.156 276.243C316.833 272.969 319.855 268.735 320.291 264.434H320.379V252.809L320.369 252.8Z" fill="white" stroke="black" stroke-width="0.592368" stroke-linecap="round" stroke-linejoin="round"/>
<path d="M289.115 271.212C306.438 271.113 320.435 262.921 320.377 252.917C320.32 242.912 306.229 234.883 288.906 234.982C271.583 235.082 257.586 243.273 257.643 253.278C257.701 263.283 271.791 271.312 289.115 271.212Z" fill="white" stroke="black" stroke-width="0.592368" stroke-linecap="round" stroke-linejoin="round"/>
<path d="M289.095 267.793C303.155 267.712 314.515 261.067 314.468 252.951C314.421 244.835 302.986 238.321 288.926 238.402C274.866 238.483 263.506 245.128 263.552 253.244C263.599 261.36 275.035 267.874 289.095 267.793Z" fill="#80DEA4" stroke="black" stroke-width="0.592368" stroke-linecap="round" stroke-linejoin="round"/>
<path d="M320.369 242.405H314.469C313.52 241.64 312.483 240.904 311.302 240.226C299.144 233.203 279.178 233.241 266.934 240.313C265.791 240.972 264.793 241.679 263.863 242.415H257.711V254.04H257.779C258.118 258.38 261.102 262.652 266.788 265.936C278.946 272.959 298.912 272.92 311.156 265.849C316.833 262.574 319.855 258.341 320.291 254.04H320.379V242.415L320.369 242.405Z" fill="white" stroke="black" stroke-width="0.592368" stroke-linecap="round" stroke-linejoin="round"/>
<path d="M289.113 260.828C306.437 260.728 320.433 252.537 320.376 242.532C320.318 232.528 306.228 224.498 288.905 224.598C271.581 224.698 257.584 232.889 257.642 242.894C257.7 252.898 271.79 260.928 289.113 260.828Z" fill="white" stroke="black" stroke-width="0.592368" stroke-linecap="round" stroke-linejoin="round"/>
<path d="M289.094 257.408C303.154 257.327 314.514 250.682 314.467 242.566C314.42 234.45 302.985 227.936 288.925 228.017C274.865 228.098 263.505 234.743 263.551 242.859C263.598 250.975 275.034 257.489 289.094 257.408Z" fill="#80DEA4" stroke="black" stroke-width="0.592368" stroke-linecap="round" stroke-linejoin="round"/>
<path d="M320.369 232.021H314.469C313.52 231.255 312.483 230.519 311.302 229.841C299.144 222.818 279.178 222.857 266.934 229.928C265.791 230.587 264.793 231.294 263.863 232.03H257.711V243.655H257.779C258.118 247.995 261.102 252.267 266.788 255.551C278.946 262.574 298.912 262.536 311.156 255.464C316.833 252.19 319.855 247.956 320.291 243.655H320.379V232.03L320.369 232.021Z" fill="white" stroke="black" stroke-width="0.592368" stroke-linecap="round" stroke-linejoin="round"/>
<path d="M289.111 250.443C306.435 250.344 320.431 242.152 320.374 232.148C320.316 222.143 306.226 214.114 288.903 214.213C271.579 214.313 257.582 222.504 257.64 232.509C257.698 242.514 271.788 250.543 289.111 250.443Z" fill="white" stroke="black" stroke-width="0.592368" stroke-linecap="round" stroke-linejoin="round"/>
<path d="M289.092 247.024C303.152 246.943 314.512 240.298 314.465 232.182C314.418 224.066 302.983 217.552 288.923 217.633C274.863 217.714 263.503 224.359 263.549 232.475C263.596 240.591 275.032 247.105 289.092 247.024Z" fill="#80DEA4" stroke="black" stroke-width="0.592368" stroke-linecap="round" stroke-linejoin="round"/>
<path d="M320.369 221.626H314.469C313.52 220.861 312.483 220.125 311.302 219.447C299.144 212.423 279.178 212.462 266.934 219.534C265.791 220.193 264.793 220.9 263.863 221.636H257.711V233.261H257.779C258.118 237.601 261.102 241.873 266.788 245.157C278.946 252.18 298.912 252.141 311.156 245.07C316.833 241.795 319.855 237.562 320.291 233.261H320.379V221.636L320.369 221.626Z" fill="white" stroke="black" stroke-width="0.592368" stroke-linecap="round" stroke-linejoin="round"/>
<path d="M289.12 240.049C306.443 239.95 320.44 231.758 320.382 221.754C320.325 211.749 306.234 203.72 288.911 203.819C271.587 203.919 257.591 212.11 257.648 222.115C257.706 232.12 271.796 240.149 289.12 240.049Z" fill="white" stroke="black" stroke-width="0.592368" stroke-linecap="round" stroke-linejoin="round"/>
<path d="M289.1 236.63C303.16 236.549 314.52 229.904 314.473 221.788C314.426 213.672 302.99 207.158 288.93 207.239C274.871 207.32 263.511 213.965 263.557 222.081C263.604 230.197 275.04 236.711 289.1 236.63Z" fill="#80DEA4" stroke="black" stroke-width="0.592368" stroke-linecap="round" stroke-linejoin="round"/>
<path d="M320.368 211.242H314.469C313.519 210.476 312.483 209.74 311.301 209.062C299.144 202.039 279.178 202.077 266.933 209.149C265.79 209.808 264.792 210.515 263.862 211.251H257.711V222.876H257.779C258.118 227.216 261.101 231.488 266.788 234.772C278.945 241.795 298.911 241.757 311.156 234.685C316.833 231.411 319.855 227.177 320.291 222.876H320.378V211.251L320.368 211.242Z" fill="white" stroke="black" stroke-width="0.592368" stroke-linecap="round" stroke-linejoin="round"/>
<path d="M289.118 229.664C306.441 229.565 320.438 221.373 320.38 211.369C320.323 201.364 306.232 193.335 288.909 193.435C271.585 193.534 257.589 201.726 257.646 211.73C257.704 221.735 271.794 229.764 289.118 229.664Z" fill="white" stroke="black" stroke-width="0.592368" stroke-linecap="round" stroke-linejoin="round"/>
<path d="M289.098 226.245C303.158 226.164 314.518 219.519 314.471 211.403C314.424 203.287 302.988 196.773 288.929 196.854C274.869 196.935 263.509 203.58 263.555 211.696C263.602 219.812 275.038 226.326 289.098 226.245Z" fill="#80DEA4" stroke="black" stroke-width="0.592368" stroke-linecap="round" stroke-linejoin="round"/>
<path d="M320.369 200.847H314.469C313.52 200.082 312.483 199.346 311.302 198.667C299.144 191.644 279.178 191.683 266.934 198.755C265.791 199.413 264.793 200.121 263.863 200.857H257.711V212.482H257.779C258.118 216.821 261.102 221.094 266.788 224.378C278.946 231.401 298.912 231.362 311.156 224.29C316.833 221.016 319.855 216.783 320.291 212.482H320.379V200.857L320.369 200.847Z" fill="white" stroke="black" stroke-width="0.592368" stroke-linecap="round" stroke-linejoin="round"/>
<path d="M289.116 219.27C306.439 219.17 320.436 210.979 320.378 200.975C320.321 190.97 306.23 182.941 288.907 183.04C271.583 183.14 257.587 191.331 257.644 201.336C257.702 211.341 271.792 219.37 289.116 219.27Z" fill="white" stroke="black" stroke-width="0.592368" stroke-linecap="round" stroke-linejoin="round"/>
<path d="M289.096 215.851C303.156 215.77 314.516 209.125 314.47 201.009C314.423 192.892 302.987 186.379 288.927 186.46C274.867 186.541 263.507 193.186 263.554 201.302C263.601 209.418 275.036 215.932 289.096 215.851Z" fill="#C0D7FF" stroke="black" stroke-width="0.592368" stroke-linecap="round" stroke-linejoin="round"/>
<path d="M285.194 205.749L283.431 204.732L284.497 204.112C283.199 203.928 282.172 203.618 281.435 203.191C280.205 202.484 279.74 201.593 280.021 200.527C280.312 199.462 281.387 198.387 283.276 197.292C285.078 196.255 286.899 195.655 288.749 195.49C290.735 195.325 292.595 195.713 294.32 196.653L291.094 198.513C290.144 197.98 289.205 197.738 288.255 197.776C287.306 197.815 286.415 198.077 285.553 198.571C284.729 199.045 284.274 199.52 284.187 199.985C284.099 200.46 284.371 200.867 284.991 201.225C285.494 201.516 286.512 201.787 288.071 202.048L291.559 200.033L293.322 201.051L290.551 202.649C290.822 202.775 291.026 202.872 291.142 202.94C292.198 203.55 292.498 204.441 292.043 205.623H292.13C292.711 205.003 293.196 204.586 293.593 204.354C294.194 204.005 294.93 203.695 295.802 203.424C296.674 203.153 297.313 202.901 297.71 202.678C298.485 202.232 298.969 201.612 299.163 200.837L302.806 201.235C302.515 202.368 301.682 203.337 300.287 204.141C299.483 204.606 298.446 205.022 297.177 205.391C295.908 205.759 294.988 206.107 294.397 206.446C293.748 206.824 293.215 207.444 292.808 208.326L289.04 208.064C289.699 206.689 289.466 205.681 288.362 205.042C288.062 204.867 287.684 204.712 287.219 204.577L285.204 205.739L285.194 205.749Z" fill="white"/>
<path opacity="0.15" d="M244.727 321.492C261.938 321.393 275.844 313.259 275.787 303.324C275.73 293.389 261.731 285.415 244.52 285.514C227.309 285.614 213.403 293.748 213.46 303.683C213.517 313.618 227.516 321.592 244.727 321.492Z" fill="black"/>
<path d="M274.189 288.623H268.29C267.34 287.858 266.304 287.122 265.122 286.444C252.964 279.42 232.999 279.459 220.754 286.531C219.611 287.19 218.613 287.897 217.683 288.633H211.532V300.258H211.6C211.939 304.598 214.922 308.87 220.609 312.154C232.766 319.177 252.732 319.138 264.977 312.067C270.653 308.792 273.676 304.559 274.112 300.258H274.199V288.633L274.189 288.623Z" fill="white" stroke="black" stroke-width="0.592368" stroke-linecap="round" stroke-linejoin="round"/>
<path d="M242.929 307.04C260.253 306.94 274.249 298.749 274.192 288.744C274.134 278.74 260.044 270.71 242.72 270.81C225.397 270.91 211.4 279.101 211.458 289.106C211.515 299.11 225.606 307.14 242.929 307.04Z" fill="white" stroke="black" stroke-width="0.592368" stroke-linecap="round" stroke-linejoin="round"/>
<path d="M242.91 303.62C256.97 303.539 268.33 296.894 268.283 288.778C268.236 280.662 256.8 274.148 242.741 274.229C228.681 274.31 217.321 280.955 217.367 289.072C217.414 297.188 228.85 303.701 242.91 303.62Z" fill="#80DEA4" stroke="black" stroke-width="0.592368" stroke-linecap="round" stroke-linejoin="round"/>
<path d="M274.189 278.239H268.29C267.34 277.474 266.304 276.737 265.122 276.059C252.964 269.036 232.999 269.075 220.754 276.146C219.611 276.805 218.613 277.512 217.683 278.249H211.532V289.873H211.6C211.939 294.213 214.922 298.485 220.609 301.769C232.766 308.793 252.732 308.754 264.977 301.682C270.653 298.408 273.676 294.174 274.112 289.873H274.199V278.249L274.189 278.239Z" fill="white" stroke="black" stroke-width="0.592368" stroke-linecap="round" stroke-linejoin="round"/>
<path d="M242.928 296.646C260.251 296.546 274.248 288.355 274.19 278.35C274.133 268.346 260.043 260.316 242.719 260.416C225.396 260.516 211.399 268.707 211.456 278.711C211.514 288.716 225.604 296.746 242.928 296.646Z" fill="white" stroke="black" stroke-width="0.592368" stroke-linecap="round" stroke-linejoin="round"/>
<path d="M242.908 293.226C256.968 293.145 268.328 286.5 268.281 278.384C268.235 270.268 256.799 263.755 242.739 263.835C228.679 263.916 217.319 270.561 217.366 278.678C217.413 286.794 228.848 293.307 242.908 293.226Z" fill="#80DEA4" stroke="black" stroke-width="0.592368" stroke-linecap="round" stroke-linejoin="round"/>
<path d="M274.189 267.844H268.29C267.34 267.079 266.304 266.343 265.122 265.665C252.964 258.641 232.999 258.68 220.754 265.752C219.611 266.411 218.613 267.118 217.683 267.854H211.532V279.479H211.6C211.939 283.819 214.922 288.091 220.609 291.375C232.766 298.398 252.732 298.359 264.977 291.288C270.653 288.013 273.676 283.78 274.112 279.479H274.199V267.854L274.189 267.844Z" fill="white" stroke="black" stroke-width="0.592368" stroke-linecap="round" stroke-linejoin="round"/>
<path d="M242.936 286.261C260.259 286.161 274.256 277.97 274.199 267.965C274.141 257.961 260.051 249.931 242.727 250.031C225.404 250.131 211.407 258.322 211.465 268.327C211.522 278.331 225.612 286.361 242.936 286.261Z" fill="white" stroke="black" stroke-width="0.592368" stroke-linecap="round" stroke-linejoin="round"/>
<path d="M242.916 282.841C256.976 282.76 268.336 276.115 268.289 267.999C268.243 259.883 256.807 253.37 242.747 253.451C228.687 253.532 217.327 260.177 217.374 268.293C217.42 276.409 228.856 282.922 242.916 282.841Z" fill="#80DEA4" stroke="black" stroke-width="0.592368" stroke-linecap="round" stroke-linejoin="round"/>
<path d="M274.189 257.46H268.29C267.34 256.694 266.304 255.958 265.122 255.28C252.964 248.257 232.999 248.296 220.754 255.367C219.611 256.026 218.613 256.733 217.683 257.469H211.532V269.094H211.6C211.939 273.434 214.922 277.706 220.609 280.99C232.766 288.014 252.732 287.975 264.977 280.903C270.653 277.629 273.676 273.395 274.112 269.094H274.199V257.469L274.189 257.46Z" fill="white" stroke="black" stroke-width="0.592368" stroke-linecap="round" stroke-linejoin="round"/>
<path d="M242.934 275.867C260.257 275.767 274.254 267.576 274.196 257.571C274.139 247.566 260.048 239.537 242.725 239.637C225.401 239.736 211.405 247.928 211.462 257.932C211.52 267.937 225.61 275.966 242.934 275.867Z" fill="white" stroke="black" stroke-width="0.592368" stroke-linecap="round" stroke-linejoin="round"/>
<path d="M242.914 272.447C256.974 272.366 268.334 265.721 268.287 257.605C268.241 249.489 256.805 242.976 242.745 243.057C228.685 243.138 217.325 249.783 217.372 257.899C217.418 266.015 228.854 272.528 242.914 272.447Z" fill="#80DEA4" stroke="black" stroke-width="0.592368" stroke-linecap="round" stroke-linejoin="round"/>
<path d="M274.189 247.065H268.29C267.34 246.3 266.304 245.563 265.122 244.885C252.964 237.862 232.999 237.901 220.754 244.972C219.611 245.631 218.613 246.338 217.683 247.075H211.532V258.699H211.6C211.939 263.039 214.922 267.311 220.609 270.595C232.766 277.619 252.732 277.58 264.977 270.508C270.653 267.234 273.676 263.001 274.112 258.699H274.199V247.075L274.189 247.065Z" fill="white" stroke="black" stroke-width="0.592368" stroke-linecap="round" stroke-linejoin="round"/>
<path d="M242.933 265.482C260.256 265.382 274.253 257.191 274.195 247.186C274.138 237.182 260.047 229.152 242.724 229.252C225.4 229.352 211.404 237.543 211.461 247.548C211.519 257.552 225.609 265.582 242.933 265.482Z" fill="white" stroke="black" stroke-width="0.592368" stroke-linecap="round" stroke-linejoin="round"/>
<path d="M242.913 262.063C256.973 261.982 268.333 255.337 268.286 247.221C268.239 239.105 256.803 232.591 242.743 232.672C228.683 232.753 217.324 239.398 217.37 247.514C217.417 255.63 228.853 262.144 242.913 262.063Z" fill="#80DEA4" stroke="black" stroke-width="0.592368" stroke-linecap="round" stroke-linejoin="round"/>
<path d="M274.189 236.68H268.29C267.34 235.915 266.304 235.179 265.122 234.501C252.964 227.477 232.999 227.516 220.754 234.588C219.611 235.246 218.613 235.954 217.683 236.69H211.532V248.315H211.6C211.939 252.654 214.922 256.927 220.609 260.211C232.766 267.234 252.732 267.195 264.977 260.123C270.653 256.849 273.676 252.616 274.112 248.315H274.199V236.69L274.189 236.68Z" fill="white" stroke="black" stroke-width="0.592368" stroke-linecap="round" stroke-linejoin="round"/>
<path d="M242.931 255.088C260.254 254.988 274.251 246.797 274.193 236.792C274.136 226.788 260.045 218.758 242.722 218.858C225.398 218.958 211.402 227.149 211.459 237.154C211.517 247.158 225.607 255.188 242.931 255.088Z" fill="white" stroke="black" stroke-width="0.592368" stroke-linecap="round" stroke-linejoin="round"/>
<path d="M242.911 251.668C256.971 251.587 268.331 244.942 268.284 236.826C268.238 228.71 256.802 222.197 242.742 222.278C228.682 222.359 217.322 229.004 217.369 237.12C217.416 245.236 228.851 251.749 242.911 251.668Z" fill="#80DEA4" stroke="black" stroke-width="0.592368" stroke-linecap="round" stroke-linejoin="round"/>
<path d="M274.189 226.286H268.29C267.34 225.521 266.304 224.784 265.122 224.106C252.964 217.083 232.999 217.122 220.754 224.193C219.611 224.852 218.613 225.559 217.683 226.296H211.532V237.92H211.6C211.939 242.26 214.922 246.532 220.609 249.816C232.766 256.84 252.732 256.801 264.977 249.729C270.653 246.455 273.676 242.221 274.112 237.92H274.199V226.296L274.189 226.286Z" fill="white" stroke="black" stroke-width="0.592368" stroke-linecap="round" stroke-linejoin="round"/>
<path d="M242.938 244.703C260.262 244.604 274.259 236.412 274.201 226.408C274.143 216.403 260.053 208.374 242.73 208.473C225.406 208.573 211.41 216.764 211.467 226.769C211.525 236.774 225.615 244.803 242.938 244.703Z" fill="white" stroke="black" stroke-width="0.592368" stroke-linecap="round" stroke-linejoin="round"/>
<path d="M242.919 241.284C256.979 241.203 268.339 234.558 268.292 226.442C268.245 218.326 256.81 211.812 242.75 211.893C228.69 211.974 217.33 218.619 217.377 226.735C217.423 234.851 228.859 241.365 242.919 241.284Z" fill="#C0D7FF" stroke="black" stroke-width="0.592368" stroke-linecap="round" stroke-linejoin="round"/>
<path d="M252.78 232.292L251.037 231.284C249.012 232.34 247.075 232.95 245.224 233.105C243.374 233.26 241.747 232.96 240.332 232.205L243.558 230.345C244.382 230.693 245.215 230.839 246.057 230.79C246.891 230.732 247.801 230.471 248.789 229.996L244.943 227.777C244.876 227.816 244.837 227.836 244.808 227.836C243.975 228.155 243.287 228.417 242.735 228.611C242.183 228.804 241.524 228.998 240.758 229.182C239.993 229.366 239.325 229.473 238.753 229.502C238.182 229.531 237.571 229.473 236.913 229.347C236.254 229.221 235.663 228.988 235.101 228.669C233.832 227.932 233.357 227.061 233.677 226.053C233.997 225.046 234.985 224.019 236.641 222.982L235.45 222.294L236.874 221.471L238.085 222.169C239.819 221.306 241.524 220.812 243.2 220.696C244.876 220.58 246.406 220.851 247.782 221.519L244.624 223.341C243.355 222.788 241.94 222.837 240.361 223.486L243.868 225.511C243.868 225.511 243.965 225.472 244.033 225.443C245.05 225.026 245.951 224.697 246.726 224.445C247.501 224.203 248.334 223.999 249.215 223.854C250.097 223.709 250.93 223.689 251.715 223.815C252.499 223.941 253.236 224.203 253.924 224.6C255.251 225.365 255.754 226.276 255.454 227.332C255.154 228.388 254.156 229.434 252.49 230.48L254.214 231.478L252.79 232.301L252.78 232.292ZM237.649 225.588C237.504 225.995 237.649 226.324 238.094 226.586C238.54 226.838 239.073 226.935 239.693 226.867C240.313 226.799 241.146 226.567 242.192 226.189L238.889 224.28C238.211 224.745 237.804 225.181 237.649 225.588ZM250.94 226.712C250.455 226.431 249.884 226.334 249.225 226.421C248.566 226.508 247.714 226.741 246.668 227.119L250.213 229.163C250.891 228.698 251.308 228.242 251.482 227.807C251.647 227.371 251.473 227.002 250.94 226.702V226.712Z" fill="white"/>
<g opacity="0.15">
<path d="M72.9356 215.116L67.3945 215.31C63.2096 215.455 59.1312 216.628 55.4985 218.701L45.7821 224.261C44.7165 224.871 44.3484 226.228 44.9587 227.293L54.6945 244.304C55.3048 245.37 56.661 245.738 57.7266 245.128L67.4429 239.567C71.0757 237.484 75.154 236.322 79.339 236.177L84.8801 235.983C89.6656 235.808 94.3252 234.481 98.4811 232.108L106.909 227.284C107.975 226.673 108.343 225.317 107.732 224.251L97.9967 207.241C97.3864 206.175 96.0302 205.807 94.9646 206.417L86.5366 211.241C82.3808 213.615 77.7212 214.952 72.9356 215.116Z" fill="black"/>
</g>
<path d="M72.9356 210.273L67.3945 210.467C63.2096 210.612 59.1312 211.784 55.4985 213.857L45.7821 219.418C44.7165 220.028 44.3484 221.384 44.9587 222.45L54.6945 239.461C55.3048 240.526 56.661 240.894 57.7266 240.284L67.4429 234.724C71.0757 232.641 75.154 231.478 79.339 231.333L84.8801 231.139C89.6656 230.965 94.3252 229.638 98.4811 227.264L106.909 222.44C107.975 221.83 108.343 220.474 107.732 219.408L97.9967 202.397C97.3864 201.331 96.0302 200.963 94.9646 201.574L86.5366 206.398C82.3808 208.771 77.7212 210.108 72.9356 210.273Z" fill="white" stroke="black" stroke-width="0.592368" stroke-linecap="round" stroke-linejoin="round"/>
<path d="M92.6882 208.645C92.6301 208.539 92.5914 208.432 92.5429 208.326L89.0264 210.341C84.764 212.782 79.9591 214.119 75.038 214.235L69.739 214.351C65.4475 214.448 61.2432 215.62 57.5136 217.751L52.1953 220.793C52.9509 222.12 52.4956 223.806 51.1685 224.571L55.8377 232.738C57.1552 231.982 58.8214 232.437 59.5867 233.735L64.8857 230.703C68.625 228.562 72.8486 227.39 77.1595 227.303L82.4294 227.196C87.3602 227.09 92.1845 225.753 96.4663 223.302L99.9343 221.316C99.1787 219.989 99.634 218.304 100.961 217.538L96.4566 209.672C95.1294 210.428 93.4438 209.972 92.6785 208.645H92.6882Z" fill="#C0D7FF" stroke="black" stroke-width="0.592368" stroke-miterlimit="10"/>
<path d="M48.7853 223.041C48.4075 223.041 48.0587 222.837 47.8747 222.517C47.739 222.275 47.7003 221.994 47.7778 221.723C47.8553 221.452 48.0297 221.229 48.2718 221.084C48.4268 220.997 48.6109 220.948 48.7949 220.948C49.1728 220.948 49.5215 221.152 49.7056 221.471C49.9962 221.975 49.8218 222.614 49.3181 222.905C49.1631 222.992 48.979 223.041 48.7949 223.041H48.7853Z" fill="#C0D7FF"/>
<path d="M48.7854 221.316C49.0276 221.316 49.2601 221.452 49.3763 221.665C49.5604 221.994 49.4538 222.411 49.1244 222.595C49.0179 222.653 48.9016 222.682 48.7854 222.682C48.5432 222.682 48.3107 222.546 48.1945 222.333C48.0104 222.004 48.117 221.587 48.4463 221.403C48.5529 221.345 48.6691 221.316 48.7854 221.316ZM48.7854 220.59C48.5432 220.59 48.3107 220.648 48.0879 220.774C47.4098 221.161 47.1773 222.023 47.5648 222.701C47.8263 223.157 48.301 223.409 48.7951 223.409C49.0373 223.409 49.2698 223.35 49.4926 223.224C50.1707 222.837 50.4032 221.975 50.0157 221.297C49.7541 220.841 49.2794 220.59 48.7854 220.59Z" fill="black"/>
<path d="M56.8355 237.107C56.4577 237.107 56.1089 236.903 55.9249 236.584C55.6342 236.08 55.8086 235.44 56.3124 235.15C56.4673 235.063 56.6514 235.014 56.8355 235.014C57.2133 235.014 57.562 235.218 57.7461 235.537C57.8817 235.78 57.9204 236.06 57.8526 236.332C57.7751 236.603 57.6008 236.826 57.3586 236.971C57.2036 237.058 57.0195 237.107 56.8355 237.107Z" fill="#C0D7FF"/>
<path d="M56.8352 235.372C57.0774 235.372 57.3099 235.508 57.4261 235.721C57.5133 235.876 57.5424 236.06 57.4939 236.244C57.4455 236.419 57.3292 236.564 57.1742 236.661C57.0677 236.719 56.9514 236.748 56.8352 236.748C56.593 236.748 56.3605 236.612 56.2443 236.399C56.1571 236.244 56.128 236.06 56.1765 235.876C56.2249 235.702 56.3411 235.556 56.4961 235.459C56.6027 235.401 56.7189 235.372 56.8352 235.372ZM56.8352 234.646C56.593 234.646 56.3605 234.704 56.1377 234.83C55.4596 235.217 55.2271 236.079 55.6146 236.758C55.8761 237.213 56.3508 237.465 56.8449 237.465C57.0871 237.465 57.3196 237.407 57.5424 237.281C58.2205 236.893 58.453 236.031 58.0655 235.353C57.8039 234.898 57.3292 234.646 56.8352 234.646Z" fill="black"/>
<path d="M95.5166 207.26C95.1388 207.26 94.7901 207.057 94.606 206.737C94.3154 206.233 94.4898 205.594 94.9935 205.303C95.1485 205.216 95.3326 205.168 95.5166 205.168C95.8944 205.168 96.2432 205.371 96.4272 205.691C96.5628 205.933 96.6016 206.214 96.5241 206.485C96.4466 206.756 96.2819 206.979 96.03 207.125C95.875 207.212 95.691 207.26 95.5069 207.26H95.5166Z" fill="#C0D7FF"/>
<path d="M95.5163 205.526C95.7585 205.526 95.991 205.662 96.1073 205.875C96.2913 206.204 96.1848 206.621 95.8554 206.805C95.7488 206.863 95.6326 206.892 95.5163 206.892C95.2742 206.892 95.0417 206.756 94.9254 206.543C94.8382 206.388 94.8092 206.204 94.8576 206.02C94.906 205.846 95.0223 205.701 95.1773 205.604C95.2838 205.546 95.4001 205.516 95.5163 205.516M95.5163 204.79C95.2742 204.79 95.0417 204.848 94.8189 204.974C94.1407 205.361 93.9082 206.224 94.2957 206.902C94.5573 207.357 95.032 207.609 95.526 207.609C95.7682 207.609 96.0007 207.551 96.2235 207.425C96.9016 207.037 97.1341 206.175 96.7466 205.497C96.4851 205.042 96.0104 204.79 95.5163 204.79Z" fill="black"/>
<path d="M103.635 221.433C103.257 221.433 102.908 221.229 102.724 220.909C102.434 220.406 102.608 219.766 103.112 219.476C103.267 219.389 103.451 219.34 103.635 219.34C104.013 219.34 104.361 219.544 104.545 219.863C104.836 220.367 104.662 221.006 104.158 221.297C104.003 221.384 103.819 221.433 103.635 221.433Z" fill="#C0D7FF"/>
<path d="M103.625 219.698C103.867 219.698 104.099 219.834 104.216 220.047C104.303 220.202 104.332 220.386 104.283 220.57C104.235 220.745 104.119 220.89 103.964 220.987C103.857 221.045 103.741 221.074 103.625 221.074C103.383 221.074 103.15 220.938 103.034 220.725C102.947 220.57 102.918 220.386 102.966 220.202C103.014 220.028 103.131 219.882 103.286 219.786C103.392 219.727 103.508 219.698 103.625 219.698ZM103.625 218.972C103.383 218.972 103.15 219.03 102.927 219.156C102.249 219.543 102.017 220.406 102.404 221.084C102.666 221.539 103.14 221.791 103.634 221.791C103.877 221.791 104.109 221.733 104.332 221.607C105.01 221.219 105.243 220.357 104.855 219.679C104.593 219.224 104.119 218.972 103.625 218.972Z" fill="black"/>
<path d="M54.5396 219.456L61.9406 232.379" stroke="black" stroke-width="0.592368" stroke-linejoin="round"/>
<path d="M56.9033 218.139L64.2947 231.072" stroke="black" stroke-width="0.592368" stroke-linejoin="round"/>
<path d="M68.4121 214.487L75.8132 227.41" stroke="black" stroke-width="0.592368" stroke-linejoin="round"/>
<path d="M85.771 211.929L93.1721 224.852" stroke="black" stroke-width="0.592368" stroke-linejoin="round"/>
<path d="M89.9761 209.856L97.3772 222.789" stroke="black" stroke-width="0.592368" stroke-linejoin="round"/>
<path d="M68.7023 220.047L69.8551 222.062C70.8626 223.825 72.7613 224.881 74.7956 224.814L82.3808 224.552C83.7854 224.504 84.6379 222.973 83.9404 221.752L82.778 219.728C81.7705 217.965 79.8621 216.909 77.8374 216.977L70.262 217.248C68.8573 217.296 68.0048 218.827 68.7023 220.047Z" fill="white" stroke="black" stroke-width="0.592368" stroke-linecap="round" stroke-linejoin="round"/>
<path d="M73.0425 216.976L77.4405 224.571" stroke="black" stroke-width="0.592368" stroke-linejoin="round"/>
<path d="M76.21 216.87L80.608 224.465" stroke="black" stroke-width="0.592368" stroke-linejoin="round"/>
</g>
<defs>
<clipPath id="clip0_699_1232">
<rect width="457.308" height="418.83" fill="white"/>
</clipPath>
</defs>
</svg>
