<svg width="803" height="692" viewBox="0 0 803 692" fill="none" xmlns="http://www.w3.org/2000/svg">
<g clip-path="url(#clip0_302_16806)">
<g opacity="0.15">
<path d="M642.719 312.989L949.491 135.867C957.636 131.165 956.613 122.961 947.209 117.531L787.459 25.3005C778.055 19.8706 763.83 19.2804 755.686 23.9824L448.914 201.105C440.769 205.807 441.792 214.011 451.196 219.44L610.946 311.671C620.35 317.101 634.574 317.691 642.719 312.989Z" fill="black"/>
</g>
<path d="M443.425 188.336L450.508 187.215L755.686 11.0171C763.831 6.31507 778.055 6.90528 787.459 12.3352L947.209 104.565C948.96 105.588 950.436 106.69 951.596 107.871L954.98 107.339V114.933C954.98 117.924 953.19 120.777 949.511 122.901L642.739 300.023C634.594 304.726 620.37 304.135 610.966 298.705L451.216 206.475C446.022 203.485 443.405 199.629 443.445 196.009V188.336H443.425Z" fill="black"/>
<path d="M628.928 294.613C622.573 294.613 616.16 293.02 611.32 290.226L451.57 197.996C446.868 195.281 444.153 191.74 444.153 188.257C444.153 185.444 445.982 182.847 449.287 180.939L756.059 3.81665C759.502 1.82961 764.263 0.747559 769.496 0.747559C775.851 0.747559 782.264 2.34113 787.104 5.13479L946.855 97.365C951.557 100.08 954.271 103.641 954.271 107.103C954.271 109.917 952.442 112.514 949.137 114.422L642.365 291.544C638.922 293.531 634.161 294.613 628.928 294.613Z" fill="#E2FDFF"/>
<path d="M769.497 1.47553C775.733 1.47553 782.009 3.04942 786.731 5.76439L946.481 97.9946C950.947 100.572 953.524 103.897 953.524 107.084C953.524 109.622 951.832 112.002 948.763 113.773L641.991 290.895C638.667 292.823 634.023 293.866 628.928 293.866C622.691 293.866 616.416 292.292 611.694 289.577L451.944 197.347C447.478 194.769 444.9 191.445 444.9 188.257C444.9 185.72 446.592 183.339 449.661 181.568L756.433 4.44625C759.758 2.51823 764.401 1.47553 769.497 1.47553ZM769.497 0C764.322 0 759.384 1.04271 755.705 3.16746L448.914 180.29C440.769 184.992 441.792 193.196 451.196 198.626L610.946 290.856C616.081 293.826 622.672 295.341 628.928 295.341C634.102 295.341 639.04 294.299 642.719 292.174L949.491 115.071C957.636 110.369 956.613 102.165 947.209 96.7355L787.459 4.4856C782.324 1.51487 775.733 0 769.477 0L769.497 0Z" fill="black"/>
<path d="M926.394 84.6954L590.132 278.835L561.034 262.054L897.297 67.894L926.394 84.6954Z" fill="black"/>
<path d="M710.298 131.617L804.024 77.4948L772.998 59.5918L679.273 113.714L710.298 131.617Z" fill="white"/>
<path d="M624.108 204.705C652.532 204.705 675.574 191.405 675.574 174.998C675.574 158.591 652.532 145.291 624.108 145.291C595.684 145.291 572.642 158.591 572.642 174.998C572.642 191.405 595.684 204.705 624.108 204.705Z" fill="#C0D7FF"/>
<path d="M566.858 148.596V138.07H569.887C572.622 133.368 577.147 128.961 583.62 125.223C605.989 112.317 642.247 112.317 664.616 125.223C671.089 128.961 675.633 133.388 678.348 138.07H681.378V148.517C681.417 157.016 675.83 165.515 664.616 171.988C642.247 184.894 605.989 184.894 583.62 171.988C572.445 165.535 566.838 157.075 566.838 148.596H566.858Z" fill="black"/>
<path d="M624.108 171.122C655.737 171.122 681.378 156.315 681.378 138.05C681.378 119.786 655.737 104.979 624.108 104.979C592.479 104.979 566.838 119.786 566.838 138.05C566.838 156.315 592.479 171.122 624.108 171.122Z" fill="#2276FF" stroke="black" stroke-miterlimit="10"/>
<g opacity="0.15">
<path d="M512.735 686.277L9.03013 395.481C-4.34798 387.769 -2.65604 374.272 12.7681 365.36L275.077 213.912C290.521 205 313.874 204.036 327.252 211.748L830.938 502.565C844.316 510.277 842.624 523.773 827.2 532.685L564.89 684.133C549.447 693.045 526.094 694.009 512.716 686.297L512.735 686.277Z" fill="black"/>
</g>
<path d="M839.968 481.612L828.321 479.763L327.232 190.461C313.854 182.749 290.502 183.713 275.058 192.625L12.7682 344.073C9.87619 345.745 7.476 347.575 5.54798 349.503L0 348.618V361.091H0.0196737C0.0196737 365.99 2.95105 370.692 9.01055 374.174L512.716 664.99C526.094 672.702 549.447 671.738 564.891 662.826L827.2 511.378C835.718 506.46 840.027 500.145 839.948 494.183H839.968V481.592V481.612Z" fill="black"/>
<path d="M535.38 656.589C526.724 656.589 518.795 654.779 513.09 651.474L9.40398 360.658C3.81665 357.431 0.747559 353.024 0.747559 348.224C0.747559 342.361 5.27251 336.381 13.142 331.836L275.432 180.388C283.439 175.765 294.062 173.109 304.568 173.109C313.225 173.109 321.153 174.919 326.859 178.224L830.583 469.04C836.171 472.267 839.24 476.674 839.24 481.474C839.24 487.337 834.715 493.318 826.846 497.862L564.536 649.31C556.529 653.934 545.905 656.589 535.4 656.589H535.38Z" fill="#C0D7FF"/>
<path d="M304.588 172.381V173.857C313.126 173.857 320.897 175.647 326.504 178.874L830.209 469.67C835.561 472.759 838.492 476.95 838.492 481.474C838.492 487.082 834.105 492.826 826.452 497.233L564.143 648.681C556.234 653.245 545.748 655.862 535.38 655.862C526.841 655.862 519.07 654.072 513.463 650.845L9.75784 360.029C4.4066 356.94 1.47522 352.75 1.47522 348.225C1.47522 342.618 5.86245 336.873 13.5155 332.466L275.805 181.018C283.714 176.454 294.2 173.837 304.568 173.837V172.362M304.568 172.362C294.318 172.362 283.497 174.86 275.057 179.739L12.7679 331.187C-2.67593 340.099 -4.34819 353.576 9.02992 361.308L512.735 652.124C518.795 655.626 526.9 657.338 535.399 657.338C545.649 657.338 556.47 654.839 564.91 649.96L827.219 498.512C842.663 489.6 844.335 476.123 830.957 468.392L327.232 177.595C321.173 174.093 313.067 172.381 304.568 172.381V172.362Z" fill="black"/>
<path d="M46.9607 311.454L599.083 630.227L646.851 602.644L94.7284 283.872L46.9607 311.454Z" fill="black"/>
<path d="M663.987 557.415L510.079 468.569L561.015 439.156L714.902 528.023L663.987 557.415Z" fill="white"/>
<path opacity="0.15" d="M426.265 430.911C474.007 430.636 512.581 408.067 512.423 380.502C512.264 352.937 473.432 330.814 425.69 331.089C377.948 331.364 339.374 353.933 339.533 381.498C339.692 409.063 378.523 431.186 426.265 430.911Z" fill="black"/>
<path d="M505.85 339.155H490.819C488.399 337.207 485.763 335.338 482.733 333.587C451.747 315.704 400.891 315.802 369.708 333.804C366.796 335.476 364.258 337.286 361.878 339.155H346.198V368.764H346.375C347.241 379.82 354.835 390.7 369.315 399.061C400.301 416.945 451.157 416.846 482.34 398.845C496.8 390.503 504.492 379.722 505.614 368.764H505.85V339.155Z" fill="white" stroke="black" stroke-linecap="round" stroke-linejoin="round"/>
<path d="M426.243 386.036C470.389 385.782 506.057 364.921 505.91 339.442C505.764 313.963 469.857 293.514 425.712 293.768C381.566 294.023 345.898 314.884 346.045 340.363C346.191 365.842 382.097 386.291 426.243 386.036Z" fill="white" stroke="black" stroke-linecap="round" stroke-linejoin="round"/>
<path d="M426.193 377.36C462.016 377.154 490.959 360.216 490.84 339.529C490.721 318.841 461.584 302.238 425.761 302.444C389.939 302.65 360.995 319.588 361.114 340.276C361.233 360.963 390.37 377.566 426.193 377.36Z" fill="#80DEA4" stroke="black" stroke-linecap="round" stroke-linejoin="round"/>
<path d="M505.849 312.674H490.819C488.399 310.726 485.763 308.857 482.733 307.106C451.747 289.223 400.89 289.321 369.708 307.322C366.796 308.995 364.258 310.805 361.877 312.674H346.198V342.282H346.375C347.24 353.339 354.834 364.219 369.314 372.58C400.3 390.463 451.157 390.365 482.339 372.364C496.8 364.022 504.492 353.241 505.613 342.282H505.849V312.674Z" fill="white" stroke="black" stroke-linecap="round" stroke-linejoin="round"/>
<path d="M426.248 359.556C470.394 359.301 506.062 338.44 505.915 312.961C505.768 287.482 469.862 267.033 425.717 267.288C381.571 267.542 345.903 288.403 346.049 313.882C346.196 339.361 382.102 359.81 426.248 359.556Z" fill="white" stroke="black" stroke-linecap="round" stroke-linejoin="round"/>
<path d="M426.198 350.879C462.021 350.673 490.964 333.735 490.845 313.048C490.726 292.36 461.589 275.757 425.766 275.963C389.943 276.17 361 293.107 361.119 313.795C361.238 334.482 390.375 351.086 426.198 350.879Z" fill="#80DEA4" stroke="black" stroke-linecap="round" stroke-linejoin="round"/>
<path d="M505.849 286.212H490.819C488.399 284.265 485.763 282.396 482.733 280.645C451.747 262.761 400.89 262.86 369.708 280.861C366.796 282.533 364.258 284.343 361.877 286.212H346.198V315.821H346.375C347.24 326.878 354.834 337.757 369.314 346.119C400.3 364.002 451.157 363.904 482.339 345.902C496.8 337.561 504.492 326.78 505.613 315.821H505.849V286.212Z" fill="white" stroke="black" stroke-linecap="round" stroke-linejoin="round"/>
<path d="M426.252 333.095C470.398 332.841 506.066 311.98 505.92 286.501C505.773 261.022 469.867 240.573 425.721 240.827C381.575 241.081 345.907 261.942 346.054 287.422C346.201 312.901 382.107 333.35 426.252 333.095Z" fill="white" stroke="black" stroke-linecap="round" stroke-linejoin="round"/>
<path d="M426.203 324.419C462.026 324.213 490.969 307.275 490.85 286.587C490.731 265.9 461.594 249.297 425.771 249.503C389.948 249.709 361.005 266.647 361.124 287.335C361.243 308.022 390.38 324.625 426.203 324.419Z" fill="#80DEA4" stroke="black" stroke-linecap="round" stroke-linejoin="round"/>
<path d="M505.85 259.752H490.819C488.399 257.804 485.763 255.935 482.733 254.184C451.747 236.301 400.891 236.399 369.708 254.4C366.796 256.073 364.258 257.883 361.878 259.752H346.198V289.361H346.375C347.24 300.417 354.835 311.297 369.314 319.658C400.3 337.541 451.157 337.443 482.34 319.442C496.8 311.1 504.492 300.319 505.614 289.361H505.85V259.752Z" fill="white" stroke="black" stroke-linecap="round" stroke-linejoin="round"/>
<path d="M426.257 306.635C470.403 306.38 506.071 285.519 505.925 260.04C505.778 234.561 469.872 214.112 425.726 214.367C381.58 214.621 345.912 235.482 346.059 260.961C346.206 286.44 382.112 306.889 426.257 306.635Z" fill="white" stroke="black" stroke-linecap="round" stroke-linejoin="round"/>
<path d="M426.208 297.959C462.03 297.752 490.974 280.814 490.855 260.127C490.736 239.439 461.599 222.836 425.776 223.042C389.953 223.249 361.01 240.187 361.129 260.874C361.248 281.562 390.385 298.165 426.208 297.959Z" fill="#80DEA4" stroke="black" stroke-linecap="round" stroke-linejoin="round"/>
<path d="M505.849 233.271H490.819C488.399 231.324 485.763 229.455 482.733 227.704C451.747 209.82 400.89 209.919 369.708 227.92C366.796 229.592 364.258 231.402 361.877 233.271H346.198V262.88H346.375C347.24 273.937 354.834 284.816 369.314 293.178C400.3 311.061 451.157 310.963 482.339 292.961C496.8 284.62 504.492 273.838 505.613 262.88H505.849V233.271Z" fill="white" stroke="black" stroke-linecap="round" stroke-linejoin="round"/>
<path d="M426.263 280.154C470.409 279.9 506.077 259.039 505.93 233.56C505.783 208.081 469.877 187.632 425.731 187.886C381.586 188.141 345.918 209.002 346.064 234.481C346.211 259.96 382.117 280.409 426.263 280.154Z" fill="white" stroke="black" stroke-linecap="round" stroke-linejoin="round"/>
<path d="M426.213 271.478C462.036 271.272 490.979 254.334 490.86 233.647C490.741 212.959 461.604 196.356 425.781 196.562C389.958 196.769 361.015 213.706 361.134 234.394C361.253 255.081 390.39 271.685 426.213 271.478Z" fill="#80DEA4" stroke="black" stroke-linecap="round" stroke-linejoin="round"/>
<path d="M505.849 206.81H490.819C488.399 204.862 485.763 202.993 482.733 201.242C451.747 183.359 400.89 183.457 369.708 201.459C366.796 203.131 364.258 204.941 361.877 206.81H346.198V236.419H346.375C347.24 247.475 354.834 258.355 369.314 266.716C400.3 284.6 451.157 284.501 482.339 266.5C496.8 258.158 504.492 247.377 505.613 236.419H505.849V206.81Z" fill="white" stroke="black" stroke-linecap="round" stroke-linejoin="round"/>
<path d="M426.267 253.693C470.413 253.439 506.081 232.578 505.934 207.099C505.788 181.62 469.882 161.171 425.736 161.425C381.59 161.68 345.922 182.541 346.069 208.02C346.215 233.499 382.122 253.948 426.267 253.693Z" fill="white" stroke="black" stroke-linecap="round" stroke-linejoin="round"/>
<path d="M426.217 245.017C462.04 244.811 490.984 227.873 490.865 207.186C490.746 186.498 461.609 169.895 425.786 170.101C389.963 170.307 361.019 187.245 361.139 207.933C361.258 228.62 390.394 245.223 426.217 245.017Z" fill="#80DEA4" stroke="black" stroke-linecap="round" stroke-linejoin="round"/>
<path d="M505.849 180.349H490.819C488.399 178.401 485.763 176.532 482.733 174.781C451.747 156.898 400.89 156.996 369.708 174.998C366.796 176.67 364.258 178.48 361.877 180.349H346.198V209.958H346.375C347.24 221.014 354.834 231.894 369.314 240.255C400.3 258.139 451.157 258.04 482.339 240.039C496.8 231.697 504.492 220.916 505.613 209.958H505.849V180.349Z" fill="white" stroke="black" stroke-linecap="round" stroke-linejoin="round"/>
<path d="M426.272 227.233C470.418 226.979 506.086 206.118 505.939 180.639C505.793 155.159 469.886 134.711 425.741 134.965C381.595 135.219 345.927 156.08 346.074 181.559C346.22 207.038 382.126 227.487 426.272 227.233Z" fill="white" stroke="black" stroke-linecap="round" stroke-linejoin="round"/>
<path d="M426.222 218.557C462.045 218.351 490.989 201.413 490.87 180.725C490.75 160.038 461.614 143.434 425.791 143.641C389.968 143.847 361.024 160.785 361.143 181.472C361.263 202.16 390.399 218.763 426.222 218.557Z" fill="#C0D7FF" stroke="black" stroke-linecap="round" stroke-linejoin="round"/>
<path d="M416.216 192.822L411.73 190.225L414.445 188.651C411.14 188.179 408.524 187.392 406.635 186.31C403.507 184.5 402.307 182.237 403.035 179.522C403.763 176.807 406.517 174.053 411.317 171.279C415.921 168.623 420.564 167.108 425.246 166.695C430.322 166.262 435.044 167.266 439.431 169.646L431.207 174.388C428.788 173.05 426.387 172.42 423.987 172.519C421.587 172.617 419.285 173.286 417.121 174.545C415.016 175.765 413.875 176.965 413.659 178.165C413.442 179.365 414.111 180.427 415.705 181.332C416.983 182.08 419.6 182.769 423.554 183.418L432.447 178.283L436.932 180.88L429.87 184.972C430.578 185.287 431.07 185.523 431.385 185.7C434.06 187.254 434.827 189.536 433.686 192.527H433.903C435.378 190.953 436.618 189.871 437.621 189.3C439.156 188.415 441.025 187.628 443.248 186.939C445.471 186.251 447.104 185.621 448.107 185.031C450.075 183.89 451.314 182.316 451.806 180.329L461.072 181.352C460.344 184.244 458.2 186.703 454.658 188.749C452.612 189.93 449.956 190.992 446.73 191.917C443.504 192.842 441.143 193.747 439.647 194.592C437.995 195.556 436.637 197.13 435.595 199.373L425.994 198.724C427.666 195.222 427.076 192.645 424.263 191.032C423.495 190.599 422.531 190.205 421.371 189.851L416.236 192.822H416.216Z" fill="white"/>
<path opacity="0.15" d="M339.567 520.02C387.309 519.745 425.883 497.176 425.724 469.61C425.565 442.045 386.734 419.922 338.992 420.197C291.25 420.472 252.676 443.041 252.834 470.606C252.993 498.171 291.824 520.295 339.567 520.02Z" fill="black"/>
<path opacity="0.15" d="M491.388 459.023C536.23 458.765 572.46 437.575 572.311 411.693C572.162 385.812 535.69 365.041 490.849 365.299C446.008 365.557 409.778 386.748 409.927 412.629C410.076 438.51 446.547 459.281 491.388 459.023Z" fill="black"/>
<path d="M570.261 378.305H555.23C552.811 376.357 550.174 374.488 547.144 372.738C516.158 354.854 465.302 354.953 434.119 372.954C431.207 374.626 428.67 376.436 426.289 378.305H410.609V407.914H410.786C411.652 418.971 419.246 429.85 433.726 438.212C464.712 456.095 515.568 455.997 546.751 437.995C561.211 429.653 568.904 418.872 570.025 407.914H570.261V378.305Z" fill="white" stroke="black" stroke-linecap="round" stroke-linejoin="round"/>
<path d="M490.682 425.189C534.828 424.935 570.496 404.073 570.349 378.594C570.202 353.115 534.296 332.666 490.151 332.921C446.005 333.175 410.337 354.036 410.483 379.515C410.63 404.994 446.536 425.443 490.682 425.189Z" fill="white" stroke="black" stroke-linecap="round" stroke-linejoin="round"/>
<path d="M490.632 416.513C526.455 416.306 555.398 399.369 555.279 378.681C555.16 357.994 526.023 341.39 490.2 341.597C454.378 341.803 425.434 358.741 425.553 379.428C425.672 400.116 454.809 416.719 490.632 416.513Z" fill="#80DEA4" stroke="black" stroke-linecap="round" stroke-linejoin="round"/>
<path d="M570.261 351.824H555.231C552.811 349.877 550.174 348.008 547.145 346.257C516.159 328.373 465.302 328.472 434.119 346.473C431.208 348.145 428.67 349.955 426.289 351.824H410.609V381.433H410.786C411.652 392.49 419.246 403.37 433.726 411.731C464.712 429.614 515.568 429.516 546.751 411.514C561.211 403.173 568.904 392.392 570.025 381.433H570.261V351.824Z" fill="white" stroke="black" stroke-linecap="round" stroke-linejoin="round"/>
<path d="M490.687 398.709C534.833 398.454 570.501 377.593 570.354 352.114C570.208 326.635 534.301 306.186 490.156 306.44C446.01 306.695 410.342 327.556 410.489 353.035C410.635 378.514 446.541 398.963 490.687 398.709Z" fill="white" stroke="black" stroke-linecap="round" stroke-linejoin="round"/>
<path d="M490.637 390.032C526.46 389.826 555.404 372.888 555.284 352.201C555.165 331.513 526.028 314.91 490.206 315.116C454.383 315.322 425.439 332.26 425.558 352.948C425.677 373.635 454.814 390.239 490.637 390.032Z" fill="#80DEA4" stroke="black" stroke-linecap="round" stroke-linejoin="round"/>
<path d="M570.261 325.364H555.23C552.811 323.416 550.174 321.547 547.144 319.796C516.158 301.912 465.302 302.011 434.119 320.012C431.207 321.685 428.67 323.495 426.289 325.364H410.609V354.972H410.786C411.652 366.029 419.246 376.909 433.726 385.27C464.712 403.153 515.568 403.055 546.751 385.053C561.211 376.712 568.904 365.931 570.025 354.972H570.261V325.364Z" fill="white" stroke="black" stroke-linecap="round" stroke-linejoin="round"/>
<path d="M490.692 372.248C534.838 371.994 570.506 351.133 570.359 325.654C570.212 300.175 534.306 279.726 490.161 279.98C446.015 280.234 410.347 301.095 410.493 326.574C410.64 352.054 446.546 372.502 490.692 372.248Z" fill="white" stroke="black" stroke-linecap="round" stroke-linejoin="round"/>
<path d="M490.642 363.572C526.465 363.366 555.408 346.428 555.289 325.74C555.17 305.053 526.033 288.449 490.21 288.656C454.388 288.862 425.444 305.8 425.563 326.487C425.682 347.175 454.819 363.778 490.642 363.572Z" fill="#798BFF" stroke="black" stroke-linecap="round" stroke-linejoin="round"/>
<path d="M419.147 428.277H404.117C401.697 426.329 399.06 424.46 396.031 422.709C365.045 404.826 314.188 404.924 283.005 422.925C280.094 424.598 277.556 426.408 275.175 428.277H259.495V457.886H259.672C260.538 468.942 268.132 479.822 282.612 488.183C313.598 506.066 364.454 505.968 395.637 487.967C410.097 479.625 417.79 468.844 418.911 457.886H419.147V428.277Z" fill="white" stroke="black" stroke-linecap="round" stroke-linejoin="round"/>
<path d="M339.544 475.144C383.689 474.89 419.358 454.029 419.211 428.55C419.064 403.071 383.158 382.622 339.012 382.876C294.867 383.131 259.198 403.992 259.345 429.471C259.492 454.95 295.398 475.399 339.544 475.144Z" fill="white" stroke="black" stroke-linecap="round" stroke-linejoin="round"/>
<path d="M339.494 466.468C375.317 466.262 404.26 449.324 404.141 428.636C404.022 407.949 374.885 391.346 339.062 391.552C303.239 391.758 274.296 408.696 274.415 429.384C274.534 450.071 303.671 466.674 339.494 466.468Z" fill="#80DEA4" stroke="black" stroke-linecap="round" stroke-linejoin="round"/>
<path d="M419.148 401.815H404.117C401.697 399.868 399.061 397.999 396.031 396.248C365.045 378.364 314.189 378.463 283.006 396.464C280.094 398.136 277.556 399.946 275.176 401.815H259.496V431.424H259.673C260.539 442.481 268.133 453.36 282.612 461.722C313.598 479.605 364.455 479.507 395.638 461.505C410.098 453.164 417.79 442.383 418.912 431.424H419.148V401.815Z" fill="white" stroke="black" stroke-linecap="round" stroke-linejoin="round"/>
<path d="M339.549 448.664C383.695 448.41 419.363 427.549 419.216 402.07C419.07 376.591 383.164 356.142 339.018 356.396C294.872 356.65 259.204 377.511 259.351 402.99C259.497 428.47 295.404 448.918 339.549 448.664Z" fill="white" stroke="black" stroke-linecap="round" stroke-linejoin="round"/>
<path d="M339.499 439.988C375.322 439.782 404.266 422.844 404.146 402.156C404.027 381.469 374.891 364.866 339.068 365.072C303.245 365.278 274.301 382.216 274.42 402.904C274.539 423.591 303.676 440.194 339.499 439.988Z" fill="#80DEA4" stroke="black" stroke-linecap="round" stroke-linejoin="round"/>
<path d="M419.147 375.335H404.117C401.697 373.387 399.06 371.518 396.031 369.767C365.045 351.884 314.188 351.982 283.005 369.984C280.094 371.656 277.556 373.466 275.175 375.335H259.495V404.944H259.672C260.538 416 268.132 426.88 282.612 435.241C313.598 453.125 364.454 453.026 395.637 435.025C410.097 426.683 417.79 415.902 418.911 404.944H419.147V375.335Z" fill="white" stroke="black" stroke-linecap="round" stroke-linejoin="round"/>
<path d="M339.554 422.204C383.7 421.949 419.368 401.088 419.221 375.609C419.074 350.13 383.168 329.681 339.022 329.936C294.877 330.19 259.209 351.051 259.355 376.53C259.502 402.009 295.408 422.458 339.554 422.204Z" fill="white" stroke="black" stroke-linecap="round" stroke-linejoin="round"/>
<path d="M339.504 413.527C375.327 413.321 404.271 396.383 404.151 375.696C404.032 355.008 374.895 338.405 339.073 338.611C303.25 338.818 274.306 355.755 274.425 376.443C274.544 397.13 303.681 413.734 339.504 413.527Z" fill="#80DEA4" stroke="black" stroke-linecap="round" stroke-linejoin="round"/>
<path d="M419.147 348.874H404.117C401.697 346.926 399.06 345.057 396.031 343.306C365.045 325.423 314.188 325.521 283.005 343.522C280.094 345.195 277.556 347.005 275.175 348.874H259.495V378.482H259.672C260.538 389.539 268.132 400.419 282.612 408.78C313.598 426.663 364.454 426.565 395.637 408.563C410.097 400.222 417.79 389.441 418.911 378.482H419.147V348.874Z" fill="white" stroke="black" stroke-linecap="round" stroke-linejoin="round"/>
<path d="M339.539 395.742C383.684 395.488 419.353 374.627 419.206 349.148C419.059 323.669 383.153 303.22 339.007 303.474C294.862 303.729 259.193 324.59 259.34 350.069C259.487 375.548 295.393 395.997 339.539 395.742Z" fill="white" stroke="black" stroke-linecap="round" stroke-linejoin="round"/>
<path d="M339.489 387.066C375.312 386.86 404.256 369.922 404.136 349.235C404.017 328.547 374.881 311.944 339.058 312.15C303.235 312.357 274.291 329.294 274.41 349.982C274.529 370.67 303.666 387.273 339.489 387.066Z" fill="#80DEA4" stroke="black" stroke-linecap="round" stroke-linejoin="round"/>
<path d="M419.148 322.393H404.117C401.697 320.445 399.061 318.576 396.031 316.825C365.045 298.942 314.189 299.04 283.006 317.041C280.094 318.714 277.556 320.524 275.176 322.393H259.496V352.001H259.673C260.539 363.058 268.133 373.938 282.612 382.299C313.598 400.182 364.455 400.084 395.638 382.083C410.098 373.741 417.79 362.96 418.912 352.001H419.148V322.393Z" fill="white" stroke="black" stroke-linecap="round" stroke-linejoin="round"/>
<path d="M339.544 369.262C383.69 369.008 419.358 348.147 419.212 322.668C419.065 297.189 383.159 276.74 339.013 276.994C294.867 277.249 259.199 298.11 259.346 323.589C259.493 349.068 295.399 369.517 339.544 369.262Z" fill="white" stroke="black" stroke-linecap="round" stroke-linejoin="round"/>
<path d="M339.494 360.586C375.317 360.38 404.261 343.442 404.142 322.755C404.022 302.067 374.886 285.464 339.063 285.67C303.24 285.876 274.296 302.814 274.415 323.502C274.535 344.189 303.671 360.793 339.494 360.586Z" fill="#80DEA4" stroke="black" stroke-linecap="round" stroke-linejoin="round"/>
<path d="M419.147 295.932H404.117C401.697 293.984 399.06 292.115 396.031 290.364C365.045 272.481 314.188 272.579 283.005 290.581C280.094 292.253 277.556 294.063 275.175 295.932H259.495V325.541H259.672C260.538 336.597 268.132 347.477 282.612 355.838C313.598 373.722 364.454 373.623 395.637 355.622C410.097 347.28 417.79 336.499 418.911 325.541H419.147V295.932Z" fill="white" stroke="black" stroke-linecap="round" stroke-linejoin="round"/>
<path d="M339.549 342.802C383.695 342.548 419.363 321.687 419.216 296.207C419.07 270.728 383.164 250.279 339.018 250.534C294.872 250.788 259.204 271.649 259.351 297.128C259.497 322.607 295.404 343.056 339.549 342.802Z" fill="white" stroke="black" stroke-linecap="round" stroke-linejoin="round"/>
<path d="M339.499 334.126C375.322 333.919 404.266 316.982 404.146 296.294C404.027 275.607 374.891 259.003 339.068 259.21C303.245 259.416 274.301 276.354 274.42 297.041C274.539 317.729 303.676 334.332 339.499 334.126Z" fill="#80DEA4" stroke="black" stroke-linecap="round" stroke-linejoin="round"/>
<path d="M419.147 269.47H404.117C401.697 267.523 399.06 265.654 396.031 263.903C365.045 246.019 314.188 246.118 283.005 264.119C280.094 265.791 277.556 267.601 275.175 269.47H259.495V299.079H259.672C260.538 310.136 268.132 321.015 282.612 329.377C313.598 347.26 364.454 347.162 395.637 329.16C410.097 320.819 417.79 310.037 418.911 299.079H419.147V269.47Z" fill="white" stroke="black" stroke-linecap="round" stroke-linejoin="round"/>
<path d="M339.554 316.341C383.7 316.086 419.368 295.225 419.221 269.746C419.074 244.267 383.168 223.818 339.022 224.073C294.877 224.327 259.209 245.188 259.355 270.667C259.502 296.146 295.408 316.595 339.554 316.341Z" fill="white" stroke="black" stroke-linecap="round" stroke-linejoin="round"/>
<path d="M339.504 307.665C375.327 307.458 404.271 290.52 404.151 269.833C404.032 249.145 374.895 232.542 339.073 232.748C303.25 232.955 274.306 249.893 274.425 270.58C274.544 291.268 303.681 307.871 339.504 307.665Z" fill="#C0D7FF" stroke="black" stroke-linecap="round" stroke-linejoin="round"/>
<path d="M364.593 284.757L360.166 282.199C355.011 284.895 350.073 286.449 345.371 286.842C340.669 287.236 336.518 286.468 332.918 284.54L341.141 279.799C343.247 280.684 345.371 281.058 347.496 280.92C349.621 280.783 351.942 280.114 354.461 278.894L344.663 273.228C344.506 273.326 344.388 273.366 344.309 273.366C342.184 274.192 340.433 274.841 339.036 275.333C337.64 275.825 335.948 276.317 334 276.789C332.052 277.261 330.341 277.537 328.885 277.596C327.429 277.655 325.875 277.537 324.202 277.202C322.53 276.868 321.015 276.297 319.599 275.491C316.372 273.622 315.153 271.398 315.979 268.821C316.785 266.244 319.323 263.647 323.534 261.011L320.484 259.26L324.104 257.174L327.193 258.965C331.619 256.761 335.967 255.522 340.237 255.227C344.506 254.932 348.401 255.62 351.923 257.332L343.876 261.975C340.65 260.578 337.03 260.696 333.036 262.349L341.968 267.503C342.086 267.483 342.224 267.424 342.381 267.326C344.978 266.264 347.26 265.418 349.247 264.788C351.234 264.159 353.339 263.667 355.582 263.273C357.825 262.899 359.95 262.86 361.937 263.175C363.943 263.49 365.812 264.159 367.563 265.162C370.927 267.11 372.226 269.431 371.459 272.126C370.691 274.822 368.153 277.497 363.904 280.153L368.291 282.691L364.671 284.777L364.593 284.757ZM326.052 267.66C325.678 268.703 326.052 269.549 327.173 270.198C328.314 270.848 329.672 271.084 331.246 270.907C332.839 270.73 334.944 270.159 337.6 269.175L329.2 264.316C327.468 265.516 326.426 266.618 326.052 267.66ZM359.91 270.533C358.671 269.825 357.215 269.569 355.543 269.785C353.851 270.002 351.687 270.592 349.031 271.575L358.061 276.789C359.792 275.589 360.855 274.448 361.287 273.346C361.72 272.244 361.248 271.3 359.91 270.533Z" fill="white"/>
<path d="M472.03 334.551L468.981 332.8L472.188 330.95C468.765 327.999 467.328 324.911 467.84 321.665C468.351 318.418 470.889 315.487 475.454 312.87C479.959 310.273 484.661 308.818 489.52 308.522C494.38 308.247 498.826 309.014 502.839 310.864L494.616 315.605C489.835 313.677 485.409 313.893 481.336 316.235C479.034 317.553 477.874 319.068 477.834 320.74C477.795 322.412 478.798 324.143 480.844 325.934L491.547 319.756L494.596 321.507L483.54 327.901C483.815 328.098 484.267 328.393 484.917 328.767C485.743 329.239 486.373 329.573 486.786 329.77L497.842 323.376L500.892 325.127L490.248 331.265C496.504 333.528 502.013 333.292 506.774 330.537C508.997 329.259 510.079 327.881 510.04 326.426C510.001 324.95 509.017 323.514 507.109 322.078L515.076 317.474C518.755 319.874 520.428 322.569 520.093 325.54C519.759 328.511 517.26 331.344 512.578 334.039C508.073 336.636 503.056 338.131 497.547 338.525C492.039 338.899 486.727 338.151 481.612 336.262L478.346 338.151L475.296 336.4L478.129 334.767C477.716 334.57 477.087 334.236 476.26 333.764C475.611 333.39 475.139 333.095 474.883 332.898L472.05 334.531L472.03 334.551Z" fill="white"/>
<path opacity="0.15" d="M759.345 389.225L674.453 341.3C671.069 339.391 665.187 339.686 661.311 341.988L612.796 370.673C608.94 372.955 608.546 376.358 611.93 378.267L696.822 426.192C700.206 428.1 706.089 427.805 709.964 425.503L758.48 396.819C762.336 394.537 762.729 391.133 759.345 389.225Z" fill="black"/>
<path d="M694.737 408.308L607.464 359.124C605.733 358.16 604.907 356.842 604.867 355.445L604.828 355.484L604.729 345.765C604.729 345.765 607.799 348.283 609.609 349.759L663.987 317.593C668.413 314.976 675.142 314.622 679.017 316.806L762.434 363.806L768.808 360.029L768.926 369.846L768.887 369.806C768.867 371.479 767.687 373.269 765.306 374.666L709.787 407.501C705.36 410.118 698.632 410.472 694.756 408.288L694.737 408.308Z" fill="black" stroke="black" stroke-linecap="round" stroke-linejoin="round"/>
<path d="M766.172 356.114L678.899 306.93C675.024 304.746 668.295 305.1 663.869 307.717L608.35 340.552C603.923 343.169 603.49 347.064 607.366 349.248L694.638 398.432C698.514 400.616 705.242 400.262 709.669 397.645L765.188 364.81C769.615 362.193 770.048 358.298 766.172 356.114Z" fill="#2276FF" stroke="black" stroke-miterlimit="10"/>
<path d="M674.611 343.365C677.818 341.457 677.798 338.446 674.532 336.597C671.286 334.767 666.033 334.826 662.826 336.715C659.619 338.624 659.639 341.634 662.905 343.483C666.151 345.313 671.404 345.254 674.611 343.365Z" fill="white"/>
<path d="M692.455 353.418C695.662 351.51 695.642 348.5 692.376 346.651C689.13 344.821 683.877 344.88 680.671 346.769C677.464 348.677 677.483 351.687 680.749 353.536C683.995 355.366 689.248 355.307 692.455 353.418Z" fill="white"/>
<path d="M710.299 363.472C713.505 361.563 713.486 358.553 710.22 356.704C706.974 354.874 701.721 354.933 698.514 356.822C695.307 358.73 695.327 361.74 698.593 363.59C701.839 365.419 707.092 365.36 710.299 363.472Z" fill="white"/>
<g opacity="0.15">
<path d="M617.655 443.779L606.401 444.173C597.902 444.468 589.62 446.848 582.242 451.059L562.509 462.351C560.345 463.591 559.598 466.345 560.837 468.509L580.609 503.056C581.849 505.22 584.603 505.968 586.767 504.728L606.5 493.436C613.877 489.206 622.16 486.845 630.659 486.55L641.912 486.156C651.631 485.802 661.094 483.107 669.534 478.287L686.65 468.489C688.814 467.25 689.562 464.496 688.323 462.332L668.551 427.785C667.311 425.621 664.557 424.873 662.393 426.112L645.277 435.91C636.837 440.73 627.374 443.445 617.655 443.779Z" fill="black"/>
</g>
<path d="M617.655 433.943L606.401 434.336C597.902 434.631 589.62 437.012 582.242 441.222L562.509 452.515C560.345 453.754 559.598 456.508 560.837 458.672L580.609 493.219C581.849 495.384 584.603 496.131 586.767 494.892L606.5 483.599C613.877 479.369 622.16 477.008 630.659 476.713L641.912 476.32C651.631 475.966 661.094 473.27 669.534 468.45L686.65 458.653C688.814 457.413 689.562 454.659 688.323 452.495L668.551 417.948C667.311 415.784 664.557 415.036 662.393 416.276L645.277 426.073C636.837 430.893 627.374 433.608 617.655 433.943Z" fill="white" stroke="black" stroke-linecap="round" stroke-linejoin="round"/>
<path d="M657.77 430.618C657.652 430.401 657.573 430.185 657.475 429.969L650.333 434.061C641.677 439.018 631.918 441.733 621.924 441.969L611.163 442.206C602.447 442.402 593.909 444.783 586.334 449.111L575.534 455.289C577.068 457.984 576.144 461.407 573.448 462.961L582.931 479.546C585.607 478.012 588.99 478.936 590.545 481.573L601.306 475.415C608.9 471.067 617.478 468.686 626.233 468.509L636.935 468.293C646.949 468.076 656.747 465.361 665.442 460.384L672.486 456.351C670.951 453.656 671.876 450.232 674.571 448.678L665.423 432.703C662.727 434.238 659.304 433.313 657.75 430.618H657.77Z" fill="#C0D7FF" stroke="black" stroke-miterlimit="10"/>
<path d="M568.608 459.872C567.841 459.872 567.133 459.459 566.759 458.81C566.484 458.318 566.405 457.747 566.543 457.196C566.7 456.646 567.054 456.193 567.546 455.898C567.861 455.721 568.235 455.623 568.608 455.623C569.376 455.623 570.084 456.036 570.458 456.685C571.048 457.708 570.694 459.006 569.671 459.597C569.356 459.774 568.982 459.872 568.608 459.872Z" fill="#C0D7FF"/>
<path d="M568.609 456.351C569.1 456.351 569.573 456.626 569.809 457.059C570.183 457.728 569.966 458.574 569.297 458.948C569.081 459.066 568.845 459.125 568.609 459.125C568.117 459.125 567.645 458.849 567.409 458.416C567.035 457.748 567.251 456.902 567.92 456.528C568.136 456.41 568.373 456.351 568.609 456.351ZM568.609 454.875C568.117 454.875 567.645 454.993 567.192 455.249C565.815 456.036 565.343 457.787 566.13 459.164C566.661 460.089 567.625 460.6 568.628 460.6C569.12 460.6 569.592 460.482 570.045 460.226C571.422 459.44 571.894 457.689 571.107 456.311C570.576 455.387 569.612 454.875 568.609 454.875Z" fill="black"/>
<path d="M584.957 488.419C584.19 488.419 583.482 488.006 583.108 487.357C582.518 486.334 582.872 485.035 583.895 484.445C584.21 484.268 584.583 484.17 584.957 484.17C585.725 484.17 586.433 484.583 586.807 485.232C587.082 485.724 587.161 486.294 587.023 486.845C586.866 487.396 586.511 487.849 586.02 488.144C585.705 488.321 585.331 488.419 584.957 488.419Z" fill="#C0D7FF"/>
<path d="M584.938 484.897C585.43 484.897 585.902 485.173 586.138 485.606C586.315 485.92 586.374 486.294 586.276 486.668C586.177 487.022 585.941 487.317 585.626 487.514C585.41 487.632 585.174 487.691 584.938 487.691C584.446 487.691 583.974 487.415 583.738 486.983C583.364 486.314 583.58 485.468 584.249 485.094C584.466 484.976 584.702 484.917 584.938 484.917M584.938 483.441C584.446 483.441 583.974 483.559 583.521 483.815C582.144 484.602 581.672 486.353 582.459 487.73C582.99 488.655 583.954 489.166 584.957 489.166C585.449 489.166 585.921 489.048 586.374 488.793C587.751 488.006 588.223 486.255 587.436 484.878C586.905 483.953 585.941 483.441 584.938 483.441Z" fill="black"/>
<path d="M663.514 427.805C662.747 427.805 662.039 427.392 661.665 426.742C661.389 426.251 661.311 425.68 661.468 425.129C661.626 424.578 661.96 424.126 662.472 423.85C662.786 423.673 663.16 423.575 663.534 423.575C664.301 423.575 665.009 423.988 665.383 424.637C665.659 425.129 665.737 425.7 665.58 426.251C665.423 426.801 665.088 427.254 664.577 427.529C664.262 427.706 663.888 427.805 663.514 427.805Z" fill="#C0D7FF"/>
<path d="M663.514 424.303C664.006 424.303 664.478 424.578 664.714 425.011C665.088 425.68 664.872 426.526 664.203 426.9C663.986 427.018 663.75 427.077 663.514 427.077C663.022 427.077 662.55 426.801 662.314 426.368C661.94 425.7 662.157 424.854 662.826 424.48C663.042 424.362 663.278 424.303 663.514 424.303ZM663.514 422.827C663.022 422.827 662.55 422.945 662.098 423.201C660.72 423.988 660.248 425.739 661.035 427.116C661.566 428.041 662.53 428.552 663.534 428.552C664.026 428.552 664.498 428.434 664.95 428.178C666.327 427.391 666.8 425.64 666.013 424.263C665.482 423.339 664.518 422.827 663.514 422.827Z" fill="black"/>
<path d="M679.981 456.606C679.213 456.606 678.505 456.193 678.131 455.544C677.856 455.052 677.777 454.481 677.934 453.931C678.092 453.38 678.446 452.927 678.938 452.632C679.253 452.455 679.626 452.357 680 452.357C680.768 452.357 681.476 452.77 681.85 453.419C682.125 453.911 682.204 454.481 682.046 455.032C681.889 455.583 681.535 456.036 681.043 456.331C680.728 456.508 680.354 456.606 679.981 456.606Z" fill="#C0D7FF"/>
<path d="M679.981 453.085C680.473 453.085 680.945 453.361 681.181 453.793C681.358 454.108 681.417 454.482 681.319 454.856C681.22 455.21 680.984 455.505 680.67 455.702C680.453 455.82 680.217 455.879 679.981 455.879C679.489 455.879 679.017 455.603 678.781 455.171C678.604 454.856 678.545 454.482 678.643 454.108C678.742 453.754 678.978 453.459 679.292 453.262C679.509 453.144 679.745 453.085 679.981 453.085ZM679.981 451.61C679.489 451.61 679.017 451.728 678.564 451.983C677.187 452.77 676.715 454.521 677.502 455.898C678.033 456.823 678.997 457.335 680.001 457.335C680.492 457.335 680.965 457.217 681.417 456.961C682.794 456.174 683.266 454.423 682.479 453.046C681.948 452.121 680.984 451.61 679.981 451.61Z" fill="black"/>
<path d="M580.275 452.574L595.305 478.838" stroke="black" stroke-linejoin="round"/>
<path d="M585.075 449.918L600.106 476.163" stroke="black" stroke-linejoin="round"/>
<path d="M608.467 442.481L623.498 468.745" stroke="black" stroke-linejoin="round"/>
<path d="M643.722 437.287L658.753 463.551" stroke="black" stroke-linejoin="round"/>
<path d="M652.261 433.077L667.291 459.341" stroke="black" stroke-linejoin="round"/>
<path d="M609.057 453.794L611.398 457.886C613.445 461.466 617.301 463.611 621.432 463.473L636.837 462.942C639.689 462.843 641.421 459.735 640.004 457.256L637.643 453.144C635.597 449.564 631.721 447.419 627.61 447.557L612.225 448.108C609.372 448.206 607.641 451.315 609.057 453.794Z" fill="white" stroke="black" stroke-linecap="round" stroke-linejoin="round"/>
<path d="M617.871 447.538L626.803 462.981" stroke="black" stroke-linejoin="round"/>
<path d="M624.304 447.321L633.236 462.765" stroke="black" stroke-linejoin="round"/>
<path d="M771.602 468.017L750.138 468.057C748.426 468.057 746.793 468.312 745.357 468.726C744.334 468.981 743.39 469.355 742.603 469.808C742.603 469.808 742.563 469.808 742.563 469.827C741.776 470.28 741.147 470.811 740.694 471.421C739.966 472.247 739.534 473.192 739.534 474.175L739.455 486.57C739.435 489.934 744.157 492.668 749.98 492.649L765.424 492.609C769.851 492.609 774.022 491.586 777.169 489.776C780.317 487.966 782.048 485.547 782.068 482.989L782.127 474.077C782.147 470.713 777.425 467.978 771.602 467.998V468.017ZM744.649 480.51L744.688 472.818C744.688 472.562 744.786 472.306 744.964 472.09C745.18 471.913 745.396 471.755 745.652 471.618C745.908 471.48 746.183 471.342 746.478 471.224C746.872 471.126 747.305 471.067 747.757 471.067H761.076C761.903 471.027 762.67 471.224 763.24 471.559C763.811 471.893 764.145 472.346 764.126 472.818L764.086 480.51C764.086 480.982 763.752 481.435 763.181 481.769C762.611 482.104 761.824 482.3 760.998 482.3H747.679C746.852 482.34 746.085 482.143 745.514 481.809C744.944 481.474 744.609 481.022 744.629 480.549L744.649 480.51ZM744.373 484.307C745.377 484.602 746.498 484.76 747.698 484.76H761.017C763.044 484.72 764.893 484.248 766.231 483.481C767.569 482.714 768.395 481.651 768.415 480.471L768.454 472.778C768.454 472.09 768.159 471.441 767.667 470.85C769.556 471.185 770.933 472.208 770.933 473.408L770.874 481.73C770.874 482.91 770.067 484.012 768.611 484.858C767.155 485.704 765.247 486.156 763.201 486.156L748.8 486.196C746.714 486.196 744.944 485.409 744.354 484.307H744.373ZM777.838 474.096L777.779 483.009C777.779 484.897 776.481 486.688 774.14 488.025C771.798 489.363 768.71 490.111 765.444 490.131L750 490.17C747.383 490.17 745.141 489.245 744.216 487.947C745.554 488.399 747.128 488.675 748.8 488.675L763.201 488.635C766.487 488.635 769.477 487.848 771.641 486.609C773.805 485.37 775.163 483.638 775.163 481.73L775.222 473.408C775.222 472.444 774.769 471.539 773.963 470.752C776.245 471.283 777.838 472.582 777.819 474.096H777.838Z" fill="white"/>
<path d="M638.392 121.053L607.878 121.112C605.438 121.112 603.136 121.466 601.09 122.056C599.634 122.43 598.297 122.941 597.175 123.59C597.156 123.59 597.136 123.61 597.116 123.63C595.995 124.279 595.09 125.046 594.46 125.892C593.418 127.073 592.827 128.411 592.808 129.807L592.69 147.415C592.65 152.196 599.379 156.072 607.642 156.052L629.597 156.013C635.893 156.013 641.815 154.577 646.281 151.999C650.747 149.422 653.226 145.999 653.245 142.359L653.324 129.689C653.363 124.909 646.635 121.033 638.372 121.053H638.392ZM600.087 138.818L600.146 127.899C600.146 127.525 600.303 127.171 600.539 126.856C600.835 126.62 601.169 126.384 601.523 126.168C601.877 125.951 602.29 125.774 602.704 125.597C603.254 125.459 603.864 125.361 604.513 125.361L623.44 125.322C624.6 125.322 625.702 125.578 626.528 126.05C627.355 126.522 627.807 127.151 627.787 127.84L627.728 138.759C627.728 139.428 627.256 140.057 626.43 140.549C625.604 141.041 624.502 141.297 623.341 141.297L604.415 141.336C603.254 141.336 602.153 141.08 601.326 140.608C600.5 140.136 600.048 139.506 600.067 138.818H600.087ZM599.693 144.208C601.11 144.622 602.723 144.858 604.415 144.858L623.341 144.818C626.233 144.818 628.85 144.13 630.758 143.028C632.667 141.926 633.847 140.411 633.847 138.739L633.906 127.82C633.906 126.837 633.493 125.912 632.785 125.086C635.48 125.558 637.428 127.014 637.428 128.725L637.349 140.549C637.349 142.221 636.208 143.795 634.142 144.976C632.076 146.156 629.361 146.825 626.469 146.825L605.989 146.864C603.018 146.864 600.5 145.743 599.674 144.189L599.693 144.208ZM647.245 129.709L647.166 142.379C647.166 145.074 645.317 147.612 642.012 149.52C638.706 151.429 634.299 152.491 629.637 152.491L607.681 152.53C603.963 152.53 600.795 151.232 599.457 149.363C601.366 150.012 603.589 150.406 605.969 150.386L626.45 150.347C631.112 150.347 635.362 149.225 638.451 147.455C641.539 145.684 643.448 143.225 643.467 140.53L643.546 128.706C643.546 127.328 642.897 126.05 641.756 124.948C644.982 125.715 647.264 127.545 647.245 129.689V129.709Z" fill="white"/>
<g opacity="0.15">
<path d="M669.181 25.6149L659.855 25.9493C652.832 26.2051 645.966 28.1528 639.867 31.6547L623.538 40.9997C621.748 42.0227 621.138 44.3049 622.161 46.0952L638.509 74.6614C639.532 76.4517 641.815 77.0615 643.605 76.0385L659.934 66.6935C666.033 63.1916 672.899 61.2439 679.923 60.9881L689.248 60.6537C697.275 60.3586 705.125 58.1355 712.109 54.1417L726.274 46.0361C728.064 45.0131 728.674 42.731 727.651 40.9407L711.302 12.3745C710.279 10.5842 707.997 9.97428 706.207 10.9973L692.042 19.1029C685.057 23.0966 677.227 25.3394 669.181 25.6149Z" fill="black"/>
</g>
<path d="M669.181 17.4703L659.855 17.8048C652.832 18.0605 645.966 20.0082 639.867 23.5102L623.538 32.8552C621.747 33.8782 621.137 36.1603 622.16 37.9506L638.509 66.5168C639.532 68.3071 641.814 68.917 643.605 67.894L659.934 58.549C666.033 55.0471 672.899 53.0994 679.922 52.8436L689.248 52.5092C697.275 52.2141 705.124 49.9909 712.108 45.9972L726.274 37.8916C728.064 36.8686 728.674 34.5864 727.651 32.7961L711.302 4.22994C710.279 2.43963 707.997 1.82975 706.206 2.85278L692.041 10.9583C685.057 14.9521 677.227 17.1949 669.181 17.4703Z" fill="white" stroke="black" stroke-linecap="round" stroke-linejoin="round"/>
<path d="M702.37 14.716C702.272 14.5389 702.213 14.3619 702.134 14.1848L696.212 17.5687C689.051 21.6608 680.965 23.9233 672.722 24.1004L663.81 24.2971C656.59 24.4545 649.527 26.4218 643.271 30.0221L634.339 35.1373C635.618 37.3604 634.85 40.2131 632.607 41.4722L640.457 55.1848C642.661 53.9257 645.474 54.6733 646.753 56.857L655.645 51.7615C661.941 48.1613 669.023 46.1939 676.263 46.0365L685.116 45.8594C693.399 45.6824 701.505 43.4396 708.705 39.3278L714.529 36.0029C713.25 33.7798 714.017 30.9271 716.26 29.668L708.686 16.4473C706.462 17.7261 703.61 16.9588 702.351 14.716H702.37Z" fill="#C0D7FF" stroke="black" stroke-miterlimit="10"/>
<path d="M628.613 38.7966C628.023 38.7966 627.492 38.4818 627.197 37.9703C626.744 37.1834 627.02 36.1997 627.807 35.7472C628.063 35.6095 628.338 35.5308 628.613 35.5308C629.204 35.5308 629.735 35.8455 630.03 36.3571C630.246 36.7309 630.305 37.1834 630.187 37.5965C630.069 38.0096 629.794 38.3638 629.42 38.5802C629.164 38.7179 628.889 38.7966 628.613 38.7966Z" fill="#C0D7FF"/>
<path d="M628.614 36.2783C628.928 36.2783 629.223 36.4553 629.401 36.7308C629.519 36.9472 629.558 37.1833 629.479 37.4193C629.42 37.6554 629.263 37.8522 629.066 37.9702C628.928 38.0489 628.771 38.0882 628.633 38.0882C628.318 38.0882 628.004 37.9112 627.846 37.6357C627.728 37.4193 627.689 37.1833 627.768 36.9472C627.827 36.7111 627.984 36.5143 628.181 36.3963C628.318 36.3176 628.476 36.2783 628.614 36.2783ZM628.614 34.8027C628.22 34.8027 627.807 34.9011 627.433 35.1175C626.292 35.7667 625.899 37.2226 626.548 38.344C626.981 39.1113 627.787 39.5441 628.614 39.5441C629.007 39.5441 629.42 39.4457 629.794 39.2293C630.935 38.5801 631.329 37.1242 630.679 36.0028C630.246 35.2356 629.44 34.8027 628.614 34.8027Z" fill="black"/>
<path d="M642.129 62.4243C641.539 62.4243 641.008 62.1095 640.713 61.598C640.26 60.811 640.536 59.8077 641.322 59.3749C641.559 59.2371 641.854 59.1584 642.129 59.1584C642.719 59.1584 643.25 59.4732 643.546 59.9847C643.762 60.3585 643.821 60.811 643.703 61.2242C643.585 61.6373 643.309 61.9915 642.936 62.2079C642.68 62.3456 642.405 62.4243 642.129 62.4243Z" fill="#C0D7FF"/>
<path d="M642.129 59.8867C642.444 59.8867 642.739 60.0637 642.916 60.3392C643.034 60.5556 643.074 60.7916 642.995 61.0277C642.936 61.2638 642.778 61.4606 642.582 61.5786C642.444 61.6573 642.287 61.6966 642.149 61.6966C641.834 61.6966 641.519 61.5196 641.362 61.2441C641.244 61.0277 641.205 60.7916 641.283 60.5556C641.342 60.3195 641.5 60.1227 641.696 60.0047C641.834 59.926 641.992 59.8867 642.129 59.8867ZM642.129 58.4111C641.736 58.4111 641.323 58.5095 640.949 58.7259C639.808 59.3751 639.414 60.831 640.063 61.9524C640.496 62.7197 641.303 63.1525 642.129 63.1525C642.523 63.1525 642.936 63.0541 643.31 62.8377C644.451 62.1885 644.844 60.7326 644.195 59.6112C643.762 58.844 642.956 58.4111 642.129 58.4111Z" fill="black"/>
<path d="M707.131 12.2761C706.541 12.2761 706.01 11.9613 705.715 11.4498C705.262 10.6628 705.538 9.65949 706.325 9.22666C706.58 9.08895 706.856 9.01025 707.131 9.01025C707.722 9.01025 708.253 9.32503 708.548 9.83655C709 10.6235 708.725 11.6269 707.938 12.0597C707.702 12.1974 707.407 12.2761 707.131 12.2761Z" fill="#C0D7FF"/>
<path d="M707.131 9.73847C707.446 9.73847 707.741 9.91553 707.918 10.191C708.154 10.6238 708.016 11.1746 707.583 11.4107C707.446 11.4894 707.288 11.5288 707.151 11.5288C706.836 11.5288 706.521 11.3517 706.364 11.0763C706.128 10.6435 706.265 10.0926 706.698 9.85651C706.836 9.77781 706.993 9.73847 707.131 9.73847ZM707.131 8.26294C706.737 8.26294 706.324 8.36131 705.95 8.57772C704.809 9.22695 704.416 10.6828 705.065 11.8042C705.498 12.5715 706.305 13.0043 707.131 13.0043C707.524 13.0043 707.938 12.9059 708.311 12.6895C709.452 12.0403 709.846 10.5844 709.197 9.46303C708.764 8.69576 707.957 8.26294 707.131 8.26294Z" fill="black"/>
<path d="M720.765 36.0815C720.175 36.0815 719.644 35.7667 719.349 35.2552C719.132 34.8814 719.073 34.4289 719.191 34.0158C719.309 33.6026 719.585 33.2485 719.958 33.0321C720.214 32.8944 720.49 32.8157 720.765 32.8157C721.355 32.8157 721.886 33.1305 722.181 33.642C722.634 34.4289 722.359 35.4323 721.572 35.8651C721.316 36.0028 721.04 36.0815 720.765 36.0815Z" fill="#C0D7FF"/>
<path d="M720.765 33.5629C721.079 33.5629 721.375 33.74 721.552 34.0154C721.67 34.2318 721.709 34.4679 721.63 34.704C721.571 34.9401 721.414 35.1368 721.217 35.2549C721.079 35.3336 720.922 35.3729 720.784 35.3729C720.47 35.3729 720.155 35.1958 719.997 34.9204C719.879 34.704 719.84 34.4679 719.919 34.2318C719.978 33.9958 720.135 33.799 720.332 33.681C720.47 33.6023 720.627 33.5629 720.765 33.5629ZM720.765 32.0874C720.371 32.0874 719.958 32.1858 719.584 32.4022C718.443 33.0514 718.05 34.5073 718.699 35.6287C719.132 36.3959 719.938 36.8288 720.765 36.8288C721.158 36.8288 721.571 36.7304 721.945 36.514C723.086 35.8647 723.48 34.4089 722.83 33.2875C722.398 32.5202 721.591 32.0874 720.765 32.0874Z" fill="black"/>
<path d="M638.273 32.8943L650.707 54.614" stroke="black" stroke-linejoin="round"/>
<path d="M642.247 30.6912L654.681 52.4109" stroke="black" stroke-linejoin="round"/>
<path d="M661.587 24.533L674.02 46.2724" stroke="black" stroke-linejoin="round"/>
<path d="M690.762 20.2444L703.196 41.9641" stroke="black" stroke-linejoin="round"/>
<path d="M697.825 16.762L710.259 38.4817" stroke="black" stroke-linejoin="round"/>
<path d="M662.079 33.8976L664.007 37.2815C665.699 40.2325 668.886 42.0228 672.309 41.9048L685.057 41.472C687.418 41.3933 688.854 38.816 687.674 36.77L685.726 33.3664C684.034 30.3957 680.828 28.6251 677.424 28.7431L664.695 29.1956C662.334 29.2743 660.898 31.8515 662.079 33.8976Z" fill="white" stroke="black" stroke-linecap="round" stroke-linejoin="round"/>
<path d="M669.358 28.7239L676.755 41.4921" stroke="black" stroke-linejoin="round"/>
<path d="M674.689 28.5466L682.087 41.3149" stroke="black" stroke-linejoin="round"/>
</g>
<defs>
<clipPath id="clip0_302_16806">
<rect width="955" height="691.491" fill="white"/>
</clipPath>
</defs>
</svg>
