<svg width="36" height="40" viewBox="0 0 36 40" fill="none" xmlns="http://www.w3.org/2000/svg">
<path fill-rule="evenodd" clip-rule="evenodd" d="M18.2511 0.990261L34.5801 9.18843C34.9794 9.36763 35.1569 9.77082 35.1569 10.174C34.7132 17.521 32.8496 23.4344 29.921 28.2727C26.9924 33.111 23.0433 36.7845 18.3398 39.6068C17.9848 39.8308 17.5855 39.786 17.2749 39.6068C12.6158 36.7845 8.62228 33.111 5.69371 28.2727C2.80951 23.3896 0.945876 17.4762 0.502153 10.1292C0.45778 9.68122 0.724014 9.32283 1.07899 9.14363L17.3636 0.990261C17.6299 0.811066 17.9848 0.855865 18.2511 0.990261ZM19.4491 25.6744H16.1212C15.9881 25.6744 15.8993 25.6296 15.7662 25.6296C15.2338 25.4504 14.9675 24.868 15.145 24.3304L16.2099 21.2841C15.6775 21.0153 15.1894 20.5673 14.8788 20.0745C14.5238 19.5369 14.3019 18.865 14.3019 18.193C14.3019 17.2074 14.7013 16.3562 15.3225 15.7291C15.9437 15.1019 16.7868 14.6987 17.763 14.6987C18.6948 14.6987 19.5822 15.1019 20.2034 15.7291C20.8247 16.3562 21.224 17.2074 21.224 18.193C21.224 18.865 21.0021 19.5369 20.6915 20.0745C20.3809 20.5673 19.8928 21.0153 19.3604 21.2841L20.3809 24.2856C20.4253 24.42 20.4697 24.5544 20.4697 24.6888C20.4697 25.2264 20.026 25.6744 19.4491 25.6744Z" fill="#C0D7FF"/>
</svg>
