<svg width="43" height="43" viewBox="0 0 43 43" fill="none" xmlns="http://www.w3.org/2000/svg">
<path d="M0.270752 21.3811C0.270752 26.7899 2.38185 31.7029 5.82385 35.3538V33.9115C5.82385 33.6411 6.00742 33.4608 6.28278 33.4608C6.55814 33.4608 6.74172 33.6411 6.74172 33.9115V36.3004C7.20065 36.7061 7.65959 37.1117 8.11852 37.5174V33.9115C8.11852 33.6411 8.30209 33.4608 8.57745 33.4608C8.85281 33.4608 9.03639 33.6411 9.03639 33.9115V38.1935C9.49532 38.509 9.95426 38.8245 10.4132 39.0949V35.2637C10.4132 34.9933 10.5968 34.813 10.8721 34.813C11.1475 34.813 11.3311 34.9933 11.3311 35.2637V39.5907C11.79 39.8161 12.2489 40.0415 12.7079 40.2668V28.052C12.7079 27.7815 12.8914 27.6012 13.1668 27.6012C13.4422 27.6012 13.6257 27.7815 13.6257 28.052V40.6725C14.0847 40.8528 14.5436 41.0331 15.0025 41.1683V29.4042C15.0025 29.1337 15.1861 28.9534 15.4615 28.9534C15.7368 28.9534 15.9204 29.1337 15.9204 29.4042V41.3937C16.3793 41.5289 16.8383 41.619 17.2972 41.7092V28.052C17.2972 27.7815 17.4808 27.6012 17.7561 27.6012C18.0315 27.6012 18.2151 27.7815 18.2151 28.052V41.8895C18.674 41.9346 19.1329 42.0247 19.5919 42.0247V23.9954C19.5919 23.7249 19.7754 23.5446 20.0508 23.5446C20.3262 23.5446 20.5097 23.7249 20.5097 23.9954V42.0698C20.7851 42.0698 21.1063 42.0698 21.3817 42.0698C21.5653 42.0698 21.703 42.0698 21.8865 42.0698V29.4042C21.8865 29.1337 22.0701 28.9534 22.3455 28.9534C22.6208 28.9534 22.8044 29.1337 22.8044 29.4042V42.0698C23.2633 42.0247 23.7223 41.9796 24.1812 41.9346V31.6578C24.1812 31.3874 24.3648 31.2071 24.6401 31.2071C24.9155 31.2071 25.0991 31.3874 25.0991 31.6578V41.7993C25.558 41.7092 26.0169 41.619 26.4759 41.5289V28.5027C26.4759 28.2323 26.6594 28.052 26.9348 28.052C27.2102 28.052 27.3937 28.2323 27.3937 28.5027V41.2585C27.8527 41.1232 28.3116 40.988 28.7705 40.8077V35.7144C28.7705 35.444 28.9541 35.2637 29.2295 35.2637C29.5048 35.2637 29.6884 35.444 29.6884 35.7144V40.4471C30.1473 40.2668 30.6063 40.0415 31.0652 39.8161V37.0666C31.0652 36.7962 31.2488 36.6159 31.5241 36.6159C31.7995 36.6159 31.9831 36.7962 31.9831 37.0666V39.3203C32.442 39.0499 32.9009 38.7794 33.3599 38.4639V34.813C33.3599 34.5425 33.5434 34.3622 33.8188 34.3622C34.0942 34.3622 34.2777 34.5425 34.2777 34.813V37.7878C34.7367 37.4272 35.1956 37.0666 35.6545 36.661V23.9954C35.6545 23.7249 35.8381 23.5446 36.1135 23.5446C36.3888 23.5446 36.5724 23.7249 36.5724 23.9954V35.8046C37.0772 35.3088 37.5362 34.813 37.9492 34.2721V25.7983C37.9492 25.5278 38.1328 25.3476 38.4081 25.3476C38.6835 25.3476 38.8671 25.5278 38.8671 25.7983V33.01C39.3719 32.2889 39.8308 31.5226 40.2439 30.7113V29.4042C40.2439 29.1337 40.4275 28.9534 40.7028 28.9534C40.8405 28.9534 40.9323 28.9985 41.0241 29.0886C41.9878 26.6998 42.5386 24.1306 42.5386 21.3811C42.5386 18.271 41.8502 15.3413 40.611 12.727C40.3816 12.6369 40.2439 12.5016 40.2439 12.2763V12.0509C39.8308 11.2396 39.3719 10.4733 38.8671 9.75216V14.0792C38.8671 14.3496 38.6835 14.5299 38.4081 14.5299C38.1328 14.5299 37.9492 14.3496 37.9492 14.0792V8.49011C37.5362 7.94923 37.0772 7.45342 36.5724 6.95761V16.3329C36.5724 16.6033 36.3888 16.7836 36.1135 16.7836C35.8381 16.7836 35.6545 16.6033 35.6545 16.3329V6.10122C35.1956 5.69556 34.7367 5.33497 34.2777 4.97438V12.727C34.2777 12.9974 34.0942 13.1777 33.8188 13.1777C33.5434 13.1777 33.3599 12.9974 33.3599 12.727V4.29828C32.9009 3.98277 32.442 3.71233 31.9831 3.44189V10.9241C31.9831 11.1945 31.7995 11.3748 31.5241 11.3748C31.2488 11.3748 31.0652 11.1945 31.0652 10.9241V2.94608C30.6063 2.72071 30.1473 2.49535 29.6884 2.31505V18.5865C29.6884 18.857 29.5048 19.0373 29.2295 19.0373C28.9541 19.0373 28.7705 18.857 28.7705 18.5865V1.95447C28.3116 1.77417 27.8527 1.63895 27.3937 1.50373V20.8402C27.3937 21.1107 27.2102 21.2909 26.9348 21.2909C26.6594 21.2909 26.4759 21.1107 26.4759 20.8402V1.23329C26.0169 1.14315 25.558 1.00793 25.0991 0.962853V19.488C25.0991 19.7585 24.9155 19.9387 24.6401 19.9387C24.3648 19.9387 24.1812 19.7585 24.1812 19.488V0.827632C23.7223 0.782559 23.2633 0.737486 22.8044 0.692412V11.3748C22.8044 11.6452 22.6208 11.8255 22.3455 11.8255C22.0701 11.8255 21.8865 11.6452 21.8865 11.3748V0.647339C21.703 0.647339 21.5653 0.647339 21.3817 0.647339C21.1063 0.647339 20.7851 0.647339 20.5097 0.647339V14.5299C20.5097 14.8004 20.3262 14.9807 20.0508 14.9807C19.7754 14.9807 19.5919 14.8004 19.5919 14.5299V0.737486C19.1329 0.782559 18.674 0.827632 18.2151 0.872706V12.2763C18.2151 12.5467 18.0315 12.727 17.7561 12.727C17.4808 12.727 17.2972 12.5467 17.2972 12.2763V1.053C16.8383 1.14315 16.3793 1.23329 15.9204 1.36851V6.86747C15.9204 7.13791 15.7368 7.3182 15.4615 7.3182C15.1861 7.3182 15.0025 7.13791 15.0025 6.86747V1.59388C14.5436 1.7291 14.0847 1.90939 13.6257 2.08969V10.9241C13.6257 11.1945 13.4422 11.3748 13.1668 11.3748C12.8914 11.3748 12.7079 11.1945 12.7079 10.9241V2.49535C12.2489 2.72071 11.79 2.90101 11.3311 3.17145V12.2763C11.3311 12.5467 11.1475 12.727 10.8721 12.727C10.5968 12.727 10.4132 12.5467 10.4132 12.2763V3.66726C9.95426 3.9377 9.49532 4.25321 9.03639 4.56872V10.9241C9.03639 11.1945 8.85281 11.3748 8.57745 11.3748C8.30209 11.3748 8.11852 11.1945 8.11852 10.9241V5.24482C7.65959 5.60541 7.20065 6.01107 6.74172 6.46181V20.8402C6.74172 21.1107 6.55814 21.2909 6.28278 21.2909C6.00742 21.2909 5.82385 21.1107 5.82385 20.8402V7.36327C5.31902 7.90415 4.86009 8.44503 4.44705 8.98592V19.488C4.44705 19.7585 4.26348 19.9387 3.98812 19.9387C3.71276 19.9387 3.52918 19.7585 3.52918 19.488V10.3381C3.02435 11.1494 2.56542 11.9608 2.15238 12.8622V19.488C2.15238 19.7585 1.96881 19.9387 1.69345 19.9387C1.41809 19.9387 1.23451 19.7585 1.23451 19.488V15.206C0.637899 17.1442 0.270752 19.2176 0.270752 21.3811Z" fill="#C0D7FF"/>
</svg>
