<svg width="655" height="545" viewBox="0 0 655 545" fill="none" xmlns="http://www.w3.org/2000/svg">
<g clip-path="url(#clip0_226_16152)">
<path opacity="0.15" d="M630.296 296.672L447.654 190.941C437.725 185.19 420.396 185.882 408.916 192.492L25.611 413.021C14.1302 419.631 12.8891 429.629 22.7945 435.379L205.436 541.11C215.366 546.861 232.694 546.169 244.175 539.559L627.48 319.03C638.96 312.42 640.201 302.422 630.296 296.672Z" fill="black"/>
<path d="M644.952 231.673L454.887 121.623C441.544 113.892 418.201 114.822 402.758 123.699L13.9156 347.426C-1.52734 356.302 -3.22201 369.784 10.1205 377.491L200.186 487.541C213.528 495.272 236.871 494.342 252.314 485.465L641.156 261.762C656.599 252.886 658.294 239.404 644.952 231.697V231.673Z" fill="#C0D7FF"/>
<path d="M222.908 493.817C214.196 493.817 205.866 492.051 199.66 488.472L9.59544 378.422C3.43736 374.866 0.048034 369.879 0.0719026 364.415C0.0719026 357.901 4.94108 351.363 13.3905 346.495L402.209 122.792C417.914 113.748 441.759 112.818 455.388 120.716L645.453 230.766C651.611 234.321 655 239.308 654.976 244.773C654.976 251.287 650.107 257.825 641.658 262.693L252.863 486.372C244.319 491.287 233.339 493.817 222.932 493.817H222.908ZM432.164 117.447C422.139 117.447 411.541 119.881 403.283 124.629L14.4408 348.356C6.65961 352.842 2.1962 358.688 2.1962 364.439C2.1962 369.116 5.20363 373.435 10.6695 376.585L200.735 486.634C213.767 494.175 236.681 493.244 251.789 484.535L640.631 260.832C648.413 256.346 652.876 250.5 652.876 244.749C652.876 240.072 649.869 235.753 644.403 232.603L454.338 122.553C448.418 119.141 440.494 117.447 432.164 117.447Z" fill="black"/>
<path d="M653.902 244.964C653.782 250.81 649.51 256.942 641.156 261.738L252.338 485.441C236.895 494.318 213.575 495.248 200.209 487.517L10.1438 377.491C3.98569 373.936 1.07373 369.14 1.19307 364.129L1.14534 364.081L1.07373 391.665H1.12147C0.906651 396.724 3.81861 401.591 10.0722 405.218L200.137 515.268C213.48 522.999 236.823 522.069 252.266 513.192L641.108 289.489C649.82 284.478 654.164 277.988 653.878 271.927L653.973 244.964C653.973 244.964 653.949 244.987 653.925 245.011L653.902 244.964Z" fill="black"/>
<path d="M222.837 521.544C214.125 521.544 205.794 519.778 199.589 516.199L9.5236 406.149C3.29391 402.546 -0.0715483 397.511 0.0477943 391.927C0.0477943 391.856 0.0239258 391.76 0.0239258 391.665L0.0955313 364.081C0.0955313 363.628 0.381954 363.246 0.787718 363.079C1.21735 362.912 1.67085 363.055 1.95728 363.389C2.12436 363.58 2.26757 363.89 2.2437 364.152C2.12436 368.949 5.10792 373.339 10.6693 376.561L200.734 486.61C213.767 494.151 236.68 493.22 251.789 484.511L640.631 260.808C648.269 256.417 652.732 250.619 652.828 244.94C652.828 244.677 652.947 244.415 653.138 244.224C653.449 243.914 653.926 243.794 654.308 243.961C654.714 244.128 655 244.51 655 244.94L654.904 271.903C654.904 271.903 654.904 271.927 654.904 271.951C655.167 278.656 650.322 285.385 641.61 290.396L252.768 514.099C244.223 519.015 233.243 521.544 222.837 521.544ZM2.12436 391.379C2.12436 391.379 2.17209 391.593 2.17209 391.689C1.98114 396.557 4.96471 401.019 10.5977 404.288L200.663 514.338C213.695 521.878 236.609 520.947 251.717 512.238L640.56 288.535C648.603 283.906 653.067 277.845 652.804 271.927C652.804 271.88 652.804 271.832 652.804 271.784L652.876 252.218C650.68 256.059 646.861 259.686 641.705 262.645L252.863 486.372C237.158 495.415 213.313 496.346 199.684 488.448L9.5952 378.422C6.27748 376.513 3.77128 374.174 2.17209 371.573L2.12436 391.379Z" fill="black"/>
<path d="M630.296 236.016L447.654 130.285C437.725 124.534 420.396 125.226 408.916 131.836L25.611 352.365C14.1302 358.975 12.8891 368.973 22.7945 374.723L205.436 480.454C215.366 486.205 232.694 485.513 244.175 478.903L627.48 258.374C638.96 251.764 640.201 241.766 630.296 236.016Z" fill="white"/>
<path d="M265.155 329.816L156.124 266.892L189.85 247.421L541.839 173.235L582.32 196.691L351.654 329.816C324.898 345.254 291.912 345.254 265.155 329.816Z" fill="#C0D7FF"/>
<path d="M630.296 236.016L447.654 130.285C437.725 124.534 420.396 125.226 408.916 131.836L25.611 352.365C14.1302 358.975 12.8891 368.973 22.7945 374.723L205.436 480.454C215.366 486.205 232.694 485.513 244.175 478.903L627.48 258.374C638.96 251.764 640.201 241.766 630.296 236.016Z" fill="white"/>
<path opacity="0.15" d="M213.074 312.564L304.276 259.949C317.237 252.48 333.205 252.48 346.165 259.949L437.343 312.564C445.172 317.074 445.172 328.36 437.343 332.87L346.165 385.509C333.205 393.001 317.237 393.001 304.276 385.509L213.074 332.87C205.245 328.36 205.245 317.074 213.074 312.564Z" fill="black"/>
<path d="M208.635 298.485L303.44 243.771C316.902 235.992 333.515 235.992 346.977 243.771L441.759 298.485C449.898 303.186 449.898 314.902 441.759 319.603L346.977 374.318C333.515 382.097 316.902 382.097 303.44 374.318L208.635 319.603C200.495 314.902 200.495 303.186 208.635 298.485Z" fill="black"/>
<path d="M202.572 310.846V278.561L321.557 270.568L447.797 280.446V308.865L422.139 323.517L330.054 369.76L202.572 310.846Z" fill="black"/>
<path d="M325.209 349.024C317.69 349.024 310.267 347.044 303.775 343.274L208.969 288.559C205.365 286.483 203.193 282.737 203.193 278.561C203.193 274.385 205.341 270.663 208.969 268.563L303.775 213.848C310.291 210.078 317.69 208.098 325.209 208.098C332.727 208.098 340.15 210.078 346.643 213.848L441.425 268.539C445.029 270.615 447.201 274.361 447.201 278.537C447.201 282.713 445.053 286.435 441.425 288.535L346.643 343.25C340.127 347.02 332.703 349.001 325.185 349.001L325.209 349.024Z" fill="#E2FDFF"/>
<path d="M325.208 208.79C332.608 208.79 339.912 210.746 346.332 214.445L441.114 269.16C444.527 271.116 446.556 274.648 446.556 278.585C446.556 282.522 444.527 286.054 441.114 288.01L346.332 342.725C339.912 346.424 332.608 348.38 325.208 348.38C317.809 348.38 310.505 346.424 304.085 342.725L209.279 288.01C205.866 286.054 203.837 282.522 203.837 278.585C203.837 274.648 205.866 271.116 209.279 269.16L304.085 214.445C310.505 210.746 317.785 208.79 325.208 208.79ZM325.208 207.477C317.69 207.477 310.171 209.41 303.44 213.299L208.635 268.014C200.495 272.715 200.495 284.431 208.635 289.132L303.44 343.847C310.171 347.736 317.69 349.669 325.208 349.669C332.727 349.669 340.246 347.736 346.977 343.847L441.758 289.132C449.874 284.431 449.874 272.715 441.758 268.014L346.977 213.299C340.246 209.41 332.727 207.477 325.208 207.477Z" fill="black"/>
<path d="M223.695 255.296L306.256 207.644C318 200.867 332.44 200.867 344.183 207.644L426.721 255.272C433.81 259.352 433.81 269.565 426.721 273.645L344.183 321.297C332.44 328.074 318 328.074 306.256 321.297L223.695 273.645C216.606 269.565 216.606 259.352 223.695 255.272V255.296Z" fill="black"/>
<path d="M218.42 266.057V237.925L322.034 230.981L431.972 239.571V264.339L409.607 277.082L329.433 317.36L218.42 266.057Z" fill="black"/>
<path d="M325.208 299.225C318.668 299.225 312.224 297.507 306.567 294.238L224.006 246.586C220.879 244.797 219.017 241.552 219.017 237.948C219.017 234.345 220.879 231.124 224.006 229.31L306.567 181.683C312.224 178.414 318.668 176.696 325.208 176.696C331.748 176.696 338.193 178.414 343.849 181.683L426.387 229.31C429.514 231.1 431.375 234.345 431.375 237.925C431.375 241.528 429.514 244.749 426.387 246.562L343.849 294.214C338.193 297.483 331.748 299.201 325.208 299.201V299.225Z" fill="#C0D7FF"/>
<path d="M325.208 177.34C331.629 177.34 337.954 179.034 343.515 182.255L426.052 229.883C428.964 231.553 430.707 234.584 430.707 237.948C430.707 241.313 428.964 244.319 426.052 246.014L343.515 293.665C337.954 296.863 331.629 298.581 325.208 298.581C318.787 298.581 312.462 296.887 306.901 293.689L224.34 246.037C221.428 244.343 219.685 241.337 219.685 237.972C219.685 234.608 221.428 231.601 224.34 229.907L306.901 182.255C312.462 179.058 318.787 177.364 325.208 177.364M325.208 176.051C318.668 176.051 312.128 177.745 306.256 181.134L223.695 228.786C216.606 232.866 216.606 243.079 223.695 247.159L306.256 294.811C312.128 298.199 318.668 299.893 325.208 299.893C331.748 299.893 338.312 298.199 344.16 294.811L426.697 247.159C433.786 243.079 433.762 232.866 426.697 228.786L344.16 181.158C338.288 177.769 331.748 176.075 325.208 176.075V176.051Z" fill="black"/>
<path d="M238.446 214.636L309.001 173.928C319.026 168.153 331.39 168.153 341.415 173.928L411.946 214.636C417.985 218.119 417.985 226.853 411.946 230.337L341.415 271.068C331.39 276.867 319.026 276.867 309.001 271.068L238.446 230.337C232.407 226.853 232.407 218.119 238.446 214.636Z" fill="black"/>
<path d="M233.935 223.822V199.794L322.487 193.828L416.458 201.202V222.343L397.339 233.248L328.812 267.656L233.935 223.822Z" fill="black"/>
<path d="M325.208 252.075C319.647 252.075 314.157 250.595 309.336 247.827L238.78 207.095C236.155 205.568 234.58 202.848 234.58 199.818C234.58 196.787 236.155 194.043 238.78 192.54L309.336 151.832C314.157 149.04 319.647 147.584 325.208 147.584C330.77 147.584 336.259 149.064 341.081 151.832L411.612 192.54C414.238 194.067 415.813 196.787 415.813 199.818C415.813 202.872 414.238 205.592 411.612 207.119L341.081 247.851C336.259 250.643 330.77 252.098 325.208 252.098V252.075Z" fill="white"/>
<path d="M325.208 146.892V148.205C330.65 148.205 336.044 149.637 340.746 152.381L411.278 193.089C413.713 194.496 415.169 197.002 415.169 199.818C415.169 202.633 413.713 205.139 411.278 206.547L340.746 247.278C336.02 249.999 330.65 251.454 325.184 251.454C319.718 251.454 314.348 250.022 309.646 247.278L239.09 206.547C236.656 205.139 235.2 202.633 235.2 199.818C235.2 197.002 236.656 194.496 239.09 193.089L309.646 152.381C314.372 149.66 319.742 148.229 325.184 148.229V146.916M325.184 146.916C319.599 146.916 313.99 148.372 308.977 151.259L238.422 191.967C232.383 195.451 232.383 204.184 238.422 207.668L308.977 248.4C313.99 251.287 319.575 252.743 325.184 252.743C330.793 252.743 336.379 251.287 341.391 248.4L411.922 207.668C417.961 204.184 417.961 195.451 411.922 191.967L341.391 151.259C336.379 148.372 330.793 146.916 325.184 146.916Z" fill="black"/>
<path opacity="0.15" d="M171.878 277.105C189.278 277.105 203.384 268.965 203.384 258.923C203.384 248.881 189.278 240.74 171.878 240.74C154.477 240.74 140.371 248.881 140.371 258.923C140.371 268.965 154.477 277.105 171.878 277.105Z" fill="black"/>
<path d="M199.207 249.092C184.122 257.801 159.657 257.801 144.572 249.092C137.03 244.749 133.258 239.022 133.258 233.319V239.619C133.258 245.322 137.03 251.025 144.572 255.391C159.657 264.101 184.122 264.101 199.207 255.391C206.749 251.048 210.521 245.322 210.521 239.619V233.319C210.521 239.022 206.749 244.725 199.207 249.092Z" fill="black"/>
<path d="M171.877 262.55C161.877 262.55 151.852 260.354 144.238 255.964C136.743 251.645 132.614 245.847 132.614 239.643V233.343C132.614 232.985 132.9 232.723 133.234 232.723C133.569 232.723 133.855 233.009 133.855 233.343C133.855 239.07 137.769 244.463 144.858 248.567C159.752 257.157 183.979 257.157 198.873 248.567C205.962 244.463 209.876 239.07 209.876 233.343C209.876 232.985 210.163 232.723 210.497 232.723C210.831 232.723 211.117 233.009 211.117 233.343V239.643C211.117 245.823 206.988 251.621 199.493 255.964C191.879 260.354 181.878 262.55 171.854 262.55H171.877ZM133.879 239.141V239.619C133.879 245.345 137.793 250.738 144.882 254.842C159.776 263.433 184.003 263.433 198.897 254.842C205.986 250.738 209.9 245.345 209.9 239.619V239.141C208.158 243.102 204.625 246.706 199.517 249.641C184.289 258.446 159.49 258.446 144.262 249.641C139.178 246.706 135.645 243.102 133.879 239.141Z" fill="black"/>
<path d="M171.878 255.63C193.22 255.63 210.521 245.641 210.521 233.319C210.521 220.997 193.22 211.008 171.878 211.008C150.536 211.008 133.234 220.997 133.234 233.319C133.234 245.641 150.536 255.63 171.878 255.63Z" fill="#2276FF"/>
<path d="M171.877 256.226C161.877 256.226 151.852 254.031 144.238 249.64C136.743 245.322 132.614 239.523 132.614 233.319C132.614 227.115 136.743 221.341 144.238 216.998C159.466 208.193 184.265 208.193 199.493 216.998C206.988 221.317 211.117 227.115 211.117 233.319C211.117 239.523 206.988 245.298 199.493 249.64C191.879 254.031 181.878 256.226 171.854 256.226H171.877ZM171.877 211.653C162.091 211.653 152.329 213.8 144.882 218.095C137.793 222.2 133.879 227.592 133.879 233.319C133.879 239.046 137.793 244.439 144.882 248.543C159.776 257.133 184.003 257.133 198.897 248.543C205.986 244.439 209.9 239.046 209.9 233.319C209.9 227.592 205.986 222.2 198.897 218.095C191.45 213.8 181.664 211.653 171.901 211.653H171.877Z" fill="black"/>
<g opacity="0.15">
<path d="M448.275 190.894L261.742 83.2059C256.802 80.3425 257.422 75.3554 263.127 72.0625L360.272 15.9877C366 12.6948 374.64 12.3368 379.581 15.1764L566.114 122.84C571.055 125.703 570.434 130.691 564.729 133.983L467.585 190.058C461.856 193.351 453.216 193.709 448.275 190.87V190.894Z" fill="black"/>
<path d="M456.677 193.423C453.407 193.423 450.304 192.755 447.965 191.418L261.432 83.7547C259.069 82.3946 257.78 80.4857 257.78 78.362C257.78 75.8565 259.618 73.351 262.817 71.5137L359.961 15.4627C365.833 12.0743 374.784 11.7164 379.915 14.6514L566.448 122.315C568.811 123.675 570.1 125.584 570.1 127.708C570.1 130.213 568.262 132.719 565.064 134.556L467.919 190.631C464.72 192.492 460.591 193.423 456.677 193.423ZM371.203 13.8878C367.528 13.8878 363.613 14.7945 360.582 16.5364L263.437 72.6113C260.621 74.2339 259.021 76.3337 259.021 78.3858C259.021 80.0323 260.096 81.5594 262.053 82.6809L448.585 190.345C453.359 193.089 461.737 192.731 467.274 189.533L564.419 133.459C567.236 131.836 568.835 129.736 568.835 127.684C568.835 126.038 567.761 124.51 565.804 123.389L379.271 15.749C377.123 14.5082 374.235 13.8878 371.203 13.8878Z" fill="black"/>
</g>
<path d="M569.479 115.109L565.159 114.417L379.581 7.32569C374.641 4.46229 365.976 4.82022 360.272 8.13699L263.127 64.2118C262.053 64.8323 261.17 65.5004 260.454 66.2162L258.401 65.8822V70.5113C258.401 72.3248 259.499 74.0667 261.742 75.3552L448.275 183.019C453.216 185.882 461.88 185.524 467.585 182.208L564.729 126.133C567.88 124.319 569.479 121.981 569.455 119.762V115.109H569.479Z" fill="black"/>
<path d="M456.677 185.548C453.407 185.548 450.304 184.88 447.965 183.544L261.432 75.8801C259.117 74.5439 257.828 72.6827 257.78 70.6067C257.78 70.559 257.78 70.5113 257.78 70.4874V65.8582C257.78 65.6673 257.876 65.5003 257.995 65.381C258.138 65.2617 258.329 65.214 258.496 65.2378L260.239 65.5242C260.955 64.856 261.814 64.2118 262.817 63.6391L359.961 7.56423C365.857 4.17588 374.784 3.81795 379.915 6.75294L565.398 113.796L569.599 114.464C569.909 114.512 570.124 114.775 570.124 115.085V119.738C570.124 119.738 570.124 119.809 570.124 119.833C570.124 122.315 568.262 124.796 565.087 126.634L467.943 182.709C464.744 184.57 460.615 185.501 456.701 185.501L456.677 185.548ZM259.021 70.3681C259.021 70.3681 259.021 70.4397 259.021 70.4874C259.021 72.1339 260.096 73.661 262.029 74.7825L448.561 182.446C453.335 185.19 461.713 184.832 467.25 181.635L564.395 125.56C567.212 123.937 568.835 121.814 568.811 119.738C568.811 119.69 568.811 119.666 568.811 119.619V115.586L565.04 114.989C565.04 114.989 564.897 114.942 564.825 114.918L379.271 7.85057C374.497 5.10648 366.12 5.46441 360.582 8.66187L263.437 64.7367C262.435 65.3094 261.575 65.9537 260.907 66.6457C260.764 66.7888 260.549 66.8604 260.358 66.8127L259.021 66.5979V70.3681Z" fill="black"/>
<path d="M448.275 178.223L261.742 70.5591C256.802 67.6957 257.422 62.7086 263.127 59.4157L360.272 3.34081C366 0.0479021 374.64 -0.310023 379.581 2.52951L566.114 110.193C571.055 113.057 570.434 118.044 564.729 121.337L467.585 177.412C461.856 180.704 453.216 181.062 448.275 178.223Z" fill="#E2FDFF"/>
<path d="M456.677 180.776C453.407 180.776 450.304 180.108 447.965 178.772L261.432 71.1078C259.069 69.7477 257.78 67.8387 257.78 65.7151C257.78 63.2096 259.618 60.7041 262.817 58.8668L359.961 2.79189C365.833 -0.596461 374.784 -0.954386 379.915 1.9806L566.448 109.644C568.811 111.004 570.1 112.913 570.1 115.037C570.1 117.543 568.262 120.048 565.064 121.885L467.919 177.96C464.72 179.821 460.591 180.752 456.677 180.752V180.776ZM371.203 1.24089C367.528 1.24089 363.613 2.14763 360.582 3.88953L263.437 59.9644C260.621 61.587 259.021 63.6868 259.021 65.7389C259.021 67.3854 260.096 68.9125 262.053 70.034L448.585 177.698C453.359 180.442 461.737 180.084 467.274 176.886L564.419 120.812C567.236 119.189 568.835 117.089 568.835 115.037C568.835 113.391 567.761 111.863 565.804 110.742L379.271 3.07823C377.123 1.83743 374.235 1.21702 371.203 1.21702V1.24089Z" fill="black"/>
<path d="M275.801 52.1137L480.259 170.133L497.969 159.921L293.488 41.9009L275.801 52.1137Z" fill="black"/>
<path d="M480.259 170.754C480.259 170.754 480.044 170.73 479.949 170.658L275.467 52.6626C275.276 52.5433 275.157 52.3524 275.157 52.1138C275.157 51.8752 275.276 51.6843 275.467 51.565L293.154 41.3522C293.345 41.2329 293.583 41.2329 293.774 41.3522L498.256 159.372C498.447 159.491 498.566 159.682 498.566 159.921C498.566 160.159 498.447 160.35 498.256 160.47L480.569 170.682C480.569 170.682 480.354 170.778 480.259 170.778V170.754ZM277.042 52.1138L480.259 169.418L496.704 159.921L293.488 42.6168L277.042 52.1138Z" fill="black"/>
<path d="M407.197 80.6287L350.199 47.7234L369.055 36.8425L426.053 69.7477L407.197 80.6287Z" fill="white"/>
<path d="M459.612 125.059C476.894 125.059 490.904 116.972 490.904 106.996C490.904 97.0196 476.894 88.9324 459.612 88.9324C442.331 88.9324 428.321 97.0196 428.321 106.996C428.321 116.972 442.331 125.059 459.612 125.059Z" fill="#C0D7FF"/>
<path d="M494.437 90.937V84.5421H492.599C490.952 81.6787 488.183 79.0062 484.245 76.7393C470.64 68.8888 448.586 68.8888 435.004 76.7393C431.066 79.0062 428.297 81.7025 426.65 84.5421H424.812V90.8893C424.812 96.0434 428.178 101.221 435.004 105.159C448.609 113.009 470.664 113.009 484.245 105.159C491.048 101.245 494.437 96.0911 494.437 90.937Z" fill="black"/>
<path d="M459.613 111.649C450.591 111.649 441.544 109.668 434.67 105.683C427.868 101.746 424.144 96.4967 424.168 90.8653V84.5181C424.168 84.3511 424.24 84.184 424.359 84.0647C424.478 83.9454 424.645 83.8739 424.813 83.8739H426.292C428.083 80.915 430.923 78.3141 434.694 76.1427C448.442 68.1967 470.831 68.1967 484.579 76.1427C488.351 78.3141 491.167 80.915 492.981 83.8739H494.461C494.819 83.8739 495.081 84.1602 495.081 84.4943V90.8892C495.081 96.4967 491.358 101.746 484.579 105.636C477.705 109.597 468.683 111.577 459.637 111.577L459.613 111.649ZM425.409 85.1624V90.8892C425.409 96.0433 428.894 100.911 435.291 104.61C448.705 112.341 470.497 112.341 483.911 104.61C490.284 100.935 493.793 96.0672 493.793 90.9369V85.1624H492.575C492.36 85.1624 492.146 85.0431 492.026 84.8522C490.355 81.9649 487.611 79.4117 483.911 77.2642C470.497 69.533 448.705 69.533 435.291 77.2642C431.567 79.4117 428.846 81.9649 427.176 84.8522C427.056 85.0431 426.865 85.1624 426.627 85.1624H425.409Z" fill="black"/>
<path d="M459.613 104.633C478.846 104.633 494.437 95.6381 494.437 84.5418C494.437 73.4456 478.846 64.4503 459.613 64.4503C440.38 64.4503 424.789 73.4456 424.789 84.5418C424.789 95.6381 440.38 104.633 459.613 104.633Z" fill="#2276FF"/>
<path d="M459.589 105.254C450.566 105.254 441.52 103.273 434.646 99.2885C427.867 95.3752 424.12 90.1256 424.12 84.542C424.12 78.9584 427.844 73.7088 434.646 69.7955C448.394 61.8496 470.759 61.8496 484.531 69.7955C491.31 73.7088 495.057 78.9584 495.057 84.542C495.057 90.1256 491.334 95.3752 484.555 99.2885C477.681 103.25 468.659 105.254 459.613 105.254H459.589ZM459.589 65.0709C450.781 65.0709 441.974 67.0037 435.291 70.8693C428.918 74.544 425.409 79.4117 425.409 84.542C425.409 89.6723 428.918 94.54 435.291 98.2147C448.705 105.946 470.497 105.946 483.911 98.2147C490.284 94.54 493.792 89.6723 493.792 84.542C493.792 79.4117 490.284 74.544 483.911 70.8693C477.204 67.0037 468.396 65.0709 459.589 65.0709Z" fill="black"/>
<path d="M442.809 91.1994C442.212 90.8653 441.878 90.4119 441.902 89.9108V76.8108C441.95 75.8086 443.334 74.9973 445.077 74.9973C446.819 74.9973 448.203 75.8086 448.203 76.8108V87.6679L479.71 83.8023C481.404 83.5875 483.075 84.2079 483.433 85.1862C483.791 86.1646 482.717 87.119 481.023 87.3338L445.697 91.6527C444.766 91.772 443.812 91.6527 443.072 91.2948C442.976 91.2471 442.905 91.2232 442.833 91.1755L442.809 91.1994Z" fill="white"/>
<g opacity="0.15">
<path d="M515.25 538.772L328.717 431.108C323.777 428.245 324.397 423.258 330.102 419.965L427.247 363.89C432.975 360.597 441.616 360.239 446.556 363.079L633.089 470.742C638.03 473.606 637.409 478.593 631.704 481.886L534.56 537.961C528.831 541.254 520.191 541.612 515.25 538.772Z" fill="black"/>
<path d="M523.628 541.325C520.358 541.325 517.255 540.657 514.916 539.321L328.383 431.657C326.02 430.297 324.731 428.388 324.731 426.264C324.731 423.759 326.569 421.253 329.768 419.416L426.913 363.341C432.784 359.953 441.735 359.595 446.867 362.53L633.399 470.194C635.762 471.554 637.051 473.463 637.051 475.586C637.051 478.092 635.213 480.597 632.015 482.435L534.87 538.509C531.671 540.371 527.542 541.301 523.628 541.301V541.325ZM438.155 361.79C434.479 361.79 430.564 362.697 427.533 364.439L330.388 420.514C327.572 422.136 325.973 424.236 325.973 426.288C325.973 427.935 327.047 429.462 329.004 430.583L515.536 538.247C520.31 540.991 528.688 540.633 534.225 537.436L631.37 481.361C634.187 479.738 635.786 477.638 635.786 475.586C635.786 473.94 634.712 472.413 632.755 471.291L446.222 363.627C444.074 362.387 441.186 361.766 438.155 361.766V361.79Z" fill="black"/>
</g>
<path d="M636.431 462.987L632.11 462.295L446.533 355.181C441.592 352.317 432.927 352.675 427.223 355.992L330.078 412.067C329.004 412.687 328.121 413.355 327.405 414.071L325.352 413.737V418.366C325.352 420.18 326.45 421.922 328.694 423.21L515.226 530.874C520.167 533.737 528.831 533.379 534.536 530.063L631.681 473.988C634.831 472.174 636.431 469.836 636.407 467.617V462.964L636.431 462.987Z" fill="black"/>
<path d="M523.628 533.427C520.358 533.427 517.255 532.759 514.916 531.423L328.383 423.759C326.068 422.423 324.779 420.561 324.731 418.485C324.731 418.438 324.731 418.39 324.731 418.366V413.737C324.731 413.546 324.827 413.379 324.946 413.26C325.089 413.14 325.28 413.093 325.448 413.117L327.19 413.403C327.906 412.735 328.765 412.091 329.768 411.518L426.913 355.443C432.808 352.055 441.735 351.697 446.867 354.632L632.349 461.675L636.55 462.343C636.86 462.391 637.075 462.653 637.075 462.964V467.617C637.075 467.617 637.075 467.688 637.075 467.712C637.075 470.194 635.213 472.675 632.039 474.513L534.894 530.588C531.695 532.449 527.566 533.379 523.652 533.379L523.628 533.427ZM325.973 418.247C325.973 418.247 325.973 418.318 325.973 418.366C325.973 420.013 327.047 421.54 328.98 422.661L515.513 530.325C520.286 533.069 528.664 532.711 534.202 529.514L631.346 473.439C634.163 471.816 635.786 469.693 635.762 467.617C635.762 467.569 635.762 467.545 635.762 467.497V463.465L631.991 462.868C631.991 462.868 631.848 462.82 631.776 462.797L446.198 355.682C441.425 352.938 433.047 353.295 427.509 356.493L330.364 412.568C329.362 413.14 328.503 413.785 327.834 414.477C327.691 414.62 327.476 414.691 327.285 414.644L325.949 414.429V418.199L325.973 418.247Z" fill="black"/>
<path d="M515.25 526.125L328.717 418.462C323.777 415.598 324.397 410.611 330.102 407.318L427.247 351.243C432.975 347.95 441.616 347.593 446.556 350.432L633.089 458.096C638.03 460.959 637.409 465.946 631.704 469.239L534.56 525.314C528.831 528.607 520.191 528.965 515.25 526.125Z" fill="#C0D7FF"/>
<path d="M523.628 528.678C520.358 528.678 517.255 528.01 514.916 526.674L328.383 419.01C326.02 417.65 324.731 415.741 324.731 413.618C324.731 411.112 326.569 408.607 329.768 406.769L426.913 350.694C432.784 347.306 441.735 346.948 446.867 349.883L633.399 457.547C635.762 458.907 637.051 460.816 637.051 462.94C637.051 465.445 635.213 467.951 632.015 469.788L534.87 525.863C531.671 527.724 527.542 528.655 523.628 528.655V528.678ZM438.155 349.143C434.479 349.143 430.564 350.05 427.533 351.792L330.388 407.867C327.572 409.49 325.973 411.589 325.973 413.642C325.973 415.288 327.047 416.815 329.004 417.937L515.536 525.6C520.31 528.344 528.688 527.986 534.225 524.789L631.37 468.714C634.187 467.092 635.786 464.992 635.786 462.94C635.786 461.293 634.712 459.766 632.755 458.645L446.222 350.981C444.074 349.74 441.186 349.12 438.155 349.12V349.143Z" fill="black"/>
<path d="M342.752 399.993L547.234 518.012L564.921 507.8L360.439 389.78L342.752 399.993Z" fill="black"/>
<path d="M547.234 518.633C547.234 518.633 547.019 518.609 546.924 518.538L342.442 400.518C342.251 400.399 342.132 400.208 342.132 399.969C342.132 399.73 342.251 399.539 342.442 399.42L360.129 389.207C360.32 389.088 360.558 389.088 360.749 389.207L565.231 507.227C565.422 507.346 565.541 507.537 565.541 507.776C565.541 508.015 565.422 508.205 565.231 508.325L547.544 518.538C547.544 518.538 547.33 518.633 547.234 518.633ZM344.017 399.993L547.234 517.297L563.679 507.8L360.463 390.496L344.017 399.993Z" fill="black"/>
<path d="M474.148 428.507L417.174 395.626L436.03 384.745L493.028 417.627L474.148 428.507Z" fill="white"/>
<path d="M526.564 472.962C543.846 472.962 557.855 464.874 557.855 454.898C557.855 444.922 543.846 436.835 526.564 436.835C509.282 436.835 495.272 444.922 495.272 454.898C495.272 464.874 509.282 472.962 526.564 472.962Z" fill="#C0D7FF"/>
<path d="M561.388 438.84V432.445H559.55C557.903 429.581 555.135 426.909 551.196 424.642C537.591 416.792 515.537 416.792 501.956 424.642C498.017 426.909 495.248 429.605 493.602 432.445H491.764V438.792C491.764 443.946 495.129 449.124 501.956 453.061C515.561 460.912 537.615 460.912 551.196 453.061C557.999 449.148 561.388 443.994 561.388 438.84Z" fill="black"/>
<path d="M526.564 459.552C517.542 459.552 508.496 457.571 501.621 453.586C494.819 449.649 491.095 444.399 491.119 438.768V432.421C491.119 432.254 491.191 432.087 491.31 431.968C491.43 431.848 491.597 431.777 491.764 431.777H493.244C495.034 428.818 497.874 426.217 501.645 424.046C515.394 416.1 537.782 416.1 551.531 424.046C555.302 426.217 558.118 428.818 559.932 431.777H561.412C561.77 431.777 562.033 432.063 562.033 432.397V438.792C562.033 444.399 558.309 449.649 551.531 453.539C544.656 457.5 535.634 459.48 526.588 459.48L526.564 459.552ZM492.36 433.065V438.792C492.36 443.946 495.845 448.814 502.242 452.512C515.656 460.244 537.448 460.244 550.862 452.512C557.235 448.838 560.744 443.97 560.744 438.84V433.065H559.526C559.312 433.065 559.097 432.946 558.977 432.755C557.307 429.868 554.562 427.315 550.862 425.167C537.448 417.436 515.656 417.436 502.242 425.167C498.519 427.315 495.798 429.868 494.127 432.755C494.007 432.946 493.816 433.065 493.578 433.065H492.36Z" fill="black"/>
<path d="M526.564 452.512C545.797 452.512 561.388 443.517 561.388 432.421C561.388 421.325 545.797 412.329 526.564 412.329C507.331 412.329 491.74 421.325 491.74 432.421C491.74 443.517 507.331 452.512 526.564 452.512Z" fill="#2276FF"/>
<path d="M526.564 453.133C517.542 453.133 508.495 451.152 501.621 447.167C494.843 443.254 491.095 438.004 491.095 432.421C491.095 426.837 494.819 421.588 501.621 417.674C515.37 409.728 537.734 409.728 551.506 417.674C558.285 421.588 562.032 426.837 562.032 432.421C562.032 438.004 558.309 443.254 551.53 447.167C544.656 451.128 535.634 453.133 526.588 453.133H526.564ZM526.564 412.95C517.756 412.95 508.949 414.883 502.266 418.748C495.893 422.423 492.384 427.291 492.384 432.421C492.384 437.551 495.893 442.419 502.266 446.094C515.68 453.825 537.472 453.825 550.886 446.094C557.259 442.419 560.767 437.551 560.767 432.421C560.767 427.291 557.259 422.423 550.886 418.748C544.179 414.883 535.371 412.95 526.564 412.95Z" fill="black"/>
<path d="M509.784 439.078C509.187 438.744 508.853 438.291 508.877 437.79V424.69C508.925 423.687 510.309 422.876 512.052 422.876C513.794 422.876 515.178 423.687 515.178 424.69V435.547L546.685 431.681C548.38 431.466 550.05 432.087 550.408 433.065C550.766 434.043 549.692 434.998 547.998 435.213L512.672 439.532C511.741 439.651 510.787 439.532 510.047 439.174C509.951 439.126 509.88 439.102 509.808 439.054L509.784 439.078Z" fill="white"/>
<path opacity="0.15" d="M567.617 275.865L509.521 243.079C507.206 241.766 503.172 241.981 500.523 243.556L467.321 263.17C464.672 264.745 464.41 267.06 466.725 268.372L524.821 301.158C527.136 302.47 531.17 302.256 533.819 300.681L567.02 281.066C569.67 279.492 569.932 277.177 567.617 275.865Z" fill="black"/>
<path d="M523.413 288.917L463.694 255.272C462.5 254.604 461.951 253.697 461.927 252.767H461.904L461.832 246.109C461.832 246.109 463.932 247.827 465.174 248.829L502.385 226.829C505.416 225.039 510.023 224.801 512.672 226.304L569.765 258.469L574.133 255.892L574.205 262.598H574.181C574.181 263.719 573.346 264.936 571.723 265.914L533.724 288.368C530.693 290.158 526.086 290.396 523.437 288.893L523.413 288.917Z" fill="black"/>
<path d="M527.78 290.635C526.038 290.635 524.367 290.277 523.078 289.561L463.359 255.916C462.118 255.2 461.378 254.198 461.235 253.053C461.211 252.981 461.187 252.91 461.187 252.814L461.116 246.157C461.116 245.87 461.259 245.632 461.521 245.513C461.76 245.393 462.07 245.441 462.285 245.608L465.245 248.018L502.026 226.256C505.296 224.323 510.118 224.085 513.03 225.707L569.765 257.658L573.775 255.272C573.99 255.153 574.253 255.153 574.491 255.272C574.706 255.391 574.849 255.63 574.849 255.869L574.921 262.574C574.921 262.574 574.921 262.741 574.873 262.812C574.754 264.196 573.775 265.509 572.08 266.511L534.082 288.965C532.268 290.038 529.976 290.587 527.804 290.587L527.78 290.635ZM523.771 288.32C526.229 289.704 530.525 289.466 533.342 287.795L571.341 265.342C572.677 264.554 573.441 263.552 573.441 262.621C573.441 262.574 573.441 262.502 573.441 262.454L573.369 257.181L570.052 259.138C569.837 259.257 569.574 259.257 569.336 259.138L512.242 226.972C509.784 225.588 505.487 225.827 502.671 227.497L465.46 249.497C465.197 249.641 464.887 249.617 464.648 249.426L462.476 247.66L462.524 252.576C462.524 252.576 462.548 252.695 462.548 252.766C462.572 253.721 463.336 254.341 463.956 254.699L523.675 288.344L523.771 288.32Z" fill="black"/>
<path d="M572.295 253.22L512.576 219.575C509.927 218.072 505.32 218.31 502.289 220.1L464.29 242.554C461.259 244.343 460.949 247.016 463.622 248.495L523.341 282.14C525.99 283.644 530.597 283.405 533.628 281.615L571.627 259.161C574.658 257.372 574.969 254.699 572.295 253.22Z" fill="#2276FF"/>
<path d="M527.709 283.858C525.966 283.858 524.296 283.5 523.007 282.784L463.288 249.14C461.903 248.352 461.14 247.231 461.116 245.966C461.116 244.487 462.142 243.031 463.956 241.957L501.955 219.503C505.225 217.571 510.07 217.332 512.958 218.955L572.677 252.599C574.062 253.387 574.825 254.508 574.849 255.773C574.849 257.253 573.823 258.708 572.009 259.782L534.01 282.236C532.196 283.309 529.905 283.858 527.733 283.858H527.709ZM508.232 219.289C506.299 219.289 504.246 219.766 502.647 220.72L464.648 243.174C463.288 243.985 462.5 244.988 462.5 245.942C462.5 246.897 463.288 247.517 463.956 247.899L523.675 281.544C526.134 282.928 530.43 282.689 533.246 281.019L571.245 258.565C572.606 257.754 573.393 256.751 573.393 255.797C573.393 254.842 572.606 254.222 571.937 253.84L512.218 220.195C511.144 219.599 509.712 219.289 508.208 219.289H508.232Z" fill="black"/>
<path d="M509.64 244.487C511.836 243.198 511.812 241.122 509.592 239.858C507.373 238.593 503.768 238.641 501.573 239.953C499.377 241.242 499.401 243.317 501.62 244.582C503.84 245.847 507.444 245.799 509.64 244.487Z" fill="white"/>
<path d="M521.861 251.359C524.057 250.07 524.033 247.994 521.814 246.73C519.594 245.465 515.99 245.513 513.794 246.825C511.598 248.114 511.622 250.19 513.841 251.454C516.061 252.719 519.642 252.671 521.861 251.359Z" fill="white"/>
<path d="M534.058 258.255C536.254 256.966 536.23 254.89 534.01 253.626C531.79 252.361 528.186 252.409 525.99 253.721C523.794 255.01 523.818 257.086 526.038 258.35C528.258 259.615 531.862 259.567 534.058 258.255Z" fill="white"/>
</g>
<defs>
<clipPath id="clip0_226_16152">
<rect width="655" height="545" fill="white"/>
</clipPath>
</defs>
</svg>
