<svg width="26" height="26" viewBox="0 0 26 26" fill="none" xmlns="http://www.w3.org/2000/svg">
<path d="M13.001 9.25C10.9293 9.25 9.25098 10.9289 9.25098 13C9.25098 15.0716 10.9299 16.75 13.001 16.75C15.0726 16.75 16.751 15.0711 16.751 13C16.751 10.9284 15.0721 9.25 13.001 9.25ZM13.001 6.75C16.4515 6.75 19.251 9.54638 19.251 13C19.251 16.4506 16.4546 19.25 13.001 19.25C9.55039 19.25 6.75098 16.4536 6.75098 13C6.75098 9.54941 9.54735 6.75 13.001 6.75ZM21.126 6.43644C21.126 7.29907 20.425 7.99896 19.5635 7.99896C18.7009 7.99896 18.001 7.298 18.001 6.43644C18.001 5.57487 18.7019 4.875 19.5635 4.875C20.4239 4.87391 21.126 5.57487 21.126 6.43644ZM13.001 3C9.90788 3 9.40373 3.00819 7.96509 3.07225C6.98494 3.11826 6.32791 3.25009 5.71745 3.48709C5.17495 3.69749 4.78361 3.94872 4.36665 4.36569C3.94809 4.78425 3.6973 5.17454 3.48775 5.71729C3.2502 6.32915 3.11841 6.98514 3.07323 7.96394C3.00854 9.344 3.00098 9.82631 3.00098 13C3.00098 16.0931 3.00916 16.5972 3.07321 18.0358C3.11925 19.0155 3.25125 19.6735 3.48768 20.2825C3.69863 20.8258 3.95038 21.218 4.36533 21.633C4.78554 22.0526 5.17699 22.3042 5.71459 22.5117C6.33249 22.7506 6.9891 22.8826 7.9649 22.9277C9.34498 22.9924 9.82729 23 13.001 23C16.0941 23 16.5983 22.9917 18.0368 22.9277C19.0144 22.8819 19.6729 22.7495 20.2835 22.5132C20.8253 22.3029 21.2188 22.0503 21.634 21.6356C22.0543 21.2148 22.3054 20.8243 22.5131 20.2854C22.7514 19.6698 22.8836 19.0123 22.9287 18.0361C22.9934 16.656 23.001 16.1736 23.001 13C23.001 9.9069 22.9928 9.40276 22.9287 7.96421C22.8827 6.98633 22.7504 6.32686 22.5139 5.71648C22.304 5.17548 22.0519 4.78294 21.6353 4.36569C21.216 3.94644 20.8268 3.69616 20.2836 3.48677C19.6723 3.24942 19.0153 3.11745 18.037 3.07226C16.657 3.00756 16.1746 3 13.001 3ZM13.001 0.5C16.3968 0.5 16.8208 0.5125 18.1541 0.575C19.4843 0.636462 20.3916 0.846875 21.1885 1.15625C22.0124 1.47396 22.7083 1.90312 23.403 2.59791C24.0968 3.29271 24.526 3.99062 24.8448 4.8125C25.153 5.60834 25.3635 6.51666 25.426 7.84688C25.4854 9.18021 25.501 9.60416 25.501 13C25.501 16.3959 25.4885 16.8197 25.426 18.1531C25.3645 19.4834 25.153 20.3906 24.8448 21.1875C24.527 22.0115 24.0968 22.7072 23.403 23.4021C22.7083 24.0959 22.0093 24.525 21.1885 24.8438C20.3916 25.1521 19.4843 25.3625 18.1541 25.425C16.8208 25.4844 16.3968 25.5 13.001 25.5C9.60514 25.5 9.18118 25.4875 7.84785 25.425C6.51764 25.3635 5.61139 25.1521 4.81348 24.8438C3.99055 24.526 3.29368 24.0959 2.59889 23.4021C1.9041 22.7072 1.47598 22.0084 1.15723 21.1875C0.847852 20.3906 0.638477 19.4834 0.575977 18.1531C0.516602 16.8197 0.500977 16.3959 0.500977 13C0.500977 9.60416 0.513477 9.18021 0.575977 7.84688C0.637427 6.51562 0.847852 5.60937 1.15723 4.8125C1.47493 3.98959 1.9041 3.29271 2.59889 2.59791C3.29368 1.90312 3.9916 1.475 4.81348 1.15625C5.61035 0.846875 6.5166 0.6375 7.84785 0.575C9.18118 0.515625 9.60514 0.5 13.001 0.5Z" fill="white"/>
</svg>
