<svg width="39" height="40" viewBox="0 0 39 40" fill="none" xmlns="http://www.w3.org/2000/svg">
<path d="M9.81187 16.4154H5.14551V32.3793H9.81187V16.4154Z" fill="#C0D7FF"/>
<path d="M17.9166 16.4154H13.2502V32.3793H17.9166V16.4154Z" fill="#C0D7FF"/>
<path d="M26.0213 16.4154H21.355V32.3793H26.0213V16.4154Z" fill="#C0D7FF"/>
<path d="M34.1261 16.4154H29.4597V32.3793H34.1261V16.4154Z" fill="#C0D7FF"/>
<path d="M37.1552 34.2623H2.1165C1.3797 34.2623 0.806641 34.8763 0.806641 35.6131V38.0282C0.806641 38.765 1.42064 39.379 2.15743 39.379H37.1961C37.9329 39.379 38.5469 38.765 38.5469 38.0282V35.6131C38.465 34.8763 37.892 34.2623 37.1552 34.2623Z" fill="#C0D7FF"/>
<path d="M37.7282 9.08849L20.2089 0.615353C19.8405 0.451621 19.4312 0.451621 19.0628 0.615353L1.54344 9.08849C1.09317 9.29315 0.806641 9.78435 0.806641 10.2755V13.1818C0.806641 13.9186 1.42064 14.5326 2.15743 14.5326H37.1961C37.9329 14.5326 38.5469 13.9186 38.5469 13.1818V10.2755C38.465 9.78435 38.1785 9.29315 37.7282 9.08849ZM19.6358 10.603C18.2032 10.603 17.0161 9.41595 17.0161 7.9833C17.0161 6.55064 18.2032 5.36358 19.6358 5.36358C21.0685 5.36358 22.2555 6.55064 22.2555 7.9833C22.2555 9.41595 21.0685 10.603 19.6358 10.603Z" fill="#C0D7FF"/>
</svg>
