<svg width="25" height="24" viewBox="0 0 25 24" fill="none" xmlns="http://www.w3.org/2000/svg">
<path d="M5.67584 3.24991C5.67538 4.2678 5.05784 5.18377 4.11442 5.56591C3.17099 5.94806 2.09008 5.72006 1.38137 4.98944C0.672656 4.2588 0.477681 3.17144 0.888369 2.24009C1.29907 1.30874 2.23342 0.719374 3.25084 0.749912C4.60218 0.790474 5.67646 1.89796 5.67584 3.24991ZM5.75084 7.59991H0.750844V23.2499H5.75084V7.59991ZM13.6509 7.59991H8.67584V23.2499H13.6009V15.0374C13.6009 10.4624 19.5634 10.0374 19.5634 15.0374V23.2499H24.5009V13.3374C24.5009 5.62491 15.6759 5.91241 13.6009 9.69987L13.6509 7.59991Z" fill="white"/>
</svg>
