<svg width="1440" height="656" viewBox="0 0 1440 656" fill="none" xmlns="http://www.w3.org/2000/svg">
<g clip-path="url(#clip0_62_2177)">
<rect width="1440" height="720" fill="black"/>
<g clip-path="url(#clip1_62_2177)">
<path d="M-10.8643 662.556L-28.9951 652.694L129.441 459.746L147.564 469.616L-10.8643 662.556Z" fill="#164BA2"/>
<mask id="mask0_62_2177" style="mask-type:luminance" maskUnits="userSpaceOnUse" x="129" y="188" width="71" height="282">
<path d="M147.563 469.616L129.433 459.753C163.093 418.769 181.685 367.946 181.783 316.661C181.882 265.369 163.464 219.748 129.939 188.203L148.07 198.065C181.594 229.611 200.012 275.231 199.914 326.523C199.816 377.808 181.224 428.632 147.563 469.616Z" fill="white"/>
</mask>
<g mask="url(#mask0_62_2177)">
<path d="M147.563 469.616L129.433 459.753C133.236 455.125 136.842 450.368 140.252 445.505L158.383 455.367C154.973 460.23 151.359 464.987 147.563 469.616Z" fill="#144494"/>
<path d="M158.391 455.367L140.26 445.505C145.575 437.927 150.406 430.084 154.746 422.014L172.877 431.876C168.537 439.946 163.706 447.789 158.391 455.367Z" fill="#13428F"/>
<path d="M172.869 431.876L154.738 422.014C159.895 412.424 164.348 402.524 168.076 392.397L186.206 402.26C182.486 412.387 178.025 422.287 172.869 431.876Z" fill="#12408A"/>
<path d="M186.207 402.252L168.076 392.39C177.02 368.052 181.738 342.413 181.784 316.654C181.882 265.361 163.464 219.741 129.939 188.196L148.07 198.058C181.595 229.603 200.013 275.223 199.914 326.516C199.869 352.275 195.151 377.914 186.207 402.252Z" fill="#123D85"/>
</g>
<path d="M-93.8136 611.196L-111.944 601.326L35.8009 421.402L53.9316 431.272L-93.8136 611.196Z" fill="#164BA2"/>
<mask id="mask1_62_2177" style="mask-type:luminance" maskUnits="userSpaceOnUse" x="35" y="252" width="52" height="180">
<path d="M53.9305 431.271L35.7998 421.409C56.6902 395.974 68.2204 364.436 68.2809 332.619C68.3414 300.786 56.9171 272.478 36.1098 252.897L54.2406 262.759C75.0478 282.332 86.4722 310.641 86.4117 342.481C86.3512 374.299 74.821 405.836 53.9305 431.271Z" fill="white"/>
</mask>
<g mask="url(#mask1_62_2177)">
<path d="M53.9305 431.271L35.7998 421.409C38.1588 418.535 40.3968 415.593 42.5138 412.575L60.6445 422.437C58.5275 425.455 56.2895 428.405 53.9305 431.271Z" fill="#144494"/>
<path d="M60.6357 422.437L42.5049 412.575C45.8014 407.871 48.803 403 51.4947 397.993L69.6254 407.856C66.9338 412.862 63.9322 417.733 60.6357 422.437Z" fill="#13428F"/>
<path d="M69.6268 407.856L51.4961 397.994C54.6943 392.042 57.4616 385.9 59.7752 379.615L77.9059 389.478C75.5923 395.763 72.8326 401.904 69.6268 407.856Z" fill="#12408A"/>
<path d="M77.9063 389.478L59.7756 379.615C65.3252 364.512 68.2512 348.599 68.2815 332.619C68.3419 300.786 56.9176 272.478 36.1104 252.897L54.2411 262.759C75.0484 282.332 86.4727 310.641 86.4122 342.481C86.382 358.462 83.4559 374.374 77.9063 389.478Z" fill="#123D85"/>
</g>
<path d="M148.071 198.066L129.941 188.196L-27.8604 39.7109L-9.72957 49.5807L148.071 198.066Z" fill="#113B80"/>
<path d="M54.2416 262.76L36.1108 252.897L-111.037 114.434L-92.9139 124.296L54.2416 262.76Z" fill="#113B80"/>
<mask id="mask2_62_2177" style="mask-type:luminance" maskUnits="userSpaceOnUse" x="-201" y="-49" width="210" height="76">
<path d="M-10.0723 -32.9699L8.05846 -23.1077C-16.7863 -36.6304 -45.245 -41.1379 -73.7189 -37.1295C-112.876 -31.6236 -152.064 -10.0312 -181.929 26.3469L-200.06 16.4847C-170.194 -19.8934 -131.007 -41.4858 -91.8497 -46.9917C-63.3758 -50.9925 -34.9246 -46.485 -10.0723 -32.9699Z" fill="white"/>
</mask>
<g mask="url(#mask2_62_2177)">
</g>
<path d="M192.112 144.436C237.348 187.001 262.2 248.564 262.072 317.788C261.943 386.997 236.849 455.579 191.432 510.887L32.9954 703.835C3.12274 740.206 -36.0648 761.805 -75.2145 767.304C-114.372 772.81 -153.499 762.221 -183.243 734.231L-402.513 527.911C-420.047 511.409 -432.355 490.648 -439.531 467.755C-445.436 452.281 -448.407 435.438 -448.43 418.164C-448.339 399.885 -445.3 382.195 -439.334 365.049C-432.076 340.122 -419.684 315.897 -402.075 294.456L-181.927 26.347C-152.062 -10.0312 -112.867 -31.6236 -73.7175 -37.1295C-34.5602 -42.6353 4.55933 -32.0471 34.311 -4.04881L192.112 144.436ZM147.564 469.616C181.224 428.632 199.816 377.808 199.915 326.523C200.013 275.231 181.595 229.611 148.07 198.065L-9.73056 49.5806C-27.3774 32.9797 -50.5739 26.7024 -73.8007 29.9697C-85.7013 31.6487 -97.6171 35.8234 -108.784 42.3957C-86.8052 45.2545 -66.0054 54.5495 -48.8727 70.6663L98.2827 209.138C131.845 240.721 148.577 286.054 148.486 333.754C148.396 381.446 131.49 431.506 97.7913 472.55L-49.9615 652.474C-67.1547 673.416 -88.0074 688.573 -110.009 697.603C-98.8571 701.044 -86.9564 701.876 -75.0482 700.205C-51.829 696.937 -28.5947 684.141 -10.8798 662.563L147.556 469.616M-205.971 578.667C-194.093 576.995 -182.91 570.423 -174.495 560.183L-37.955 393.91C-29.5323 383.654 -24.8824 370.949 -24.8597 358.129C-24.837 345.295 -29.4415 333.89 -37.8264 325.994L-173.822 198.043C-182.207 190.147 -193.367 186.721 -205.245 188.392C-217.13 190.064 -228.305 196.628 -236.728 206.884L-373.26 373.149C-377.91 378.814 -381.282 385.152 -383.452 391.686C-384.36 397.396 -384.881 403.091 -384.889 408.741C-384.896 414.383 -384.397 419.942 -383.513 425.387C-381.366 431.324 -378.016 436.709 -373.389 441.065L-237.401 569.032C-229.016 576.92 -217.856 580.346 -205.971 578.674M-172.975 635.306C-163.184 639.481 -152.387 640.737 -141.583 639.216C-124.307 636.789 -107.008 627.252 -93.8216 611.195L53.9236 431.271C74.8141 405.837 86.3442 374.299 86.4047 342.481C86.4652 310.649 75.0409 282.34 54.2336 262.759L-92.9218 124.296C-106.055 111.938 -123.324 107.264 -140.608 109.699C-151.412 111.219 -162.224 115.507 -172.03 122.435C-156.576 125.695 -142.029 132.872 -129.788 144.398L6.20755 272.365C26.9543 291.885 37.2975 319.906 37.2446 349.394C37.1917 378.875 26.7426 409.815 5.90515 435.181L-130.635 601.454C-142.921 616.422 -157.506 627.698 -172.975 635.299" fill="#1E67DF"/>
</g>
<g clip-path="url(#clip2_62_2177)">
<path d="M684.58 425.644C668.211 425.644 655.104 422.328 645.276 415.695C635.439 409.062 629.651 399.734 627.928 387.737H659.796C662.941 396.745 671.047 401.246 684.112 401.246C702.054 401.246 711.029 392.791 711.029 375.89V362.625H710.318C701.97 372.103 691.431 376.839 678.683 376.839C664.363 376.839 651.892 371.549 641.269 360.962C630.646 350.383 625.335 336.32 625.335 318.781C625.335 301.242 630.211 286.356 639.973 275.534C649.726 264.712 662.323 259.305 677.747 259.305C693.171 259.305 703.559 264.678 711.271 275.417H711.74V262.621H742.663V374.933C742.663 390.725 737.862 403.051 728.259 411.9C718.498 421.06 703.944 425.644 684.589 425.644H684.58ZM684.112 350.996C693.706 350.996 700.874 347.915 705.592 341.752C710.318 335.59 712.676 327.689 712.676 318.051C712.676 308.412 710.201 300.713 705.24 294.475C700.28 288.237 693.162 285.114 683.878 285.114C675.689 285.114 669.123 288.12 664.163 294.114C659.203 300.117 656.727 308.177 656.727 318.286C656.727 328.395 659.203 336.572 664.163 342.34C669.123 348.108 675.764 350.988 684.112 350.988V350.996Z" fill="white"/>
<path d="M789.637 262.613V282.041H790.348C794.129 274.93 798.294 269.682 802.861 266.282C807.428 262.89 813.166 261.186 820.092 261.186C823.396 261.186 825.914 261.505 827.645 262.135V290.336H826.934C816.077 289.236 807.336 291.604 800.728 297.448C794.121 303.291 790.817 312.459 790.817 324.936V384.177H758.714V262.613H789.637Z" fill="white"/>
<path d="M909.567 384.177C907.994 382.128 906.731 377.62 905.786 370.668H905.318C901.855 375.882 897.447 379.912 892.093 382.749C886.74 385.596 879.262 387.014 869.668 387.014C856.921 387.014 846.691 383.782 838.979 377.3C831.267 370.827 827.411 361.659 827.411 349.812C827.411 337.966 831.66 328.445 840.159 322.677C848.657 316.909 860.618 312.929 876.042 310.713C887.376 309.134 895.079 307.514 899.178 305.852C903.268 304.189 905.318 301.234 905.318 296.969C905.318 292.704 903.586 289.026 900.123 286.424C896.66 283.821 891.625 282.511 885.017 282.511C870.379 282.511 862.592 288.195 861.647 299.571H833.082C833.551 288.044 838.193 278.481 847.009 270.9C855.825 263.318 868.573 259.523 885.251 259.523C919.244 259.523 936.241 274.451 936.241 304.307V366.151C936.241 375.319 937.655 380.927 940.49 382.976V384.16H909.567V384.177ZM877.464 364.505C886.28 364.505 893.239 362.221 898.358 357.629C903.469 353.045 906.029 347.596 906.029 341.282V323.038C902.566 325.095 895.088 327.463 883.603 330.149C874.478 332.206 868.02 334.532 864.248 337.143C860.467 339.746 858.585 343.742 858.585 349.107C858.585 359.375 864.875 364.514 877.472 364.514L877.464 364.505Z" fill="white"/>
<path d="M951.815 423.981V262.613H982.739V277.776H983.45C992.425 265.451 1004.3 259.288 1019.1 259.288C1034.99 259.288 1047.74 265.216 1057.34 277.062C1066.94 288.909 1071.74 304.391 1071.74 323.508C1071.74 342.625 1066.94 358.695 1057.34 370.307C1047.74 381.918 1035.07 387.72 1019.33 387.72C1003.6 387.72 991.948 381.952 984.395 370.424H983.927V423.981H951.824H951.815ZM1012.49 360.945C1020.67 360.945 1027.16 357.713 1031.96 351.231C1036.76 344.758 1039.17 335.833 1039.17 324.457C1039.17 312.291 1036.88 302.737 1032.31 295.785C1027.75 288.833 1020.75 285.357 1011.3 285.357C1001.86 285.357 994.616 288.951 990.058 296.138C985.491 303.324 983.207 312.77 983.207 324.457C983.207 336.144 985.725 344.565 990.76 351.114C995.796 357.671 1003.04 360.945 1012.48 360.945H1012.49Z" fill="white"/>
<path d="M1114 214.748V278.49H1114.71C1119.28 271.857 1124.27 266.996 1129.7 263.915C1135.13 260.833 1141.86 259.297 1149.89 259.297C1162.31 259.297 1172.39 263.528 1180.11 271.975C1187.82 280.429 1191.67 291.369 1191.67 304.794V384.177H1159.56V309.529C1159.56 302.897 1157.71 297.523 1154.02 293.418C1150.32 289.312 1145.16 287.255 1138.55 287.255C1131.47 287.255 1125.6 289.858 1120.96 295.072C1116.32 300.285 1113.99 307.002 1113.99 315.213V384.169H1081.89V214.748H1113.99H1114Z" fill="white"/>
<path d="M1204.89 384.177V349.821H1239.36V384.177H1204.89Z" fill="white"/>
<path d="M569.329 293.375L496.132 219.912C490.276 214.034 483.342 209.904 475.957 207.494C470.93 205.504 465.601 204.497 460.265 204.48C460.164 204.48 460.064 204.48 459.964 204.48C454.627 204.497 449.299 205.504 444.272 207.486C436.895 209.895 429.952 214.026 424.097 219.903L350.9 293.375C331.043 313.307 331.043 345.749 350.9 365.681L403.579 418.558C418.677 433.712 438.76 442.066 460.114 442.066C481.469 442.066 501.552 433.721 516.65 418.558L569.32 365.681C589.178 345.749 589.178 313.307 569.32 293.375H569.329ZM404.24 275.165L449.634 229.6C451.181 228.047 452.988 226.931 454.912 226.208C456.635 225.906 458.374 225.738 460.114 225.738C461.854 225.738 463.594 225.906 465.317 226.208C467.241 226.931 469.048 228.056 470.595 229.6L515.989 275.165C518.791 277.977 520.33 281.705 520.33 285.685C520.33 289.664 518.791 293.392 515.989 296.205L470.595 341.769C467.793 344.582 464.079 346.127 460.114 346.127C456.15 346.127 452.436 344.582 449.634 341.769L404.24 296.205C401.438 293.392 399.899 289.664 399.899 285.685C399.899 281.705 401.438 277.977 404.24 275.165ZM380.987 296.751C382.66 301.922 385.512 306.792 389.594 310.898L434.987 356.462C441.913 363.414 451.014 366.89 460.106 366.89C469.198 366.89 478.299 363.414 485.224 356.462L530.618 310.898C534.708 306.792 537.552 301.922 539.225 296.751C543.675 305.264 542.345 316.061 535.219 323.214L486.094 372.523C479.152 379.492 469.917 383.329 460.098 383.329C450.278 383.329 441.043 379.492 434.101 372.523L384.976 323.214C377.85 316.061 376.52 305.272 380.97 296.751H380.987ZM554.683 350.988L502.012 403.865C490.82 415.099 475.94 421.287 460.114 421.287C444.289 421.287 429.408 415.099 418.217 403.865L365.538 350.988C356.629 342.046 354.463 328.865 359.022 317.849C360.853 325.204 364.626 332.164 370.347 337.907L419.471 387.216C430.68 398.467 445.393 404.083 460.114 404.083C474.836 404.083 489.549 398.458 500.757 387.216L549.881 337.907C555.603 332.164 559.367 325.204 561.207 317.849C565.766 328.865 563.608 342.038 554.691 350.988H554.683Z" fill="white"/>
</g>
<path d="M632.627 505.704V467.166H658.768V471.424H637.478V483.444H655.21V487.54H637.478V505.704H632.627ZM663.14 505.704V477.838H667.506V505.704H663.14ZM663.14 472.556V467.166H667.506V472.556H663.14ZM677.823 477.838V481.503H677.93C680.086 478.629 683.033 477.192 686.77 477.192C689.716 477.192 692.016 477.964 693.669 479.509C695.322 481.054 696.148 483.264 696.148 486.139V505.704H691.782V486.516C691.782 484.719 691.226 483.336 690.112 482.366C688.998 481.36 687.453 480.857 685.476 480.857C683.248 480.857 681.416 481.575 679.979 483.013C678.541 484.45 677.823 486.3 677.823 488.564V505.704H673.457V477.838H677.823ZM723.816 505.974C721.049 505.974 719.45 504.59 719.019 501.823H718.965C716.665 504.77 713.575 506.243 709.694 506.243C706.927 506.243 704.664 505.578 702.903 504.249C701.142 502.919 700.262 500.997 700.262 498.482C700.262 497.188 700.46 496.074 700.855 495.14C701.286 494.17 701.825 493.397 702.472 492.822C703.119 492.211 703.999 491.69 705.113 491.259C706.263 490.792 707.359 490.451 708.401 490.235C709.443 489.984 710.772 489.732 712.389 489.481C713.431 489.337 714.168 489.229 714.599 489.157C715.066 489.049 715.659 488.906 716.378 488.726C717.096 488.51 717.599 488.277 717.887 488.025C718.174 487.774 718.444 487.432 718.695 487.001C718.947 486.57 719.073 486.067 719.073 485.492C719.073 483.911 718.516 482.707 717.402 481.881C716.324 481.018 714.797 480.587 712.82 480.587C708.329 480.587 706.011 482.635 705.867 486.732H701.663C701.735 483.893 702.705 481.611 704.574 479.887C706.478 478.162 709.209 477.299 712.766 477.299C719.63 477.299 723.061 480.246 723.061 486.139V499.398C723.061 500.62 723.259 501.482 723.654 501.985C724.085 502.488 724.876 502.614 726.026 502.362H726.187V505.542C725.469 505.83 724.678 505.974 723.816 505.974ZM710.664 502.901C713.359 502.901 715.443 502.129 716.917 500.584C718.39 499.003 719.127 497.278 719.127 495.409V490.666C717.797 491.493 715.677 492.175 712.766 492.714C711.688 492.93 710.844 493.11 710.233 493.253C709.622 493.361 708.922 493.577 708.131 493.9C707.341 494.188 706.748 494.511 706.352 494.87C705.957 495.23 705.616 495.715 705.328 496.326C705.041 496.901 704.897 497.583 704.897 498.374C704.897 501.392 706.82 502.901 710.664 502.901ZM733.774 477.838V481.503H733.882C736.038 478.629 738.985 477.192 742.722 477.192C745.668 477.192 747.968 477.964 749.621 479.509C751.274 481.054 752.1 483.264 752.1 486.139V505.704H747.734V486.516C747.734 484.719 747.177 483.336 746.063 482.366C744.949 481.36 743.404 480.857 741.428 480.857C739.2 480.857 737.368 481.575 735.93 483.013C734.493 484.45 733.774 486.3 733.774 488.564V505.704H729.409V477.838H733.774ZM769.796 506.459C765.736 506.459 762.466 505.057 759.987 502.255C757.543 499.452 756.321 495.966 756.321 491.798C756.321 487.63 757.543 484.145 759.987 481.342C762.466 478.539 765.736 477.138 769.796 477.138C773.066 477.138 775.743 478.018 777.827 479.779C779.911 481.503 781.205 483.857 781.708 486.839H777.288C776.965 484.935 776.156 483.444 774.863 482.366C773.569 481.288 771.88 480.749 769.796 480.749C766.922 480.749 764.694 481.791 763.113 483.875C761.568 485.959 760.795 488.6 760.795 491.798C760.795 494.996 761.568 497.637 763.113 499.721C764.694 501.769 766.922 502.794 769.796 502.794C772.024 502.794 773.803 502.201 775.132 501.015C776.462 499.793 777.216 498.086 777.396 495.894H781.708C781.42 499.236 780.235 501.841 778.15 503.71C776.066 505.542 773.282 506.459 769.796 506.459ZM797.746 506.459C793.613 506.459 790.326 505.075 787.882 502.308C785.475 499.506 784.271 496.002 784.271 491.798C784.271 487.666 785.493 484.198 787.936 481.396C790.415 478.557 793.595 477.138 797.476 477.138C801.573 477.138 804.735 478.575 806.962 481.45C809.19 484.288 810.304 488.079 810.304 492.822H788.745C788.924 495.769 789.787 498.176 791.332 500.045C792.913 501.877 795.051 502.794 797.746 502.794C801.914 502.794 804.483 500.889 805.453 497.08H809.711C809.064 500.063 807.699 502.38 805.615 504.033C803.531 505.65 800.908 506.459 797.746 506.459ZM803.297 482.959C801.896 481.378 799.956 480.587 797.476 480.587C794.997 480.587 793.021 481.414 791.547 483.067C790.11 484.719 789.212 486.875 788.852 489.534H805.615C805.471 486.732 804.699 484.54 803.297 482.959ZM854.899 500.853C851.486 504.626 846.922 506.513 841.209 506.513C835.496 506.513 830.914 504.626 827.465 500.853C824.051 497.08 822.344 492.265 822.344 486.408C822.344 480.551 824.051 475.736 827.465 471.963C830.914 468.19 835.496 466.304 841.209 466.304C846.922 466.304 851.486 468.19 854.899 471.963C858.349 475.736 860.073 480.551 860.073 486.408C860.073 492.265 858.349 497.08 854.899 500.853ZM830.968 497.835C833.411 500.781 836.825 502.255 841.209 502.255C845.593 502.255 849.006 500.781 851.45 497.835C853.893 494.888 855.115 491.08 855.115 486.408C855.115 481.737 853.893 477.928 851.45 474.982C849.006 471.999 845.593 470.508 841.209 470.508C836.825 470.508 833.411 471.999 830.968 474.982C828.525 477.928 827.303 481.737 827.303 486.408C827.303 491.08 828.525 494.888 830.968 497.835ZM879.869 506.459C874.695 506.459 870.706 505.183 867.904 502.632C865.137 500.081 863.646 496.757 863.43 492.661H868.173C868.82 499.272 872.79 502.578 880.085 502.578C882.852 502.578 885.061 501.967 886.714 500.745C888.403 499.488 889.248 497.691 889.248 495.356C889.248 494.313 889.05 493.397 888.655 492.607C888.259 491.816 887.774 491.169 887.199 490.666C886.66 490.163 885.834 489.696 884.72 489.265C883.606 488.834 882.564 488.492 881.594 488.241C880.66 487.989 879.366 487.684 877.713 487.325C875.737 486.893 874.102 486.462 872.808 486.031C871.515 485.564 870.221 484.935 868.928 484.145C867.634 483.354 866.664 482.348 866.017 481.126C865.406 479.869 865.101 478.359 865.101 476.599C865.101 473.437 866.287 470.957 868.658 469.161C871.066 467.328 874.246 466.412 878.198 466.412C886.858 466.412 891.727 470.418 892.805 478.431H888.223C887.864 475.7 886.84 473.652 885.151 472.287C883.462 470.885 881.181 470.185 878.306 470.185C875.647 470.185 873.527 470.724 871.946 471.802C870.401 472.88 869.628 474.407 869.628 476.383C869.628 477.245 869.79 478.018 870.113 478.701C870.473 479.348 870.922 479.904 871.461 480.372C872.036 480.803 872.772 481.198 873.671 481.557C874.605 481.917 875.521 482.222 876.42 482.474C877.318 482.689 878.414 482.923 879.707 483.174C881.504 483.534 882.977 483.875 884.127 484.198C885.277 484.486 886.553 484.935 887.954 485.546C889.355 486.157 890.433 486.857 891.188 487.648C891.978 488.438 892.643 489.481 893.182 490.774C893.757 492.032 894.045 493.505 894.045 495.194C894.045 498.715 892.733 501.482 890.11 503.494C887.523 505.471 884.109 506.459 879.869 506.459ZM905.749 481.396V477.838H909.576V473.365C909.576 471.065 910.205 469.412 911.462 468.406C912.72 467.364 914.553 466.843 916.96 466.843C917.643 466.843 918.379 466.879 919.17 466.951V470.67C918.667 470.634 918.2 470.616 917.769 470.616C916.367 470.616 915.379 470.831 914.804 471.263C914.229 471.694 913.942 472.466 913.942 473.58V477.838H919.116V481.396H913.942V505.704H909.576V481.396H905.749ZM944.249 502.255C941.805 505.057 938.554 506.459 934.493 506.459C930.433 506.459 927.163 505.057 924.684 502.255C922.24 499.452 921.018 495.966 921.018 491.798C921.018 487.63 922.24 484.145 924.684 481.342C927.163 478.539 930.433 477.138 934.493 477.138C938.554 477.138 941.805 478.539 944.249 481.342C946.692 484.145 947.914 487.63 947.914 491.798C947.914 495.966 946.692 499.452 944.249 502.255ZM927.81 499.721C929.391 501.769 931.619 502.794 934.493 502.794C937.368 502.794 939.578 501.769 941.123 499.721C942.668 497.637 943.44 494.996 943.44 491.798C943.44 488.564 942.65 485.923 941.069 483.875C939.524 481.791 937.332 480.749 934.493 480.749C931.619 480.749 929.391 481.791 927.81 483.875C926.265 485.959 925.492 488.6 925.492 491.798C925.492 494.996 926.265 497.637 927.81 499.721ZM956.634 477.838V482.474H956.742C957.64 481 958.808 479.815 960.245 478.916C961.682 477.982 963.281 477.515 965.042 477.515C965.689 477.515 966.282 477.623 966.821 477.838V482.042H966.659C966.12 481.863 965.473 481.773 964.719 481.773C962.491 481.773 960.586 482.563 959.005 484.145C957.424 485.69 956.634 487.72 956.634 490.235V505.704H952.268V477.838H956.634ZM979.97 505.704V467.166H996.301C1000.36 467.166 1003.45 468.28 1005.57 470.508C1007.22 472.233 1008.05 474.425 1008.05 477.084C1008.05 481.18 1005.98 483.875 1001.85 485.169V485.33C1004.15 485.869 1006.02 486.947 1007.46 488.564C1008.9 490.145 1009.61 492.175 1009.61 494.655C1009.61 497.601 1008.68 500.063 1006.81 502.039C1004.55 504.482 1001.33 505.704 997.163 505.704H979.97ZM984.82 501.338H996.948C999.607 501.338 1001.62 500.692 1002.98 499.398C1004.13 498.176 1004.71 496.685 1004.71 494.924C1004.71 492.589 1003.97 490.81 1002.5 489.588C1001.03 488.367 999.068 487.756 996.624 487.756H984.82V501.338ZM984.82 483.659H995.708C998.044 483.659 999.876 483.102 1001.21 481.989C1002.54 480.875 1003.2 479.33 1003.2 477.353C1003.2 475.485 1002.59 474.029 1001.37 472.987C1000.18 471.909 998.511 471.37 996.355 471.37H984.82V483.659ZM1036.11 505.704H1031.74V501.877H1031.63C1029.44 504.86 1026.64 506.351 1023.23 506.351C1020.35 506.351 1018.07 505.542 1016.38 503.925C1014.69 502.273 1013.85 500.009 1013.85 497.134V477.838H1018.21V497.026C1018.21 498.823 1018.75 500.224 1019.83 501.23C1020.94 502.237 1022.49 502.74 1024.47 502.74C1026.66 502.74 1028.42 502.003 1029.75 500.53C1031.08 499.057 1031.74 497.206 1031.74 494.978V477.838H1036.11V505.704ZM1052.58 506.513C1048.77 506.513 1045.8 505.668 1043.68 503.979C1041.6 502.255 1040.45 499.811 1040.23 496.649H1044.71C1045.21 500.781 1047.87 502.847 1052.68 502.847C1054.88 502.847 1056.49 502.434 1057.53 501.608C1058.61 500.745 1059.15 499.631 1059.15 498.266C1059.15 496.793 1058.63 495.733 1057.59 495.086C1056.55 494.439 1054.64 493.828 1051.88 493.253C1050.73 493.002 1049.81 492.804 1049.13 492.661C1048.48 492.481 1047.69 492.247 1046.75 491.96C1045.82 491.636 1045.08 491.295 1044.55 490.936C1044.04 490.541 1043.52 490.073 1042.98 489.534C1042.44 488.995 1042.05 488.331 1041.8 487.54C1041.58 486.75 1041.47 485.869 1041.47 484.899C1041.47 482.528 1042.34 480.659 1044.06 479.294C1045.82 477.928 1048.3 477.245 1051.5 477.245C1058.11 477.245 1061.76 480.156 1062.44 485.977H1057.97C1057.75 484.145 1057.12 482.815 1056.08 481.989C1055.04 481.126 1053.47 480.695 1051.39 480.695C1049.49 480.695 1048.07 481.072 1047.13 481.827C1046.23 482.546 1045.78 483.498 1045.78 484.684C1045.78 486.049 1046.32 487.019 1047.4 487.594C1048.48 488.133 1050.44 488.69 1053.28 489.265C1055 489.624 1056.35 489.966 1057.32 490.289C1058.33 490.576 1059.37 491.044 1060.45 491.69C1061.52 492.301 1062.31 493.128 1062.82 494.17C1063.32 495.212 1063.57 496.505 1063.57 498.05C1063.57 500.781 1062.57 502.883 1060.55 504.357C1058.54 505.794 1055.88 506.513 1052.58 506.513ZM1067.75 505.704V477.838H1072.12V505.704H1067.75ZM1067.75 472.556V467.166H1072.12V472.556H1067.75ZM1082.43 477.838V481.503H1082.54C1084.7 478.629 1087.64 477.192 1091.38 477.192C1094.33 477.192 1096.63 477.964 1098.28 479.509C1099.93 481.054 1100.76 483.264 1100.76 486.139V505.704H1096.39V486.516C1096.39 484.719 1095.84 483.336 1094.72 482.366C1093.61 481.36 1092.06 480.857 1090.09 480.857C1087.86 480.857 1086.03 481.575 1084.59 483.013C1083.15 484.45 1082.43 486.3 1082.43 488.564V505.704H1078.07V477.838H1082.43ZM1118.45 506.459C1114.32 506.459 1111.03 505.075 1108.59 502.308C1106.18 499.506 1104.98 496.002 1104.98 491.798C1104.98 487.666 1106.2 484.198 1108.65 481.396C1111.12 478.557 1114.3 477.138 1118.19 477.138C1122.28 477.138 1125.44 478.575 1127.67 481.45C1129.9 484.288 1131.01 488.079 1131.01 492.822H1109.45C1109.63 495.769 1110.5 498.176 1112.04 500.045C1113.62 501.877 1115.76 502.794 1118.45 502.794C1122.62 502.794 1125.19 500.889 1126.16 497.08H1130.42C1129.77 500.063 1128.41 502.38 1126.32 504.033C1124.24 505.65 1121.62 506.459 1118.45 506.459ZM1124.01 482.959C1122.61 481.378 1120.66 480.587 1118.19 480.587C1115.71 480.587 1113.73 481.414 1112.26 483.067C1110.82 484.719 1109.92 486.875 1109.56 489.534H1126.32C1126.18 486.732 1125.41 484.54 1124.01 482.959ZM1145.85 506.513C1142.04 506.513 1139.07 505.668 1136.95 503.979C1134.87 502.255 1133.72 499.811 1133.5 496.649H1137.98C1138.48 500.781 1141.14 502.847 1145.95 502.847C1148.15 502.847 1149.76 502.434 1150.81 501.608C1151.88 500.745 1152.42 499.631 1152.42 498.266C1152.42 496.793 1151.9 495.733 1150.86 495.086C1149.82 494.439 1147.91 493.828 1145.15 493.253C1144 493.002 1143.08 492.804 1142.4 492.661C1141.75 492.481 1140.96 492.247 1140.03 491.96C1139.09 491.636 1138.35 491.295 1137.82 490.936C1137.31 490.541 1136.79 490.073 1136.25 489.534C1135.71 488.995 1135.32 488.331 1135.07 487.54C1134.85 486.75 1134.74 485.869 1134.74 484.899C1134.74 482.528 1135.61 480.659 1137.33 479.294C1139.09 477.928 1141.57 477.245 1144.77 477.245C1151.38 477.245 1155.03 480.156 1155.71 485.977H1151.24C1151.02 484.145 1150.39 482.815 1149.35 481.989C1148.31 481.126 1146.74 480.695 1144.66 480.695C1142.76 480.695 1141.34 481.072 1140.4 481.827C1139.5 482.546 1139.06 483.498 1139.06 484.684C1139.06 486.049 1139.59 487.019 1140.67 487.594C1141.75 488.133 1143.71 488.69 1146.55 489.265C1148.27 489.624 1149.62 489.966 1150.59 490.289C1151.6 490.576 1152.64 491.044 1153.72 491.69C1154.79 492.301 1155.58 493.128 1156.09 494.17C1156.59 495.212 1156.84 496.505 1156.84 498.05C1156.84 500.781 1155.84 502.883 1153.82 504.357C1151.81 505.794 1149.15 506.513 1145.85 506.513ZM1171.59 506.513C1167.78 506.513 1164.81 505.668 1162.69 503.979C1160.61 502.255 1159.46 499.811 1159.24 496.649H1163.72C1164.22 500.781 1166.88 502.847 1171.69 502.847C1173.88 502.847 1175.5 502.434 1176.54 501.608C1177.62 500.745 1178.16 499.631 1178.16 498.266C1178.16 496.793 1177.64 495.733 1176.6 495.086C1175.56 494.439 1173.65 493.828 1170.88 493.253C1169.73 493.002 1168.82 492.804 1168.14 492.661C1167.49 492.481 1166.7 492.247 1165.76 491.96C1164.83 491.636 1164.09 491.295 1163.55 490.936C1163.05 490.541 1162.53 490.073 1161.99 489.534C1161.45 488.995 1161.06 488.331 1160.81 487.54C1160.59 486.75 1160.48 485.869 1160.48 484.899C1160.48 482.528 1161.34 480.659 1163.07 479.294C1164.83 477.928 1167.31 477.245 1170.51 477.245C1177.12 477.245 1180.77 480.156 1181.45 485.977H1176.98C1176.76 484.145 1176.13 482.815 1175.09 481.989C1174.05 481.126 1172.48 480.695 1170.4 480.695C1168.5 480.695 1167.08 481.072 1166.14 481.827C1165.24 482.546 1164.79 483.498 1164.79 484.684C1164.79 486.049 1165.33 487.019 1166.41 487.594C1167.49 488.133 1169.45 488.69 1172.29 489.265C1174.01 489.624 1175.36 489.966 1176.33 490.289C1177.33 490.576 1178.38 491.044 1179.45 491.69C1180.53 492.301 1181.32 493.128 1181.83 494.17C1182.33 495.212 1182.58 496.505 1182.58 498.05C1182.58 500.781 1181.57 502.883 1179.56 504.357C1177.55 505.794 1174.89 506.513 1171.59 506.513ZM1199.2 506.459C1195.07 506.459 1191.78 505.075 1189.33 502.308C1186.93 499.506 1185.72 496.002 1185.72 491.798C1185.72 487.666 1186.94 484.198 1189.39 481.396C1191.87 478.557 1195.05 477.138 1198.93 477.138C1203.02 477.138 1206.19 478.575 1208.41 481.45C1210.64 484.288 1211.76 488.079 1211.76 492.822H1190.2C1190.38 495.769 1191.24 498.176 1192.78 500.045C1194.37 501.877 1196.5 502.794 1199.2 502.794C1203.37 502.794 1205.94 500.889 1206.91 497.08H1211.16C1210.52 500.063 1209.15 502.38 1207.07 504.033C1204.98 505.65 1202.36 506.459 1199.2 506.459ZM1204.75 482.959C1203.35 481.378 1201.41 480.587 1198.93 480.587C1196.45 480.587 1194.47 481.414 1193 483.067C1191.56 484.719 1190.66 486.875 1190.3 489.534H1207.07C1206.92 486.732 1206.15 484.54 1204.75 482.959ZM1226.59 506.513C1222.78 506.513 1219.82 505.668 1217.7 503.979C1215.61 502.255 1214.46 499.811 1214.25 496.649H1218.72C1219.22 500.781 1221.88 502.847 1226.7 502.847C1228.89 502.847 1230.51 502.434 1231.55 501.608C1232.63 500.745 1233.17 499.631 1233.17 498.266C1233.17 496.793 1232.64 495.733 1231.6 495.086C1230.56 494.439 1228.66 493.828 1225.89 493.253C1224.74 493.002 1223.82 492.804 1223.14 492.661C1222.49 492.481 1221.7 492.247 1220.77 491.96C1219.83 491.636 1219.1 491.295 1218.56 490.936C1218.06 490.541 1217.53 490.073 1217 489.534C1216.46 488.995 1216.06 488.331 1215.81 487.54C1215.59 486.75 1215.49 485.869 1215.49 484.899C1215.49 482.528 1216.35 480.659 1218.07 479.294C1219.83 477.928 1222.31 477.245 1225.51 477.245C1232.12 477.245 1235.77 480.156 1236.45 485.977H1231.98C1231.76 484.145 1231.14 482.815 1230.09 481.989C1229.05 481.126 1227.49 480.695 1225.4 480.695C1223.5 480.695 1222.08 481.072 1221.15 481.827C1220.25 482.546 1219.8 483.498 1219.8 484.684C1219.8 486.049 1220.34 487.019 1221.42 487.594C1222.49 488.133 1224.45 488.69 1227.29 489.265C1229.01 489.624 1230.36 489.966 1231.33 490.289C1232.34 490.576 1233.38 491.044 1234.46 491.69C1235.54 492.301 1236.33 493.128 1236.83 494.17C1237.33 495.212 1237.58 496.505 1237.58 498.05C1237.58 500.781 1236.58 502.883 1234.57 504.357C1232.55 505.794 1229.9 506.513 1226.59 506.513Z" fill="white"/>
</g>
<defs>
<clipPath id="clip0_62_2177">
<rect width="1440" height="720" fill="white"/>
</clipPath>
<clipPath id="clip1_62_2177">
<rect width="728.64" height="817.109" fill="white" transform="translate(-466.56 -48.3982)"/>
</clipPath>
<clipPath id="clip2_62_2177">
<rect width="903.36" height="237.586" fill="white" transform="translate(336 204.48)"/>
</clipPath>
</defs>
</svg>
