<svg width="289" height="264" viewBox="0 0 289 264" fill="none" xmlns="http://www.w3.org/2000/svg">
<g clip-path="url(#clip0_593_10094)">
<path opacity="0.15" d="M4.09101 210.925L92.1541 261.765C97.8756 265.068 107.877 264.653 114.484 260.837L282.557 163.804C289.163 159.988 289.884 154.217 284.162 150.908L196.099 100.068C190.378 96.7643 180.376 97.1795 173.769 100.996L5.69693 198.035C-0.909943 201.851 -1.63047 207.622 4.09101 210.931V210.925Z" fill="black"/>
<path d="M288.022 129.781V145.595C288.022 148.13 286.171 150.804 282.55 152.886L114.484 249.919C107.877 253.736 97.8756 254.145 92.1541 250.841L4.09102 200.008C1.67909 198.615 0.409004 196.777 0.250244 194.842V179.027C0.409004 180.968 1.67909 182.8 4.09102 184.193L7.41888 186.116L92.148 235.039C97.8756 238.342 107.871 237.933 114.478 234.11L280.828 138.067L282.557 137.071C286.171 134.983 288.028 132.315 288.028 129.781H288.022Z" fill="black"/>
<path d="M4.09101 184.193L92.1541 235.033C97.8756 238.336 107.877 237.921 114.484 234.104L282.557 137.071C289.163 133.255 289.884 127.485 284.162 124.175L196.099 73.3353C190.378 70.0319 180.376 70.4471 173.769 74.2634L5.69693 171.296C-0.909943 175.113 -1.63047 180.883 4.09101 184.193Z" fill="#C0D7FF" stroke="black" stroke-width="0.373386" stroke-linecap="round" stroke-linejoin="round"/>
<path d="M8.42052 184.302L92.3192 232.742C97.772 235.893 107.298 235.496 113.593 231.863L279.351 136.302C285.646 132.668 286.33 127.167 280.878 124.016L196.979 75.5758C191.526 72.425 182 72.8219 175.705 76.4551L9.94706 172.017C3.65161 175.65 2.96772 181.151 8.42052 184.302Z" fill="white"/>
<path opacity="0.15" d="M46.8466 195.782C56.65 195.782 64.5972 191.195 64.5972 185.536C64.5972 179.877 56.65 175.29 46.8466 175.29C37.0432 175.29 29.0959 179.877 29.0959 185.536C29.0959 191.195 37.0432 195.782 46.8466 195.782Z" fill="black"/>
<path d="M66.6 176.419V172.786H65.5558C64.6155 171.168 63.0523 169.642 60.8174 168.353C53.0992 163.896 40.5938 163.896 32.8756 168.353C30.6408 169.642 29.0776 171.168 28.1372 172.786H27.0931V176.389C27.0809 179.32 29.0043 182.251 32.8756 184.486C40.5877 188.943 53.0992 188.943 60.8174 184.486C64.6765 182.257 66.6061 179.338 66.6061 176.419H66.6Z" fill="black"/>
<path d="M46.8465 184.193C57.756 184.193 66.5999 179.086 66.5999 172.786C66.5999 166.487 57.756 161.38 46.8465 161.38C35.9369 161.38 27.093 166.487 27.093 172.786C27.093 179.086 35.9369 184.193 46.8465 184.193Z" fill="#2276FF" stroke="black" stroke-width="0.373386" stroke-miterlimit="10"/>
<path d="M41.9249 166.924L52.4519 166.949C53.2946 166.949 54.0884 167.071 54.7967 167.279C55.3035 167.407 55.7553 167.59 56.1461 167.81C56.1522 167.81 56.1584 167.816 56.1706 167.822C56.5553 168.048 56.8667 168.31 57.0865 168.597C57.4468 169.007 57.6544 169.465 57.6544 169.947L57.691 176.023C57.7032 177.671 55.389 179.008 52.5313 179.002L44.9535 178.984C42.7798 178.984 40.7342 178.489 39.1954 177.598C37.6567 176.706 36.8018 175.528 36.7957 174.276L36.7713 169.904C36.7591 168.255 39.0733 166.918 41.931 166.924H41.9249ZM55.1386 173.055L55.1142 169.287C55.1142 169.159 55.0654 169.037 54.9738 168.927C54.87 168.842 54.76 168.762 54.6318 168.689C54.5036 168.616 54.3693 168.549 54.2227 168.494C54.0334 168.445 53.8197 168.414 53.5999 168.414L47.0724 168.402C46.6694 168.402 46.2908 168.494 46.0099 168.652C45.729 168.811 45.5703 169.037 45.5703 169.269L45.5947 173.037C45.5947 173.269 45.7535 173.488 46.0404 173.653C46.3274 173.818 46.706 173.91 47.109 173.91L53.6365 173.922C54.0395 173.922 54.4181 173.83 54.699 173.672C54.9799 173.513 55.1386 173.287 55.1386 173.055ZM55.273 174.911C54.7845 175.052 54.2288 175.137 53.6426 175.137L47.1151 175.125C46.1198 175.125 45.2161 174.887 44.5566 174.508C43.8972 174.13 43.4942 173.604 43.4881 173.031L43.4636 169.263C43.4636 168.921 43.6041 168.604 43.8544 168.323C42.9263 168.488 42.2485 168.988 42.2546 169.581L42.279 173.659C42.279 174.233 42.6759 174.777 43.3843 175.186C44.0926 175.595 45.0329 175.821 46.0343 175.821L53.0992 175.833C54.125 175.833 54.9921 175.449 55.2791 174.911H55.273ZM38.8657 169.91L38.8901 174.282C38.8901 175.21 39.5252 176.084 40.6731 176.743C41.815 177.403 43.3293 177.769 44.9413 177.769L52.5191 177.787C53.8014 177.787 54.8944 177.335 55.3523 176.694C54.6929 176.92 53.9235 177.048 53.1053 177.048L46.0404 177.036C44.4284 177.036 42.9629 176.651 41.9066 176.041C40.8441 175.43 40.1846 174.581 40.1785 173.653L40.1541 169.574C40.1541 169.098 40.3739 168.658 40.7708 168.274C39.6534 168.536 38.8718 169.171 38.8779 169.91H38.8657Z" fill="white"/>
<path opacity="0.15" d="M228.022 138.158L112.714 204.727C103.841 209.857 89.3149 209.857 80.4426 204.727L80.2777 204.63C71.4055 199.501 71.4055 191.111 80.2777 185.988L195.587 119.418C196.643 118.802 198.316 118.777 199.311 119.351L228.151 136.003C229.146 136.577 229.091 137.541 228.035 138.152L228.022 138.158Z" fill="black"/>
<path d="M229.939 47.4695L237.151 51.6278V64.1149L229.939 59.9505V47.4695Z" fill="white" stroke="black" stroke-width="0.373386" stroke-miterlimit="10"/>
<path d="M224.414 17.3598L201.1 30.8178V3.90182C201.1 2.67448 200.294 1.21511 199.299 0.641131C198.304 0.0671516 196.637 0.0976824 195.574 0.708299L80.2715 67.2838C75.814 69.8545 73.5913 73.2312 73.5913 76.6018V188.98C73.5913 192.35 75.8201 195.727 80.2715 198.298L80.4363 198.395C89.3513 203.543 103.799 203.543 112.714 198.395L228.022 131.82C229.079 131.209 229.946 129.713 229.946 128.492V18.3307C229.946 18.3307 229.048 17.8117 228.144 17.2926C227.149 16.7187 225.482 16.7492 224.42 17.3598H224.414Z" fill="#2276FF" stroke="black" stroke-width="0.373386" stroke-miterlimit="10"/>
<path d="M80.2709 85.9137C71.3986 80.7906 71.3986 72.4008 80.2709 67.2777L195.58 0.708299C196.642 0.0976825 198.309 0.0671516 199.304 0.641131C200.3 1.21511 200.245 2.17988 199.188 2.7905L87.0976 67.5036C86.0351 68.1142 84.3071 69.0973 83.324 69.8301C78.1215 73.738 77.6513 78.9466 82.1333 82.6286C83.0797 83.4102 84.82 84.3933 85.9496 84.8634C92.3794 87.5501 101.588 87.2815 108.433 84.1918C109.55 83.6911 111.266 82.6896 112.328 82.0729L224.413 17.3598C225.475 16.7492 227.142 16.7187 228.138 17.2926C229.133 17.8666 229.078 18.8314 228.022 19.442L112.713 86.0175C103.841 91.1406 89.3141 91.1406 80.4358 86.0175L80.2709 85.9198V85.9137Z" fill="white" stroke="black" stroke-width="0.373386" stroke-miterlimit="10"/>
<path d="M112.329 82.0731C111.266 82.6837 109.55 83.679 108.433 84.1858C101.582 87.2755 92.3799 87.5503 85.944 84.8636C84.8205 84.3934 83.0741 83.4103 82.1277 82.6287C77.6458 78.9467 78.1159 73.7381 83.3184 69.8363C84.3076 69.0975 86.0356 68.1266 87.092 67.5098L199.177 2.79063C200.105 2.24718 200.258 1.44117 199.604 0.867188C200.447 1.53276 201.094 2.80895 201.094 3.90195L224.407 17.3599L112.323 82.0792L112.329 82.0731Z" fill="white"/>
<mask id="mask0_593_10094" style="mask-type:luminance" maskUnits="userSpaceOnUse" x="79" y="0" width="146" height="87">
<path d="M112.329 82.0731C111.266 82.6837 109.55 83.679 108.433 84.1858C101.582 87.2755 92.3799 87.5503 85.944 84.8636C84.8205 84.3934 83.0741 83.4103 82.1277 82.6287C77.6458 78.9467 78.1159 73.7381 83.3184 69.8363C84.3076 69.0975 86.0356 68.1266 87.092 67.5098L199.177 2.79063C200.105 2.24718 200.258 1.44117 199.604 0.867188C200.447 1.53276 201.094 2.80895 201.094 3.90195L224.407 17.3599L112.323 82.0792L112.329 82.0731Z" fill="white"/>
</mask>
<g mask="url(#mask0_593_10094)">
<path d="M201.1 24.8765V11.7788C201.1 10.7957 200.41 9.605 199.561 9.1165L199.03 8.81119C198.181 8.3227 196.807 8.3227 195.953 8.81119L74.9468 78.6779L92.9722 89.0828L199.567 27.5388C200.416 27.0503 201.106 25.8535 201.106 24.8765H201.1Z" fill="white" stroke="black" stroke-width="0.373386" stroke-miterlimit="10"/>
<path d="M195.959 8.81119L74.9468 78.6779L78.5494 80.7601L199.567 10.8934C200.416 10.4049 200.416 9.605 199.567 9.1165L199.036 8.81119C198.187 8.3227 196.814 8.3227 195.959 8.81119Z" fill="#C0D7FF" stroke="black" stroke-width="0.373386" stroke-linecap="round" stroke-linejoin="round"/>
<path d="M208.312 29.0406V15.9429C208.312 14.9598 207.622 13.7691 206.773 13.2806L206.242 12.9753C205.393 12.4868 204.019 12.4868 203.164 12.9753L82.1521 82.842L100.177 93.2469L206.779 31.7029C207.628 31.2144 208.318 30.0176 208.318 29.0406H208.312Z" fill="white" stroke="black" stroke-width="0.373386" stroke-miterlimit="10"/>
<path d="M203.17 12.9757L82.158 82.8425L85.7606 84.9247L206.779 15.0518C207.627 14.5634 207.627 13.7634 206.779 13.2749L206.247 12.9696C205.399 12.4811 204.025 12.4811 203.17 12.9696V12.9757Z" fill="#C0D7FF" stroke="black" stroke-width="0.373386" stroke-linecap="round" stroke-linejoin="round"/>
<path d="M215.523 33.199V20.1013C215.523 19.1182 214.833 17.9275 213.984 17.439L213.453 17.1337C212.604 16.6452 211.23 16.6452 210.375 17.1337L89.3635 87.0004L107.389 97.4053L213.984 35.8613C214.833 35.3728 215.523 34.176 215.523 33.199Z" fill="white" stroke="black" stroke-width="0.373386" stroke-miterlimit="10"/>
<path d="M210.375 17.134L89.3635 87.0007L92.9662 89.0829L213.984 19.21C214.833 18.7216 214.833 17.9216 213.984 17.4332L213.453 17.1278C212.604 16.6394 211.23 16.6394 210.375 17.1278V17.134Z" fill="#C0D7FF" stroke="black" stroke-width="0.373386" stroke-linecap="round" stroke-linejoin="round"/>
</g>
<path d="M112.329 82.0731C111.266 82.6837 109.55 83.679 108.433 84.1858C101.582 87.2755 92.3799 87.5503 85.944 84.8636C84.8205 84.3934 83.0741 83.4103 82.1277 82.6287C77.6458 78.9467 78.1159 73.7381 83.3184 69.8363C84.3076 69.0975 86.0356 68.1266 87.092 67.5099L199.177 2.79063C200.105 2.24718 200.258 1.44117 199.604 0.867188C200.447 1.53276 201.094 2.80895 201.094 3.90195L224.407 17.3599L112.323 82.0792L112.329 82.0731Z" stroke="black" stroke-width="0.373386" stroke-miterlimit="10"/>
<path d="M244.356 57.563V83.1478C244.356 84.1248 243.66 85.3216 242.823 85.8101L196.148 112.757C196.148 112.757 196.087 112.793 196.056 112.799C192.533 114.814 189.327 115.077 186.989 113.868C186.28 113.502 183.545 111.908 182.879 111.474C180.766 110.107 179.478 107.408 179.478 103.634C179.478 95.8425 184.961 86.3108 191.855 81.9388H191.861L235.606 56.6776C235.697 56.6226 235.765 56.5738 235.838 56.5188C236.449 56.0303 236.369 55.3464 235.606 54.9068L229.933 51.6339V47.4695L242.817 54.9068C243.574 55.3403 244.209 56.354 244.325 57.2699C244.344 57.3676 244.35 57.4714 244.35 57.5691L244.356 57.563Z" fill="white" stroke="black" stroke-width="0.373386" stroke-miterlimit="10"/>
<path d="M244.356 57.5629V83.1477C244.356 84.1247 243.66 85.3215 242.824 85.81L196.148 112.756C196.148 112.756 196.087 112.793 196.056 112.799C191.458 115.425 187.41 115.071 185.108 112.366C183.82 110.851 183.075 108.604 183.075 105.728C183.075 97.6803 188.931 87.7884 196.142 83.6118L240.747 57.8621L242.817 56.6714C243.575 56.2256 244.204 56.4943 244.326 57.2576C244.344 57.3553 244.35 57.4591 244.35 57.5568L244.356 57.5629Z" fill="white" stroke="black" stroke-width="0.373386" stroke-miterlimit="10"/>
<path d="M193.895 99.4878C193.895 102.938 196.313 104.336 199.298 102.608C202.284 100.886 204.702 96.6912 204.702 93.2412C204.702 89.7912 202.284 88.3929 199.298 90.121C196.313 91.8429 193.895 96.0378 193.895 99.4878Z" fill="white" stroke="black" stroke-width="0.373386" stroke-miterlimit="10"/>
<path d="M204.892 90.768L203.292 89.8521L195.476 102.986L197.314 104.043L204.892 90.768Z" fill="white" stroke="black" stroke-width="0.373386" stroke-miterlimit="10"/>
<path d="M195.696 100.526C195.696 103.976 198.114 105.374 201.1 103.646C204.086 101.924 206.504 97.729 206.504 94.2791C206.504 90.8291 204.086 89.4308 201.1 91.1588C198.114 92.8807 195.696 97.0757 195.696 100.526Z" fill="white" stroke="black" stroke-width="0.373386" stroke-miterlimit="10"/>
<path opacity="0.15" d="M208.4 168.671C219.495 168.607 228.459 163.364 228.422 156.96C228.386 150.556 219.361 145.416 208.267 145.48C197.172 145.544 188.208 150.787 188.245 157.191C188.281 163.595 197.305 168.735 208.4 168.671Z" fill="black"/>
<path d="M227.919 148.691H224.2C223.601 148.209 222.948 147.745 222.203 147.317C214.54 142.89 201.955 142.915 194.237 147.372C193.516 147.788 192.887 148.233 192.301 148.697H188.424V156.025H188.467C188.68 158.76 190.561 161.453 194.145 163.523C201.809 167.95 214.393 167.926 222.112 163.468C225.69 161.404 227.595 158.736 227.87 156.025H227.925V148.697L227.919 148.691Z" fill="white" stroke="black" stroke-width="0.373386" stroke-linecap="round" stroke-linejoin="round"/>
<path d="M208.218 160.307C219.137 160.244 227.96 155.08 227.924 148.774C227.887 142.468 219.006 137.407 208.086 137.47C197.167 137.533 188.344 142.696 188.381 149.002C188.417 155.308 197.298 160.369 208.218 160.307Z" fill="white" stroke="black" stroke-width="0.373386" stroke-linecap="round" stroke-linejoin="round"/>
<path d="M208.205 158.151C217.068 158.1 224.228 153.912 224.199 148.796C224.169 143.68 216.961 139.575 208.098 139.626C199.236 139.677 192.076 143.865 192.105 148.981C192.135 154.097 199.343 158.202 208.205 158.151Z" fill="#80DEA4" stroke="black" stroke-width="0.373386" stroke-linecap="round" stroke-linejoin="round"/>
<path d="M227.919 142.139H224.2C223.601 141.657 222.948 141.193 222.203 140.765C214.54 136.338 201.955 136.363 194.237 140.82C193.516 141.236 192.887 141.681 192.301 142.145H188.424V149.473H188.467C188.68 152.208 190.561 154.901 194.145 156.971C201.809 161.398 214.393 161.374 222.112 156.916C225.69 154.852 227.595 152.184 227.87 149.473H227.925V142.145L227.919 142.139Z" fill="white" stroke="black" stroke-width="0.373386" stroke-linecap="round" stroke-linejoin="round"/>
<path d="M208.217 153.755C219.136 153.692 227.959 148.529 227.923 142.223C227.886 135.916 219.005 130.855 208.085 130.918C197.166 130.981 188.343 136.144 188.38 142.45C188.416 148.757 197.297 153.818 208.217 153.755Z" fill="white" stroke="black" stroke-width="0.373386" stroke-linecap="round" stroke-linejoin="round"/>
<path d="M208.204 151.599C217.067 151.548 224.227 147.36 224.198 142.244C224.168 137.128 216.96 133.022 208.098 133.073C199.235 133.124 192.075 137.313 192.104 142.429C192.134 147.544 199.342 151.65 208.204 151.599Z" fill="#80DEA4" stroke="black" stroke-width="0.373386" stroke-linecap="round" stroke-linejoin="round"/>
<path d="M227.919 135.593H224.2C223.602 135.111 222.949 134.647 222.204 134.22C214.54 129.793 201.956 129.817 194.237 134.275C193.517 134.69 192.888 135.135 192.302 135.6H188.424V142.927H188.467C188.681 145.663 190.561 148.355 194.146 150.425C201.809 154.852 214.394 154.828 222.112 150.37C225.69 148.306 227.595 145.638 227.87 142.927H227.925V135.6L227.919 135.593Z" fill="white" stroke="black" stroke-width="0.373386" stroke-linecap="round" stroke-linejoin="round"/>
<path d="M208.222 147.209C219.141 147.146 227.964 141.983 227.927 135.677C227.891 129.371 219.01 124.31 208.09 124.372C197.171 124.435 188.348 129.598 188.385 135.905C188.421 142.211 197.302 147.272 208.222 147.209Z" fill="white" stroke="black" stroke-width="0.373386" stroke-linecap="round" stroke-linejoin="round"/>
<path d="M208.21 145.053C217.072 145.002 224.232 140.814 224.203 135.698C224.173 130.582 216.965 126.477 208.103 126.528C199.241 126.579 192.08 130.767 192.11 135.883C192.139 140.999 199.347 145.105 208.21 145.053Z" fill="#798BFF" stroke="black" stroke-width="0.373386" stroke-linecap="round" stroke-linejoin="round"/>
<path d="M203.61 137.871L202.859 137.438L203.653 136.98C202.81 136.253 202.45 135.484 202.578 134.684C202.706 133.884 203.335 133.157 204.459 132.504C205.576 131.856 206.736 131.502 207.939 131.429C209.142 131.356 210.241 131.551 211.23 132.009L209.197 133.182C208.012 132.705 206.919 132.76 205.912 133.34C205.344 133.67 205.057 134.043 205.045 134.452C205.033 134.867 205.283 135.294 205.79 135.74L208.434 134.213L209.185 134.647L206.449 136.229C206.516 136.277 206.632 136.351 206.791 136.442C206.993 136.558 207.152 136.644 207.255 136.693L209.991 135.111L210.742 135.545L208.11 137.065C209.661 137.627 211.023 137.566 212.195 136.888C212.745 136.57 213.013 136.235 213.001 135.868C212.989 135.508 212.751 135.148 212.275 134.794L214.247 133.652C215.157 134.244 215.572 134.91 215.486 135.648C215.407 136.381 214.784 137.083 213.63 137.755C212.513 138.402 211.273 138.769 209.911 138.86C208.55 138.952 207.237 138.769 205.967 138.299L205.161 138.763L204.41 138.329L205.112 137.926C205.008 137.877 204.856 137.798 204.648 137.676C204.489 137.584 204.373 137.511 204.306 137.462L203.604 137.865L203.61 137.871Z" fill="white"/>
<path opacity="0.15" d="M182.782 186.098C193.958 186.034 202.988 180.752 202.95 174.301C202.913 167.85 193.823 162.672 182.648 162.736C171.472 162.801 162.442 168.083 162.479 174.534C162.517 180.985 171.606 186.163 182.782 186.098Z" fill="black"/>
<path d="M201.937 165.892H198.218C197.62 165.41 196.967 164.946 196.222 164.518C188.558 160.091 175.974 160.116 168.255 164.573C167.535 164.988 166.906 165.434 166.32 165.898H162.442V173.226H162.485C162.699 175.961 164.58 178.654 168.164 180.724C175.827 185.151 188.412 185.126 196.13 180.669C199.708 178.605 201.613 175.937 201.888 173.226H201.943V165.898L201.937 165.892Z" fill="white" stroke="black" stroke-width="0.373386" stroke-linecap="round" stroke-linejoin="round"/>
<path d="M182.238 177.505C193.158 177.442 201.98 172.278 201.944 165.972C201.908 159.666 193.026 154.605 182.107 154.668C171.187 154.731 162.365 159.894 162.401 166.2C162.437 172.506 171.319 177.567 182.238 177.505Z" fill="white" stroke="black" stroke-width="0.373386" stroke-linecap="round" stroke-linejoin="round"/>
<path d="M182.226 175.349C191.088 175.298 198.249 171.109 198.219 165.993C198.19 160.878 190.982 156.772 182.119 156.823C173.257 156.874 166.096 161.062 166.126 166.178C166.155 171.294 173.364 175.4 182.226 175.349Z" fill="#80DEA4" stroke="black" stroke-width="0.373386" stroke-linecap="round" stroke-linejoin="round"/>
<path d="M201.937 159.346H198.218C197.62 158.864 196.967 158.4 196.222 157.972C188.558 153.546 175.974 153.57 168.255 158.027C167.535 158.443 166.906 158.888 166.32 159.352H162.442V166.68H162.485C162.699 169.415 164.58 172.108 168.164 174.178C175.827 178.605 188.412 178.581 196.13 174.123C199.708 172.059 201.613 169.391 201.888 166.68H201.943V159.352L201.937 159.346Z" fill="white" stroke="black" stroke-width="0.373386" stroke-linecap="round" stroke-linejoin="round"/>
<path d="M182.237 170.953C193.156 170.89 201.979 165.726 201.942 159.42C201.906 153.114 193.025 148.053 182.105 148.116C171.186 148.179 162.363 153.342 162.4 159.648C162.436 165.954 171.317 171.015 182.237 170.953Z" fill="white" stroke="black" stroke-width="0.373386" stroke-linecap="round" stroke-linejoin="round"/>
<path d="M182.224 168.797C191.087 168.746 198.247 164.558 198.218 159.442C198.188 154.326 190.98 150.22 182.118 150.271C173.255 150.322 166.095 154.511 166.124 159.627C166.154 164.742 173.362 168.848 182.224 168.797Z" fill="#80DEA4" stroke="black" stroke-width="0.373386" stroke-linecap="round" stroke-linejoin="round"/>
<path d="M201.937 152.795H198.218C197.62 152.312 196.967 151.848 196.222 151.421C188.558 146.994 175.974 147.018 168.255 151.476C167.535 151.891 166.906 152.337 166.32 152.801H162.442V160.128H162.485C162.699 162.864 164.58 165.556 168.164 167.626C175.827 172.053 188.412 172.029 196.13 167.572C199.708 165.508 201.613 162.839 201.888 160.128H201.943V152.801L201.937 152.795Z" fill="white" stroke="black" stroke-width="0.373386" stroke-linecap="round" stroke-linejoin="round"/>
<path d="M182.236 164.407C193.155 164.344 201.978 159.181 201.941 152.875C201.905 146.568 193.024 141.507 182.104 141.57C171.185 141.633 162.362 146.796 162.399 153.102C162.435 159.409 171.316 164.47 182.236 164.407Z" fill="white" stroke="black" stroke-width="0.373386" stroke-linecap="round" stroke-linejoin="round"/>
<path d="M182.224 162.251C191.086 162.2 198.246 158.012 198.217 152.896C198.187 147.78 190.979 143.674 182.117 143.725C173.254 143.776 166.094 147.965 166.123 153.081C166.153 158.197 173.361 162.302 182.224 162.251Z" fill="#80DEA4" stroke="black" stroke-width="0.373386" stroke-linecap="round" stroke-linejoin="round"/>
<path d="M201.937 146.249H198.218C197.62 145.766 196.967 145.302 196.222 144.875C188.558 140.448 175.974 140.472 168.255 144.93C167.535 145.345 166.906 145.791 166.32 146.255H162.442V153.582H162.485C162.699 156.318 164.58 159.011 168.164 161.081C175.827 165.508 188.412 165.483 196.13 161.026C199.708 158.962 201.613 156.293 201.888 153.582H201.943V146.255L201.937 146.249Z" fill="white" stroke="black" stroke-width="0.373386" stroke-linecap="round" stroke-linejoin="round"/>
<path d="M182.235 157.861C193.154 157.798 201.977 152.635 201.941 146.329C201.904 140.023 193.023 134.962 182.103 135.025C171.184 135.087 162.361 140.251 162.398 146.557C162.434 152.863 171.316 157.924 182.235 157.861Z" fill="white" stroke="black" stroke-width="0.373386" stroke-linecap="round" stroke-linejoin="round"/>
<path d="M182.223 155.706C191.085 155.655 198.245 151.466 198.216 146.35C198.186 141.235 190.978 137.129 182.116 137.18C173.253 137.231 166.093 141.419 166.122 146.535C166.152 151.651 173.36 155.757 182.223 155.706Z" fill="#80DEA4" stroke="black" stroke-width="0.373386" stroke-linecap="round" stroke-linejoin="round"/>
<path d="M201.937 139.697H198.218C197.62 139.214 196.967 138.75 196.222 138.323C188.558 133.896 175.974 133.92 168.255 138.378C167.535 138.793 166.906 139.239 166.32 139.703H162.442V147.03H162.485C162.699 149.766 164.58 152.459 168.164 154.529C175.827 158.956 188.412 158.931 196.13 154.474C199.708 152.41 201.613 149.741 201.888 147.03H201.943V139.703L201.937 139.697Z" fill="white" stroke="black" stroke-width="0.373386" stroke-linecap="round" stroke-linejoin="round"/>
<path d="M182.24 151.309C193.159 151.247 201.982 146.083 201.946 139.777C201.909 133.471 193.028 128.41 182.108 128.473C171.189 128.536 162.366 133.699 162.403 140.005C162.439 146.311 171.32 151.372 182.24 151.309Z" fill="white" stroke="black" stroke-width="0.373386" stroke-linecap="round" stroke-linejoin="round"/>
<path d="M182.227 149.154C191.09 149.103 198.25 144.915 198.221 139.799C198.191 134.683 190.983 130.577 182.121 130.628C173.258 130.679 166.098 134.868 166.127 139.984C166.157 145.099 173.365 149.205 182.227 149.154Z" fill="#80DEA4" stroke="black" stroke-width="0.373386" stroke-linecap="round" stroke-linejoin="round"/>
<path d="M201.937 133.151H198.218C197.62 132.669 196.966 132.205 196.221 131.777C188.558 127.35 175.973 127.375 168.255 131.832C167.535 132.247 166.906 132.693 166.32 133.157H162.442V140.485H162.485C162.699 143.22 164.579 145.913 168.164 147.983C175.827 152.41 188.412 152.385 196.13 147.928C199.708 145.864 201.613 143.196 201.888 140.485H201.943V133.157L201.937 133.151Z" fill="white" stroke="black" stroke-width="0.373386" stroke-linecap="round" stroke-linejoin="round"/>
<path d="M182.239 144.764C193.158 144.701 201.981 139.538 201.944 133.231C201.908 126.925 193.027 121.864 182.107 121.927C171.188 121.99 162.365 127.153 162.401 133.459C162.438 139.765 171.319 144.826 182.239 144.764Z" fill="white" stroke="black" stroke-width="0.373386" stroke-linecap="round" stroke-linejoin="round"/>
<path d="M182.226 142.608C191.089 142.557 198.249 138.368 198.22 133.253C198.19 128.137 190.982 124.031 182.119 124.082C173.257 124.133 166.097 128.322 166.126 133.437C166.156 138.553 173.364 142.659 182.226 142.608Z" fill="#80DEA4" stroke="black" stroke-width="0.373386" stroke-linecap="round" stroke-linejoin="round"/>
<path d="M201.937 126.599H198.218C197.62 126.117 196.967 125.653 196.222 125.225C188.558 120.798 175.974 120.823 168.255 125.28C167.535 125.696 166.906 126.141 166.32 126.605H162.442V133.933H162.485C162.699 136.668 164.58 139.361 168.164 141.431C175.827 145.858 188.412 145.834 196.13 141.376C199.708 139.312 201.613 136.644 201.888 133.933H201.943V126.605L201.937 126.599Z" fill="white" stroke="black" stroke-width="0.373386" stroke-linecap="round" stroke-linejoin="round"/>
<path d="M182.238 138.212C193.157 138.149 201.98 132.986 201.943 126.68C201.907 120.373 193.026 115.312 182.106 115.375C171.187 115.438 162.364 120.601 162.4 126.907C162.437 133.214 171.318 138.275 182.238 138.212Z" fill="white" stroke="black" stroke-width="0.373386" stroke-linecap="round" stroke-linejoin="round"/>
<path d="M182.225 136.056C191.088 136.005 198.248 131.817 198.219 126.701C198.189 121.585 190.981 117.479 182.119 117.53C173.256 117.581 166.096 121.77 166.125 126.886C166.155 132.001 173.363 136.107 182.225 136.056Z" fill="#C0D7FF" stroke="black" stroke-width="0.373386" stroke-linecap="round" stroke-linejoin="round"/>
<path d="M179.765 129.689L178.654 129.048L179.326 128.657C178.508 128.541 177.86 128.346 177.396 128.077C176.621 127.631 176.328 127.07 176.505 126.398C176.688 125.726 177.366 125.048 178.556 124.358C179.692 123.705 180.84 123.326 182.006 123.223C183.258 123.119 184.431 123.363 185.517 123.955L183.484 125.128C182.886 124.792 182.293 124.639 181.695 124.664C181.097 124.688 180.535 124.853 179.991 125.164C179.472 125.464 179.185 125.763 179.13 126.056C179.075 126.355 179.246 126.612 179.637 126.838C179.955 127.021 180.596 127.192 181.579 127.357L183.777 126.086L184.889 126.728L183.142 127.735C183.313 127.815 183.441 127.876 183.515 127.918C184.18 128.303 184.37 128.865 184.083 129.61H184.137C184.504 129.219 184.809 128.956 185.06 128.81C185.438 128.59 185.902 128.395 186.452 128.224C187.001 128.053 187.404 127.894 187.655 127.753C188.143 127.473 188.448 127.082 188.571 126.593L190.866 126.844C190.683 127.558 190.158 128.169 189.279 128.675C188.772 128.969 188.119 129.231 187.319 129.463C186.519 129.695 185.939 129.915 185.566 130.129C185.157 130.367 184.821 130.758 184.565 131.313L182.19 131.148C182.605 130.281 182.458 129.646 181.762 129.243C181.573 129.133 181.335 129.036 181.042 128.95L179.772 129.683L179.765 129.689Z" fill="white"/>
<path opacity="0.15" d="M154.258 202.645C165.107 202.583 173.872 197.456 173.836 191.193C173.8 184.931 164.976 179.905 154.128 179.967C143.279 180.03 134.514 185.157 134.55 191.42C134.586 197.682 143.41 202.708 154.258 202.645Z" fill="black"/>
<path d="M172.829 181.927H169.11C168.512 181.445 167.859 180.98 167.114 180.553C159.451 176.126 146.866 176.15 139.148 180.608C138.427 181.023 137.798 181.469 137.212 181.933H133.334V189.26H133.377C133.591 191.996 135.472 194.689 139.056 196.759C146.719 201.186 159.304 201.161 167.022 196.704C170.6 194.64 172.506 191.972 172.78 189.26H172.835V181.933L172.829 181.927Z" fill="white" stroke="black" stroke-width="0.373386" stroke-linecap="round" stroke-linejoin="round"/>
<path d="M153.125 193.536C164.045 193.473 172.867 188.31 172.831 182.003C172.794 175.697 163.913 170.636 152.994 170.699C142.074 170.762 133.252 175.925 133.288 182.231C133.324 188.537 142.206 193.598 153.125 193.536Z" fill="white" stroke="black" stroke-width="0.373386" stroke-linecap="round" stroke-linejoin="round"/>
<path d="M153.113 191.38C161.975 191.329 169.136 187.14 169.106 182.025C169.077 176.909 161.869 172.803 153.006 172.854C144.144 172.905 136.983 177.094 137.013 182.209C137.042 187.325 144.251 191.431 153.113 191.38Z" fill="#80DEA4" stroke="black" stroke-width="0.373386" stroke-linecap="round" stroke-linejoin="round"/>
<path d="M172.829 175.382H169.11C168.512 174.899 167.858 174.435 167.114 174.008C159.45 169.581 146.865 169.605 139.147 174.063C138.427 174.478 137.798 174.924 137.212 175.388H133.334V182.715H133.377C133.591 185.451 135.471 188.143 139.056 190.213C146.719 194.64 159.304 194.616 167.022 190.158C170.6 188.095 172.505 185.426 172.78 182.715H172.835V175.388L172.829 175.382Z" fill="white" stroke="black" stroke-width="0.373386" stroke-linecap="round" stroke-linejoin="round"/>
<path d="M153.124 186.984C164.043 186.921 172.866 181.758 172.83 175.452C172.793 169.145 163.912 164.084 152.992 164.147C142.073 164.21 133.25 169.373 133.287 175.679C133.323 181.986 142.204 187.047 153.124 186.984Z" fill="white" stroke="black" stroke-width="0.373386" stroke-linecap="round" stroke-linejoin="round"/>
<path d="M153.112 184.828C161.974 184.777 169.135 180.589 169.105 175.473C169.076 170.357 161.867 166.252 153.005 166.303C144.143 166.354 136.982 170.542 137.012 175.658C137.041 180.774 144.249 184.879 153.112 184.828Z" fill="#80DEA4" stroke="black" stroke-width="0.373386" stroke-linecap="round" stroke-linejoin="round"/>
<path d="M172.829 168.829H169.11C168.512 168.347 167.858 167.883 167.114 167.455C159.45 163.028 146.865 163.053 139.147 167.51C138.427 167.926 137.798 168.371 137.212 168.835H133.334V176.163H133.377C133.591 178.898 135.471 181.591 139.056 183.661C146.719 188.088 159.304 188.064 167.022 183.606C170.6 181.542 172.505 178.874 172.78 176.163H172.835V168.835L172.829 168.829Z" fill="white" stroke="black" stroke-width="0.373386" stroke-linecap="round" stroke-linejoin="round"/>
<path d="M153.129 180.438C164.048 180.375 172.871 175.212 172.835 168.906C172.798 162.6 163.917 157.538 152.998 157.601C142.078 157.664 133.256 162.827 133.292 169.133C133.328 175.44 142.21 180.501 153.129 180.438Z" fill="white" stroke="black" stroke-width="0.373386" stroke-linecap="round" stroke-linejoin="round"/>
<path d="M153.116 178.282C161.979 178.231 169.139 174.043 169.11 168.927C169.08 163.811 161.872 159.705 153.01 159.756C144.147 159.807 136.987 163.996 137.016 169.112C137.046 174.228 144.254 178.333 153.116 178.282Z" fill="#80DEA4" stroke="black" stroke-width="0.373386" stroke-linecap="round" stroke-linejoin="round"/>
<path d="M172.829 162.284H169.11C168.512 161.801 167.858 161.337 167.114 160.91C159.45 156.483 146.865 156.507 139.147 160.965C138.427 161.38 137.798 161.826 137.212 162.29H133.334V169.617H133.377C133.591 172.353 135.471 175.046 139.056 177.116C146.719 181.543 159.304 181.518 167.022 177.061C170.6 174.997 172.505 172.329 172.78 169.617H172.835V162.29L172.829 162.284Z" fill="white" stroke="black" stroke-width="0.373386" stroke-linecap="round" stroke-linejoin="round"/>
<path d="M153.128 173.886C164.047 173.823 172.87 168.66 172.833 162.354C172.797 156.048 163.916 150.987 152.996 151.049C142.077 151.112 133.254 156.275 133.29 162.582C133.327 168.888 142.208 173.949 153.128 173.886Z" fill="white" stroke="black" stroke-width="0.373386" stroke-linecap="round" stroke-linejoin="round"/>
<path d="M153.115 171.731C161.978 171.68 169.138 167.491 169.109 162.376C169.079 157.26 161.871 153.154 153.009 153.205C144.146 153.256 136.986 157.445 137.015 162.56C137.045 167.676 144.253 171.782 153.115 171.731Z" fill="#80DEA4" stroke="black" stroke-width="0.373386" stroke-linecap="round" stroke-linejoin="round"/>
<path d="M172.829 155.732H169.11C168.512 155.249 167.859 154.785 167.114 154.358C159.451 149.931 146.866 149.955 139.148 154.413C138.427 154.828 137.798 155.274 137.212 155.738H133.334V163.065H133.377C133.591 165.801 135.472 168.493 139.056 170.563C146.719 174.99 159.304 174.966 167.022 170.509C170.6 168.445 172.506 165.776 172.78 163.065H172.835V155.738L172.829 155.732Z" fill="white" stroke="black" stroke-width="0.373386" stroke-linecap="round" stroke-linejoin="round"/>
<path d="M153.127 167.34C164.047 167.278 172.869 162.114 172.833 155.808C172.796 149.502 163.915 144.441 152.996 144.504C142.076 144.567 133.254 149.73 133.29 156.036C133.326 162.342 142.208 167.403 153.127 167.34Z" fill="white" stroke="black" stroke-width="0.373386" stroke-linecap="round" stroke-linejoin="round"/>
<path d="M153.115 165.185C161.977 165.134 169.137 160.946 169.108 155.83C169.079 150.714 161.87 146.608 153.008 146.659C144.146 146.71 136.985 150.899 137.015 156.015C137.044 161.13 144.252 165.236 153.115 165.185Z" fill="#80DEA4" stroke="black" stroke-width="0.373386" stroke-linecap="round" stroke-linejoin="round"/>
<path d="M172.829 149.186H169.11C168.512 148.703 167.858 148.239 167.114 147.812C159.45 143.385 146.865 143.409 139.147 147.867C138.427 148.282 137.798 148.728 137.212 149.192H133.334V156.519H133.377C133.591 159.255 135.471 161.948 139.056 164.018C146.719 168.445 159.304 168.42 167.022 163.963C170.6 161.899 172.505 159.23 172.78 156.519H172.835V149.192L172.829 149.186Z" fill="white" stroke="black" stroke-width="0.373386" stroke-linecap="round" stroke-linejoin="round"/>
<path d="M153.125 160.789C164.045 160.726 172.867 155.563 172.831 149.257C172.795 142.95 163.913 137.889 152.994 137.952C142.074 138.015 133.252 143.178 133.288 149.484C133.324 155.79 142.206 160.852 153.125 160.789Z" fill="white" stroke="black" stroke-width="0.373386" stroke-linecap="round" stroke-linejoin="round"/>
<path d="M153.113 158.633C161.976 158.582 169.136 154.394 169.107 149.278C169.077 144.162 161.869 140.056 153.006 140.108C144.144 140.159 136.984 144.347 137.013 149.463C137.043 154.579 144.251 158.684 153.113 158.633Z" fill="#80DEA4" stroke="black" stroke-width="0.373386" stroke-linecap="round" stroke-linejoin="round"/>
<path d="M172.829 142.634H169.11C168.512 142.152 167.859 141.688 167.114 141.26C159.451 136.833 146.866 136.858 139.148 141.315C138.427 141.73 137.798 142.176 137.212 142.64H133.334V149.967H133.377C133.591 152.703 135.472 155.396 139.056 157.466C146.719 161.893 159.304 161.868 167.022 157.411C170.6 155.347 172.506 152.679 172.78 149.967H172.835V142.64L172.829 142.634Z" fill="white" stroke="black" stroke-width="0.373386" stroke-linecap="round" stroke-linejoin="round"/>
<path d="M153.131 154.243C164.05 154.18 172.873 149.017 172.837 142.711C172.8 136.405 163.919 131.343 152.999 131.406C142.08 131.469 133.257 136.632 133.294 142.939C133.33 149.245 142.212 154.306 153.131 154.243Z" fill="white" stroke="black" stroke-width="0.373386" stroke-linecap="round" stroke-linejoin="round"/>
<path d="M153.119 152.087C161.981 152.036 169.142 147.848 169.112 142.732C169.083 137.616 161.874 133.511 153.012 133.562C144.15 133.613 136.989 137.801 137.019 142.917C137.048 148.033 144.256 152.138 153.119 152.087Z" fill="#C0D7FF" stroke="black" stroke-width="0.373386" stroke-linecap="round" stroke-linejoin="round"/>
<path d="M159.334 146.42L158.235 145.784C156.959 146.45 155.738 146.835 154.572 146.932C153.405 147.03 152.379 146.841 151.488 146.365L153.521 145.192C154.04 145.412 154.565 145.504 155.097 145.473C155.622 145.436 156.196 145.272 156.819 144.972L154.394 143.574C154.352 143.598 154.327 143.611 154.309 143.611C153.784 143.812 153.35 143.977 153.002 144.099C152.654 144.221 152.239 144.343 151.757 144.459C151.274 144.575 150.853 144.643 150.493 144.661C150.132 144.679 149.748 144.643 149.332 144.563C148.917 144.484 148.545 144.337 148.191 144.136C147.391 143.672 147.091 143.122 147.293 142.487C147.495 141.852 148.117 141.205 149.161 140.552L148.41 140.118L149.308 139.599L150.071 140.039C151.164 139.495 152.239 139.184 153.295 139.11C154.352 139.037 155.316 139.208 156.184 139.629L154.193 140.777C153.393 140.429 152.502 140.46 151.506 140.869L153.717 142.145C153.717 142.145 153.778 142.121 153.82 142.102C154.462 141.84 155.03 141.632 155.518 141.474C156.006 141.321 156.532 141.193 157.087 141.101C157.643 141.009 158.168 140.997 158.663 141.077C159.157 141.156 159.621 141.321 160.055 141.571C160.891 142.054 161.209 142.628 161.02 143.293C160.83 143.959 160.201 144.618 159.151 145.278L160.238 145.907L159.34 146.426L159.334 146.42ZM149.797 142.194C149.705 142.451 149.797 142.658 150.077 142.823C150.358 142.982 150.694 143.043 151.085 143C151.476 142.957 152.001 142.811 152.66 142.573L150.578 141.37C150.151 141.663 149.894 141.938 149.797 142.194ZM158.174 142.902C157.869 142.725 157.509 142.664 157.093 142.719C156.678 142.774 156.141 142.921 155.481 143.159L157.716 144.447C158.144 144.154 158.406 143.867 158.516 143.592C158.62 143.318 158.51 143.086 158.174 142.896V142.902Z" fill="white"/>
<g opacity="0.15">
<path d="M45.9732 135.594L42.4804 135.716C39.8426 135.807 37.2719 136.546 34.9821 137.853L28.8576 141.358C28.1859 141.743 27.9539 142.597 28.3386 143.269L34.4753 153.992C34.8599 154.663 35.7148 154.895 36.3865 154.511L42.511 151.006C44.8008 149.693 47.3715 148.96 50.0093 148.868L53.5021 148.746C56.5185 148.636 59.4556 147.8 62.0751 146.304L67.3875 143.263C68.0592 142.878 68.2912 142.023 67.9065 141.352L61.7698 130.629C61.3851 129.958 60.5303 129.726 59.8586 130.11L54.5462 133.151C51.9267 134.647 48.9896 135.49 45.9732 135.594Z" fill="black"/>
</g>
<path d="M45.9732 132.541L42.4804 132.663C39.8426 132.754 37.2719 133.493 34.9821 134.8L28.8576 138.305C28.1859 138.69 27.9539 139.544 28.3386 140.216L34.4753 150.939C34.8599 151.61 35.7148 151.842 36.3865 151.458L42.511 147.953C44.8008 146.64 47.3715 145.907 50.0093 145.815L53.5021 145.693C56.5185 145.583 59.4556 144.747 62.0751 143.251L67.3875 140.21C68.0592 139.825 68.2912 138.97 67.9065 138.299L61.7698 127.576C61.3851 126.905 60.5303 126.673 59.8586 127.057L54.5462 130.098C51.9267 131.594 48.9896 132.437 45.9732 132.541Z" fill="white" stroke="black" stroke-width="0.373386" stroke-linecap="round" stroke-linejoin="round"/>
<path d="M58.4237 131.515C58.3871 131.448 58.3626 131.38 58.3321 131.313L56.1156 132.583C53.4289 134.122 50.4002 134.965 47.2983 135.038L43.9582 135.111C41.2532 135.172 38.6031 135.911 36.2522 137.255L32.8999 139.172C33.3762 140.008 33.0892 141.071 32.2527 141.553L35.1959 146.701C36.0263 146.224 37.0766 146.511 37.5589 147.33L40.899 145.418C43.256 144.069 45.9183 143.33 48.6355 143.275L51.9573 143.208C55.0653 143.141 58.1062 142.298 60.8051 140.753L62.9911 139.502C62.5148 138.665 62.8018 137.603 63.6384 137.12L60.799 132.162C59.9625 132.638 58.9 132.351 58.4176 131.515H58.4237Z" fill="#C0D7FF" stroke="black" stroke-width="0.373386" stroke-miterlimit="10"/>
<path d="M30.7503 140.588C30.5121 140.588 30.2923 140.46 30.1763 140.259C30.0908 140.106 30.0664 139.929 30.1152 139.758C30.1641 139.587 30.274 139.447 30.4266 139.355C30.5243 139.3 30.6404 139.27 30.7564 139.27C30.9945 139.27 31.2143 139.398 31.3304 139.599C31.5135 139.917 31.4036 140.32 31.0861 140.503C30.9884 140.558 30.8724 140.588 30.7564 140.588H30.7503Z" fill="#C0D7FF"/>
<path d="M30.7505 139.501C30.9032 139.501 31.0497 139.587 31.123 139.721C31.239 139.929 31.1718 140.191 30.9642 140.307C30.897 140.344 30.8238 140.362 30.7505 140.362C30.5978 140.362 30.4513 140.277 30.378 140.143C30.262 139.935 30.3292 139.672 30.5368 139.556C30.604 139.52 30.6772 139.501 30.7505 139.501ZM30.7505 139.043C30.5978 139.043 30.4513 139.08 30.3109 139.159C29.8834 139.404 29.7369 139.947 29.9811 140.375C30.146 140.662 30.4452 140.82 30.7566 140.82C30.9093 140.82 31.0558 140.784 31.1963 140.704C31.6237 140.46 31.7702 139.917 31.526 139.489C31.3611 139.202 31.0619 139.043 30.7505 139.043Z" fill="black"/>
<path d="M35.825 149.455C35.5869 149.455 35.367 149.326 35.251 149.125C35.0678 148.807 35.1778 148.404 35.4953 148.221C35.593 148.166 35.709 148.136 35.825 148.136C36.0631 148.136 36.283 148.264 36.399 148.465C36.4845 148.618 36.5089 148.795 36.4662 148.966C36.4173 149.137 36.3074 149.278 36.1547 149.369C36.057 149.424 35.941 149.455 35.825 149.455Z" fill="#C0D7FF"/>
<path d="M35.8247 148.362C35.9774 148.362 36.1239 148.447 36.1972 148.581C36.2522 148.679 36.2705 148.795 36.2399 148.911C36.2094 149.021 36.1361 149.113 36.0384 149.174C35.9713 149.21 35.898 149.229 35.8247 149.229C35.6721 149.229 35.5255 149.143 35.4522 149.009C35.3973 148.911 35.379 148.795 35.4095 148.679C35.44 148.569 35.5133 148.478 35.611 148.416C35.6782 148.38 35.7514 148.362 35.8247 148.362ZM35.8247 147.904C35.6721 147.904 35.5255 147.94 35.3851 148.02C34.9576 148.264 34.8111 148.807 35.0553 149.235C35.2202 149.522 35.5194 149.68 35.8308 149.68C35.9835 149.68 36.13 149.644 36.2705 149.564C36.6979 149.32 36.8444 148.777 36.6002 148.349C36.4353 148.062 36.1361 147.904 35.8247 147.904Z" fill="black"/>
<path d="M60.2068 130.642C59.9687 130.642 59.7489 130.513 59.6329 130.312C59.4497 129.994 59.5596 129.591 59.8771 129.408C59.9748 129.353 60.0908 129.323 60.2068 129.323C60.445 129.323 60.6648 129.451 60.7808 129.652C60.8663 129.805 60.8907 129.982 60.8419 130.153C60.793 130.324 60.6892 130.465 60.5305 130.556C60.4328 130.611 60.3167 130.642 60.2007 130.642H60.2068Z" fill="#C0D7FF"/>
<path d="M60.2066 129.549C60.3592 129.549 60.5058 129.634 60.579 129.769C60.6951 129.976 60.6279 130.239 60.4203 130.355C60.3531 130.391 60.2798 130.41 60.2066 130.41C60.0539 130.41 59.9074 130.324 59.8341 130.19C59.7791 130.092 59.7608 129.976 59.7913 129.86C59.8219 129.75 59.8951 129.659 59.9928 129.598C60.06 129.561 60.1333 129.543 60.2066 129.543M60.2066 129.085C60.0539 129.085 59.9074 129.121 59.7669 129.201C59.3395 129.445 59.1929 129.988 59.4372 130.416C59.602 130.703 59.9013 130.862 60.2127 130.862C60.3653 130.862 60.5119 130.825 60.6523 130.746C61.0797 130.501 61.2263 129.958 60.982 129.53C60.8172 129.243 60.518 129.085 60.2066 129.085Z" fill="black"/>
<path d="M65.3238 139.575C65.0856 139.575 64.8658 139.447 64.7498 139.245C64.5666 138.928 64.6765 138.525 64.9941 138.342C65.0918 138.287 65.2078 138.256 65.3238 138.256C65.5619 138.256 65.7817 138.384 65.8978 138.586C66.0809 138.903 65.971 139.306 65.6535 139.49C65.5558 139.545 65.4398 139.575 65.3238 139.575Z" fill="#C0D7FF"/>
<path d="M65.3174 138.482C65.4701 138.482 65.6166 138.567 65.6899 138.702C65.7448 138.799 65.7631 138.915 65.7326 139.031C65.7021 139.141 65.6288 139.233 65.5311 139.294C65.4639 139.331 65.3907 139.349 65.3174 139.349C65.1647 139.349 65.0182 139.263 64.9449 139.129C64.89 139.031 64.8716 138.915 64.9022 138.799C64.9327 138.69 65.006 138.598 65.1037 138.537C65.1708 138.5 65.2441 138.482 65.3174 138.482ZM65.3174 138.024C65.1647 138.024 65.0182 138.061 64.8778 138.14C64.4503 138.384 64.3038 138.928 64.548 139.355C64.7129 139.642 65.0121 139.801 65.3235 139.801C65.4762 139.801 65.6227 139.764 65.7631 139.685C66.1906 139.441 66.3371 138.897 66.0929 138.47C65.928 138.183 65.6288 138.024 65.3174 138.024Z" fill="black"/>
<path d="M34.3777 138.329L39.0428 146.475" stroke="black" stroke-width="0.373386" stroke-linejoin="round"/>
<path d="M35.8674 137.499L40.5264 145.651" stroke="black" stroke-width="0.373386" stroke-linejoin="round"/>
<path d="M43.1218 135.197L47.7869 143.342" stroke="black" stroke-width="0.373386" stroke-linejoin="round"/>
<path d="M54.0637 133.585L58.7288 141.73" stroke="black" stroke-width="0.373386" stroke-linejoin="round"/>
<path d="M56.7141 132.278L61.3792 140.43" stroke="black" stroke-width="0.373386" stroke-linejoin="round"/>
<path d="M43.3049 138.702L44.0315 139.972C44.6666 141.083 45.8634 141.749 47.1457 141.706L51.9268 141.541C52.8122 141.511 53.3495 140.546 52.9099 139.776L52.1772 138.5C51.5421 137.389 50.3392 136.723 49.063 136.766L44.288 136.937C43.4026 136.968 42.8653 137.932 43.3049 138.702Z" fill="white" stroke="black" stroke-width="0.373386" stroke-linecap="round" stroke-linejoin="round"/>
<path d="M46.0405 136.766L48.8127 141.553" stroke="black" stroke-width="0.373386" stroke-linejoin="round"/>
<path d="M48.0374 136.699L50.8096 141.486" stroke="black" stroke-width="0.373386" stroke-linejoin="round"/>
</g>
<defs>
<clipPath id="clip0_593_10094">
<rect width="288.254" height="264" fill="white"/>
</clipPath>
</defs>
</svg>
