<svg width="16" height="16" viewBox="0 0 16 16" fill="none" xmlns="http://www.w3.org/2000/svg">
<path d="M4.10301 6.2915H2.25928V12.599H4.10301V6.2915Z" fill="#2276FF"/>
<path d="M7.30467 6.2915H5.46094V12.599H7.30467V6.2915Z" fill="#2276FF"/>
<path d="M10.5073 6.2915H8.66357V12.599H10.5073V6.2915Z" fill="#2276FF"/>
<path d="M13.709 6.2915H11.8652V12.599H13.709V6.2915Z" fill="#2276FF"/>
<path d="M14.9061 13.3423H1.06197C0.770857 13.3423 0.544434 13.5849 0.544434 13.876V14.8302C0.544434 15.1213 0.78703 15.3639 1.07815 15.3639H14.9223C15.2134 15.3639 15.456 15.1213 15.456 14.8302V13.876C15.4237 13.5849 15.1972 13.3423 14.9061 13.3423Z" fill="#2276FF"/>
<path d="M15.1325 3.39635L8.21047 0.0485192C8.06491 -0.0161731 7.90318 -0.0161731 7.75762 0.0485192L0.835549 3.39635C0.657645 3.47721 0.544434 3.67129 0.544434 3.86537V5.01365C0.544434 5.30477 0.78703 5.54737 1.07815 5.54737H14.9223C15.2134 5.54737 15.456 5.30477 15.456 5.01365V3.86537C15.4237 3.67129 15.3105 3.47721 15.1325 3.39635ZM7.98405 3.99475C7.41799 3.99475 6.94897 3.52573 6.94897 2.95967C6.94897 2.39362 7.41799 1.9246 7.98405 1.9246C8.55011 1.9246 9.01912 2.39362 9.01912 2.95967C9.01912 3.52573 8.55011 3.99475 7.98405 3.99475Z" fill="#2276FF"/>
</svg>
