<svg width="263" height="656" viewBox="0 0 263 656" fill="none" xmlns="http://www.w3.org/2000/svg">
<g clip-path="url(#clip0_62_2178)">
<path d="M-10.8643 662.556L-28.9951 652.694L129.441 459.746L147.564 469.616L-10.8643 662.556Z" fill="#164BA2"/>
<mask id="mask0_62_2178" style="mask-type:luminance" maskUnits="userSpaceOnUse" x="129" y="188" width="71" height="282">
<path d="M147.563 469.616L129.433 459.753C163.093 418.769 181.685 367.946 181.783 316.661C181.882 265.369 163.464 219.748 129.939 188.203L148.07 198.065C181.594 229.611 200.012 275.231 199.914 326.523C199.816 377.808 181.224 428.632 147.563 469.616Z" fill="white"/>
</mask>
<g mask="url(#mask0_62_2178)">
<path d="M147.563 469.616L129.433 459.753C133.236 455.125 136.842 450.368 140.252 445.505L158.383 455.367C154.973 460.23 151.359 464.987 147.563 469.616Z" fill="#144494"/>
<path d="M158.391 455.367L140.26 445.505C145.575 437.927 150.406 430.084 154.746 422.014L172.877 431.876C168.537 439.946 163.706 447.789 158.391 455.367Z" fill="#13428F"/>
<path d="M172.869 431.876L154.738 422.014C159.895 412.424 164.348 402.524 168.076 392.397L186.206 402.26C182.486 412.387 178.025 422.287 172.869 431.876Z" fill="#12408A"/>
<path d="M186.207 402.252L168.076 392.39C177.02 368.052 181.738 342.413 181.784 316.654C181.882 265.361 163.464 219.741 129.939 188.196L148.07 198.058C181.595 229.603 200.013 275.223 199.914 326.516C199.869 352.275 195.151 377.914 186.207 402.252Z" fill="#123D85"/>
</g>
<path d="M-93.8136 611.196L-111.944 601.326L35.8009 421.402L53.9316 431.272L-93.8136 611.196Z" fill="#164BA2"/>
<mask id="mask1_62_2178" style="mask-type:luminance" maskUnits="userSpaceOnUse" x="35" y="252" width="52" height="180">
<path d="M53.9305 431.271L35.7998 421.409C56.6902 395.974 68.2204 364.436 68.2809 332.619C68.3414 300.786 56.9171 272.478 36.1098 252.897L54.2406 262.759C75.0478 282.332 86.4722 310.641 86.4117 342.481C86.3512 374.299 74.821 405.836 53.9305 431.271Z" fill="white"/>
</mask>
<g mask="url(#mask1_62_2178)">
<path d="M53.9305 431.271L35.7998 421.409C38.1588 418.535 40.3968 415.593 42.5138 412.575L60.6445 422.437C58.5275 425.455 56.2895 428.405 53.9305 431.271Z" fill="#144494"/>
<path d="M60.6357 422.437L42.5049 412.575C45.8014 407.871 48.803 403 51.4947 397.993L69.6254 407.856C66.9338 412.862 63.9322 417.733 60.6357 422.437Z" fill="#13428F"/>
<path d="M69.6268 407.856L51.4961 397.994C54.6943 392.042 57.4616 385.9 59.7752 379.615L77.9059 389.478C75.5923 395.763 72.8326 401.904 69.6268 407.856Z" fill="#12408A"/>
<path d="M77.9063 389.478L59.7756 379.615C65.3252 364.512 68.2512 348.599 68.2815 332.619C68.3419 300.786 56.9176 272.478 36.1104 252.897L54.2411 262.759C75.0484 282.332 86.4727 310.641 86.4122 342.481C86.382 358.462 83.4559 374.374 77.9063 389.478Z" fill="#123D85"/>
</g>
<path d="M148.071 198.066L129.941 188.196L-27.8604 39.7109L-9.72957 49.5807L148.071 198.066Z" fill="#113B80"/>
<path d="M54.2416 262.76L36.1108 252.897L-111.037 114.434L-92.9139 124.296L54.2416 262.76Z" fill="#113B80"/>
<mask id="mask2_62_2178" style="mask-type:luminance" maskUnits="userSpaceOnUse" x="-201" y="-49" width="210" height="76">
<path d="M-10.0723 -32.9699L8.05846 -23.1077C-16.7863 -36.6304 -45.245 -41.1379 -73.7189 -37.1295C-112.876 -31.6236 -152.064 -10.0312 -181.929 26.3469L-200.06 16.4847C-170.194 -19.8934 -131.007 -41.4858 -91.8497 -46.9917C-63.3758 -50.9925 -34.9246 -46.485 -10.0723 -32.9699Z" fill="white"/>
</mask>
<g mask="url(#mask2_62_2178)">
</g>
<path d="M192.112 144.436C237.348 187.001 262.2 248.564 262.072 317.788C261.943 386.997 236.849 455.579 191.432 510.887L32.9954 703.835C3.12274 740.206 -36.0648 761.805 -75.2145 767.304C-114.372 772.81 -153.499 762.221 -183.243 734.231L-402.513 527.911C-420.047 511.409 -432.355 490.648 -439.531 467.755C-445.436 452.281 -448.407 435.438 -448.43 418.164C-448.339 399.885 -445.3 382.195 -439.334 365.049C-432.076 340.122 -419.684 315.897 -402.075 294.456L-181.927 26.347C-152.062 -10.0312 -112.867 -31.6236 -73.7175 -37.1295C-34.5602 -42.6353 4.55933 -32.0471 34.311 -4.04881L192.112 144.436ZM147.564 469.616C181.224 428.632 199.816 377.808 199.915 326.523C200.013 275.231 181.595 229.611 148.07 198.065L-9.73056 49.5806C-27.3774 32.9797 -50.5739 26.7024 -73.8007 29.9697C-85.7013 31.6487 -97.6171 35.8234 -108.784 42.3957C-86.8052 45.2545 -66.0054 54.5495 -48.8727 70.6663L98.2827 209.138C131.845 240.721 148.577 286.054 148.486 333.754C148.396 381.446 131.49 431.506 97.7913 472.55L-49.9615 652.474C-67.1547 673.416 -88.0074 688.573 -110.009 697.603C-98.8571 701.044 -86.9564 701.876 -75.0482 700.205C-51.829 696.937 -28.5947 684.141 -10.8798 662.563L147.556 469.616M-205.971 578.667C-194.093 576.995 -182.91 570.423 -174.495 560.183L-37.955 393.91C-29.5323 383.654 -24.8824 370.949 -24.8597 358.129C-24.837 345.295 -29.4415 333.89 -37.8264 325.994L-173.822 198.043C-182.207 190.147 -193.367 186.721 -205.245 188.392C-217.13 190.064 -228.305 196.628 -236.728 206.884L-373.26 373.149C-377.91 378.814 -381.282 385.152 -383.452 391.686C-384.36 397.396 -384.881 403.091 -384.889 408.741C-384.896 414.383 -384.397 419.942 -383.513 425.387C-381.366 431.324 -378.016 436.709 -373.389 441.065L-237.401 569.032C-229.016 576.92 -217.856 580.346 -205.971 578.674M-172.975 635.306C-163.184 639.481 -152.387 640.737 -141.583 639.216C-124.307 636.789 -107.008 627.252 -93.8216 611.195L53.9236 431.271C74.8141 405.837 86.3442 374.299 86.4047 342.481C86.4652 310.649 75.0409 282.34 54.2336 262.759L-92.9218 124.296C-106.055 111.938 -123.324 107.264 -140.608 109.699C-151.412 111.219 -162.224 115.507 -172.03 122.435C-156.576 125.695 -142.029 132.872 -129.788 144.398L6.20755 272.365C26.9543 291.885 37.2975 319.906 37.2446 349.394C37.1917 378.875 26.7426 409.815 5.90515 435.181L-130.635 601.454C-142.921 616.422 -157.506 627.698 -172.975 635.299" fill="#1E67DF"/>
</g>
<defs>
<clipPath id="clip0_62_2178">
<rect width="728.64" height="817.109" fill="white" transform="translate(-466.56 -48.3982)"/>
</clipPath>
</defs>
</svg>
