<svg width="438" height="430" viewBox="0 0 438 430" fill="none" xmlns="http://www.w3.org/2000/svg">
<g opacity="0.15" clip-path="url(#clip0_62_1547)">
<path d="M556.374 -11.0083L831.28 264.112C853.263 286.111 868.714 312.199 877.738 339.939C885.171 358.844 888.925 378.875 889 398.921C889 399.297 889 399.688 889 400.064C888.925 420.11 885.171 440.141 877.738 459.061C868.714 486.801 853.263 512.888 831.28 534.888L556.374 810.008C481.776 884.664 360.405 884.664 285.807 810.008L87.9615 612.009C31.2476 555.25 0 479.768 0 399.492C0 319.217 31.2325 243.734 87.9615 186.976L285.807 -11.0083C360.405 -85.6639 481.776 -85.6639 556.374 -11.0083ZM624.53 609.514L795.032 438.879C800.828 433.079 805.033 426.271 807.735 419.043C808.862 412.581 809.492 406.044 809.492 399.492C809.492 392.941 808.847 386.419 807.735 379.957C805.033 372.714 800.828 365.921 795.032 360.106L624.53 189.471C614.019 178.952 600.039 173.151 585.174 173.151C570.308 173.151 556.329 178.937 545.818 189.471L375.315 360.106C364.805 370.625 359.009 384.615 359.009 399.492C359.009 414.37 364.79 428.36 375.315 438.879L545.818 609.514C556.329 620.033 570.308 625.834 585.174 625.834C600.039 625.834 614.019 620.048 624.53 609.514ZM543.746 696.913C524.391 690.616 506.177 679.917 490.831 664.544L320.328 493.909C294.321 467.882 281.303 433.68 281.303 399.492C281.303 365.29 294.306 331.103 320.328 305.076L490.831 134.441C506.177 119.083 524.406 108.369 543.746 102.072C511.883 85.3317 471.491 90.3509 444.733 117.13L260.236 301.77C234.154 327.872 219.784 362.57 219.784 399.492C219.784 436.415 234.154 471.113 260.236 497.215L444.733 681.855C471.491 708.634 511.868 713.653 543.746 696.913ZM340.795 44.0217L142.949 242.021C100.92 284.083 77.7659 340.014 77.7659 399.508C77.7659 459.001 100.92 514.917 142.949 556.979L340.795 754.978C374.264 788.474 423.576 796.604 464.779 779.458C437.27 772.56 411.218 758.39 389.731 736.9L205.234 552.26C163.145 510.154 142.108 454.823 142.108 399.508C142.108 344.192 163.145 288.861 205.234 246.755L389.731 62.1146C411.203 40.6255 437.255 26.4548 464.779 19.5572C423.576 2.41109 374.264 10.5559 340.795 44.0367V44.0217Z" fill="#C0D7FF"/>
</g>
<defs>
<clipPath id="clip0_62_1547">
<rect width="889" height="933" fill="white" transform="matrix(-1 0 0 1 889 -67)"/>
</clipPath>
</defs>
</svg>
