<svg width="40" height="33" viewBox="0 0 40 33" fill="none" xmlns="http://www.w3.org/2000/svg">
<path d="M17.7168 0.597168C16.6499 0.597168 15.7847 1.46877 15.7847 2.54357V11.6745C15.7847 12.7494 16.6499 13.621 17.7168 13.621H18.8481V18.0879L23.2821 13.621H37.1687C38.2356 13.621 39.1008 12.7494 39.1008 11.6745V2.54357C39.1008 1.46877 38.2356 0.597168 37.1687 0.597168H17.7168ZM5.09883 2.83003C4.83272 2.83003 4.56539 2.93286 4.36246 3.13729L4.30049 3.19972C4.30413 3.19605 4.30778 3.19115 4.31264 3.18748L2.79736 4.714C2.08651 5.43013 1.52268 6.25277 1.10467 7.15864C1.06336 7.24923 1.02326 7.34104 0.984376 7.43285C0.967364 7.47202 0.952782 7.51242 0.936986 7.55159C0.877444 7.69849 0.821548 7.84539 0.769297 7.99596C0.736488 8.09145 0.704894 8.18693 0.674516 8.28486C0.622265 8.4538 0.57609 8.62518 0.532345 8.79778C0.526269 8.82349 0.518978 8.8492 0.512903 8.87491C0.4886 8.97529 0.466727 9.07567 0.444855 9.17605C0.424198 9.27765 0.40354 9.37926 0.385313 9.48209C0.382883 9.49922 0.380453 9.51636 0.376807 9.53228C0.328202 9.81383 0.290533 10.0991 0.2638 10.3892C0.262584 10.4002 0.261369 10.4112 0.260154 10.4222C0.258939 10.4308 0.258939 10.4382 0.258939 10.4467C0.195752 11.1837 0.201828 11.95 0.278381 12.7371C0.289317 12.851 0.301469 12.9648 0.31605 13.0799C0.652644 15.8293 1.83254 18.8212 3.85453 21.753C4.78168 23.0971 5.88502 24.4278 7.16456 25.7181C8.79406 27.3584 10.4892 28.7123 12.1928 29.7761C12.3143 29.852 12.4358 29.9267 12.5573 30.0002C12.8004 30.1458 13.0446 30.2866 13.2876 30.4213C13.4092 30.4886 13.5307 30.5547 13.6522 30.6184C14.6255 31.1325 15.5952 31.5524 16.5515 31.878C16.6706 31.9184 16.7897 31.9576 16.9088 31.9955C17.0278 32.0335 17.1469 32.069 17.2648 32.1045C17.317 32.1204 17.3693 32.1339 17.4215 32.1485C17.4872 32.1669 17.554 32.1865 17.6196 32.2049C17.7375 32.2367 17.8553 32.2673 17.972 32.2954C18.0899 32.3248 18.2065 32.3518 18.3232 32.3775C18.4398 32.4032 18.5565 32.4277 18.6719 32.4509C22.3854 33.1866 25.7355 32.4117 28.0115 30.1189L29.5267 28.5924C29.5231 28.596 29.5207 28.5985 29.517 28.6022L29.5753 28.5434C29.6519 28.4663 29.7139 28.3806 29.7613 28.2888C29.7771 28.2582 29.7916 28.2276 29.8038 28.1957C29.8159 28.1639 29.8281 28.1321 29.8366 28.1003C29.8463 28.0684 29.8536 28.0354 29.8609 28.0023C29.867 27.9693 29.8718 27.9362 29.8755 27.9032C29.8791 27.8701 29.8803 27.8358 29.8803 27.8028C29.8803 27.7697 29.8791 27.7355 29.8755 27.7024C29.8718 27.6694 29.8682 27.6351 29.8609 27.602C29.8232 27.4037 29.7272 27.214 29.5753 27.061L23.7536 21.196C23.4486 20.8888 23.0014 20.8116 22.6248 20.9659C22.5616 20.9916 22.5008 21.0234 22.4437 21.0614C22.3854 21.0993 22.3307 21.1446 22.2797 21.196L18.3426 25.1635C16.0023 23.9443 14.4202 23.0139 12.1345 20.7113C9.8488 18.4086 8.9253 16.8148 7.71502 14.4571L11.6533 10.4896C12.0604 10.0795 12.0604 9.41476 11.6533 9.00467L5.83156 3.13974C5.62863 2.9353 5.3613 2.83248 5.09519 2.83248L5.09883 2.83003Z" fill="#2276FF"/>
</svg>
