<svg width="405" height="403" viewBox="0 0 405 403" fill="none" xmlns="http://www.w3.org/2000/svg">
<g clip-path="url(#clip0_309_19126)">
<path opacity="0.15" d="M17.3373 273.448L167.556 186.735C188.909 174.41 215.196 174.41 236.548 186.735L386.729 273.448C399.604 280.889 399.604 299.467 386.729 306.908L236.548 393.633C215.196 405.959 188.896 405.959 167.544 393.633L17.3373 306.921C4.46211 299.48 4.46211 280.889 17.3373 273.461V273.448Z" fill="black"/>
<path d="M10.0368 250.28L166.201 160.141C188.397 147.33 215.733 147.33 237.916 160.141L394.03 250.28C407.416 258.015 407.416 277.335 394.03 285.057L237.916 375.209C215.72 388.02 188.384 388.02 166.188 375.209L10.0368 285.057C-3.34983 277.322 -3.34983 258.003 10.0368 250.267V250.28Z" fill="black"/>
<path d="M0.0639648 270.622V217.408L196.043 204.252L404.002 220.541V267.375L361.707 291.501L210.031 367.691L0.0639648 270.622Z" fill="black"/>
<path d="M202.052 334.129C189.561 334.129 177.248 330.83 166.431 324.578L10.2798 234.426C4.14264 230.884 0.473145 224.53 0.473145 217.446C0.473145 210.363 4.14264 204.009 10.2798 200.467L166.431 110.328C177.248 104.089 189.561 100.79 202.052 100.79C214.544 100.79 226.857 104.089 237.673 110.341L393.787 200.48C399.924 204.021 403.593 210.363 403.593 217.459C403.593 224.543 399.924 230.897 393.787 234.439L237.673 324.591C226.857 330.843 214.531 334.141 202.04 334.141L202.052 334.129Z" fill="#E2FDFF"/>
<path d="M202.052 101.276C214.454 101.276 226.69 104.549 237.43 110.763L393.544 200.902C399.527 204.354 403.107 210.555 403.107 217.459C403.107 224.376 399.527 230.565 393.544 234.017L237.43 324.169C226.69 330.37 214.455 333.656 202.04 333.656C189.625 333.656 177.402 330.382 166.662 324.169L10.5227 234.017C4.53894 230.565 0.95895 224.363 0.95895 217.459C0.95895 210.542 4.53894 204.354 10.5227 200.902L166.687 110.763C177.427 104.561 189.663 101.288 202.065 101.288M202.065 100.329C189.689 100.329 177.299 103.526 166.214 109.931L10.0368 200.058C-3.34983 207.78 -3.34983 227.112 10.0368 234.848L166.188 325C177.286 331.405 189.663 334.615 202.052 334.615C214.442 334.615 226.818 331.405 237.916 325L394.03 234.848C407.416 227.112 407.416 207.793 394.03 200.071L237.916 109.931C226.818 103.526 214.442 100.317 202.052 100.317L202.065 100.329Z" fill="black"/>
<path d="M34.841 179.102L170.83 100.611C190.149 89.4615 213.956 89.4615 233.288 100.611L369.251 179.102C380.911 185.827 380.911 202.666 369.251 209.391L233.301 287.895C213.969 299.057 190.162 299.057 170.83 287.895L34.841 209.391C23.1804 202.653 23.1804 185.827 34.841 179.102Z" fill="black"/>
<path d="M26.1469 196.81V150.488L196.823 139.019L377.92 153.198V193.997L341.097 214.992L208.995 281.349L26.1469 196.81Z" fill="black"/>
<path d="M202.052 252.057C191.185 252.057 180.47 249.18 171.06 243.747L35.0712 165.242C29.7396 162.174 26.5687 156.663 26.5687 150.513C26.5687 144.363 29.7524 138.853 35.0712 135.784L171.06 57.2928C180.47 51.8589 191.185 48.9949 202.04 48.9949C212.895 48.9949 223.622 51.8717 233.032 57.3056L368.982 135.797C374.314 138.866 377.485 144.376 377.485 150.526C377.485 156.676 374.301 162.187 368.982 165.255L233.032 243.772C223.622 249.206 212.907 252.083 202.04 252.083L202.052 252.057Z" fill="#C0D7FF"/>
<path d="M202.052 49.468C212.831 49.468 223.468 52.3192 232.802 57.702L368.765 136.193C373.943 139.185 377.025 144.53 377.025 150.513C377.025 156.484 373.93 161.841 368.765 164.833L232.815 243.337C223.481 248.733 212.843 251.584 202.065 251.584C191.287 251.584 180.649 248.733 171.316 243.35L35.3141 164.833C30.1359 161.841 27.0545 156.497 27.0545 150.513C27.0545 144.542 30.1486 139.185 35.3269 136.193L171.316 57.702C180.649 52.3192 191.287 49.468 202.065 49.468M202.065 48.509C191.287 48.509 180.496 51.2963 170.842 56.8709L34.841 135.375C23.1804 142.1 23.1804 158.939 34.841 165.664L170.83 244.181C180.496 249.756 191.274 252.543 202.065 252.543C212.856 252.543 223.635 249.756 233.301 244.169L369.251 165.664C380.911 158.926 380.911 142.1 369.251 135.375L233.288 56.8837C223.622 51.3091 212.843 48.5218 202.052 48.5218L202.065 48.509Z" fill="black"/>
<path d="M59.1466 112.079L175.369 44.9928C191.888 35.4547 212.23 35.4675 228.749 44.9928L344.945 112.079C354.905 117.833 354.905 132.217 344.945 137.97L228.762 205.07C212.242 214.608 191.9 214.608 175.381 205.07L59.1466 137.97C49.1865 132.217 49.1865 117.833 59.1466 112.079Z" fill="black"/>
<path d="M51.718 127.23V87.633L197.577 77.8264L352.348 89.9473V124.814L320.87 142.765L207.985 199.47L51.718 127.23Z" fill="black"/>
<path d="M59.1466 74.7069L175.369 7.63318C191.888 -1.90495 212.23 -1.89217 228.749 7.63318L344.945 74.7197C354.905 80.4733 354.905 94.8572 344.945 100.611L228.762 167.71C212.242 177.248 191.9 177.248 175.381 167.71L59.1466 100.598C49.1865 94.8444 49.1865 80.4605 59.1466 74.7069Z" fill="#2276FF" stroke="black" stroke-width="0.958927" stroke-miterlimit="10"/>
<path d="M167.314 49.7238L233.569 49.8644C238.862 49.8644 243.874 50.6188 248.311 51.9357C251.495 52.7412 254.359 53.8791 256.788 55.2728C256.839 55.2983 256.877 55.3239 256.928 55.3495C259.345 56.7559 261.314 58.418 262.708 60.2464C264.971 62.8035 266.275 65.6931 266.288 68.7617L266.531 107.016C266.594 117.398 252.019 125.811 234.042 125.773L186.351 125.671C172.684 125.645 159.808 122.538 150.104 116.938C140.4 111.338 135.03 103.91 134.979 96.008L134.8 68.4804C134.736 58.0984 149.311 49.6854 167.288 49.7238H167.314ZM250.485 88.2982L250.331 64.568C250.331 63.7625 250.011 62.9953 249.462 62.3049C248.81 61.7807 248.106 61.2692 247.314 60.8217C246.521 60.3615 245.652 59.9523 244.744 59.5815C243.542 59.2619 242.225 59.0829 240.819 59.0829L199.725 58.9934C197.194 58.9934 194.816 59.556 193.026 60.5788C191.236 61.6017 190.264 62.9825 190.277 64.4401L190.43 88.1704C190.43 89.6279 191.44 91.0088 193.23 92.0444C195.033 93.0801 197.411 93.6554 199.943 93.6682L241.036 93.7577C243.567 93.7577 245.946 93.1951 247.736 92.1723C249.526 91.1366 250.497 89.7686 250.485 88.311V88.2982ZM251.354 99.9971C248.273 100.905 244.782 101.416 241.087 101.404L199.994 101.314C193.729 101.301 188.026 99.8181 183.897 97.4272C179.767 95.0363 177.197 91.7503 177.171 88.132L177.018 64.4017C177.005 62.2665 177.9 60.2592 179.46 58.4692C173.617 59.5048 169.372 62.6629 169.398 66.3835L169.564 92.0572C169.589 95.6883 172.057 99.1021 176.519 101.685C180.981 104.255 186.901 105.687 193.192 105.7L237.66 105.789C244.104 105.802 249.564 103.347 251.367 99.9716L251.354 99.9971ZM148.084 68.506L148.263 96.0336C148.301 101.877 152.278 107.387 159.463 111.543C166.649 115.698 176.187 117.987 186.326 118.012L234.017 118.114C242.084 118.127 248.989 115.276 251.865 111.223C247.723 112.655 242.89 113.46 237.712 113.46L193.243 113.371C183.104 113.345 173.885 110.954 167.198 107.093C160.512 103.232 156.356 97.9131 156.318 92.0572L156.152 66.3835C156.139 63.3917 157.545 60.6044 160.013 58.2135C152.994 59.8756 148.058 63.8647 148.084 68.5187V68.506Z" fill="white"/>
</g>
<defs>
<clipPath id="clip0_309_19126">
<rect width="404.079" height="402.89" fill="white"/>
</clipPath>
</defs>
</svg>
