<svg width="130" height="34" viewBox="0 0 130 34" fill="none" xmlns="http://www.w3.org/2000/svg">
<g clip-path="url(#clip0_115_9086)">
<path d="M21.0053 23.1771C21.0053 23.4927 21.0053 23.7217 21.0053 23.9508C21.0053 26.9287 20.9951 29.9014 21.0155 32.8793C21.0155 33.3578 20.9086 33.5461 20.3894 33.5309C19.1779 33.4952 17.9613 33.5207 16.6836 33.5207V8.06379C17.4675 8.06379 18.2565 8.05361 19.0455 8.06379C19.6767 8.07397 20.5472 7.88563 20.8679 8.2165C21.1937 8.55756 20.9849 9.41783 21.0053 10.0541C21.0155 10.3646 21.0053 10.6802 21.0053 11.1282C21.2853 10.9246 21.4533 10.7973 21.6212 10.6751C23.3672 9.41783 25.2761 8.58301 27.4293 8.30304C32.1634 7.6922 35.8844 10.6904 36.2917 15.4703C36.4291 17.0788 36.3782 18.667 35.7877 20.189C34.5966 23.2738 32.255 24.8773 29.0379 25.2488C26.2993 25.5695 23.7694 24.918 21.4584 23.4214C21.3464 23.3501 21.2242 23.2891 21.0002 23.1618L21.0053 23.1771ZM31.5322 16.7429C31.5882 14.834 30.5497 13.3578 28.6867 12.9047C26.3146 12.3295 24.2071 13.0371 22.2779 14.4369C21.3922 15.0783 20.761 15.8368 20.9951 17.033C21.0257 17.1857 20.9646 17.3639 21.0053 17.5064C21.102 17.8322 21.1529 18.2292 21.3667 18.4583C23.128 20.3672 25.3474 21.146 27.8977 20.7948C30.1629 20.4792 31.4609 18.9521 31.5271 16.7378L31.5322 16.7429Z" fill="#101828"/>
<path d="M116.348 33.3983C115.009 32.6958 113.736 32.029 112.418 31.3367C112.52 31.128 112.601 30.9346 112.703 30.7513C113.894 28.537 115.075 26.3176 116.292 24.1186C116.495 23.747 116.465 23.4976 116.246 23.1565C113.518 18.957 110.799 14.7472 108.081 10.5375C107.995 10.4052 107.908 10.2677 107.781 10.0692C109.084 9.29037 110.372 8.51663 111.726 7.70217C114.174 11.4487 116.607 15.1697 119.092 18.9773C121.143 15.185 123.159 11.4639 125.21 7.67163C126.529 8.35374 127.811 9.02058 129.13 9.70268C124.864 17.6131 120.624 25.4726 116.348 33.3983Z" fill="#101828"/>
<path d="M84.2482 8.26238H88.6565V25.8038H84.4315C84.4009 25.3304 84.3704 24.862 84.3347 24.2868C84.0751 24.4446 83.8613 24.5668 83.6526 24.6992C81.9779 25.7529 80.1708 26.043 78.2568 25.5951C75.9764 25.0657 74.5409 23.6098 73.8384 21.4006C73.0138 18.8198 72.9171 16.1473 72.8814 13.4698C72.856 11.7544 72.8814 10.0389 72.8814 8.27256H77.254C77.254 8.59325 77.2388 8.88849 77.254 9.17864C77.3915 11.8664 77.4984 14.5541 77.6969 17.2367C77.758 18.041 77.9972 18.8503 78.2823 19.6088C78.8982 21.2428 80.7308 21.8587 82.039 20.8967C82.7058 20.408 83.052 19.6851 83.2963 18.9063C83.8715 17.0432 84.0802 15.1191 84.1515 13.1797C84.2024 11.6475 84.2024 10.1102 84.2278 8.57289C84.2278 8.47617 84.2533 8.37946 84.2737 8.2522L84.2482 8.26238Z" fill="#101828"/>
<path d="M3.78491 19.2524C4.13615 20.6319 4.90479 21.6143 6.17738 22.1794C7.07329 22.5815 7.99464 22.6935 8.91091 22.3321C9.26214 22.1946 9.61338 21.93 9.84753 21.6296C10.3362 21.0086 10.1326 20.2247 9.37413 19.9905C8.04554 19.5731 6.68133 19.2728 5.33747 18.9012C4.55356 18.6823 3.7391 18.499 3.00609 18.1631C0.649251 17.0839 -0.292466 15.0885 0.135125 12.5179C0.715426 9.03098 3.65256 7.4886 6.52353 7.56495C9.8119 7.65658 12.1535 9.34658 13.6348 12.2583C13.6806 12.3448 13.7162 12.4415 13.7518 12.5331C13.762 12.5688 13.7518 12.6095 13.7518 12.7368C12.3265 13.2458 10.8707 13.765 9.53193 14.2384C8.98726 13.5563 8.55458 12.8844 7.99464 12.3448C7.42961 11.8052 6.70169 11.4896 5.88214 11.4744C5.25603 11.4591 4.73681 11.6067 4.44666 12.2226C4.13106 12.8997 4.01907 13.5818 4.5332 14.1926C4.7928 14.5031 5.14404 14.8187 5.51564 14.9358C6.84422 15.3481 8.19826 15.6841 9.5472 16.0404C10.4736 16.2847 11.4154 16.4782 12.3265 16.7683C15.7218 17.8526 16.5872 21.314 14.1234 23.9203C12.7949 25.3252 11.1049 25.987 9.2316 26.1855C7.26672 26.3993 5.36292 26.1295 3.60166 25.1674C1.85058 24.2104 0.63398 22.8259 0.242022 20.8152C0.0893113 20.016 0.109673 19.9905 0.888498 19.8327C1.8404 19.6393 2.79738 19.4459 3.79 19.2473L3.78491 19.2524Z" fill="#101828"/>
<path d="M53.3444 19.6799C53.6091 15.1851 55.2941 11.688 58.7097 9.09195C59.5649 8.44039 60.532 8.00262 61.6061 7.88554C63.9273 7.63611 65.714 9.00542 66.2638 11.4233C66.6608 13.1592 66.5081 14.8848 66.0347 16.5748C65.2304 19.4407 63.7237 21.8637 61.3261 23.686C60.42 24.3732 59.4223 24.8772 58.2872 25.0095C56.1085 25.2691 54.3625 24.0983 53.7262 21.9044C53.4972 21.1103 53.4361 20.2602 53.3394 19.6748L53.3444 19.6799Z" fill="#101828"/>
<path d="M93.4056 10.3339C92.4537 10.3339 91.6138 10.3186 90.779 10.339C90.3921 10.3492 90.2496 10.2219 90.2598 9.82488C90.2852 8.77117 90.27 7.71747 90.27 6.59759H93.37V0.611328H97.7884V6.56705H101.133C101.133 7.78365 101.143 8.93407 101.112 10.0845C101.112 10.171 100.792 10.3186 100.614 10.3237C99.6973 10.3492 98.7861 10.3339 97.7833 10.3339C97.7833 11.4487 97.7833 12.5024 97.7833 13.5561C97.7833 17.4095 97.7732 21.268 97.7935 25.1214C97.7935 25.6966 97.6408 25.8748 97.0605 25.8544C95.8694 25.8137 94.6731 25.8392 93.4056 25.8392V10.3339Z" fill="#101828"/>
<path d="M53.8942 11.5507C52.5351 12.3906 51.2269 13.1999 49.7965 14.0806C49.766 14.0042 49.7456 13.8973 49.6896 13.8159C48.5595 12.2328 47.3226 11.8153 45.4188 12.3753C44.2887 12.7113 43.3877 13.3781 42.6649 14.2944C42.2831 14.7779 42.0948 15.2972 42.0999 15.9436C42.1304 18.9826 42.1151 22.0164 42.1151 25.0554C42.1151 25.2895 42.1151 25.5237 42.1151 25.7986H37.7222V8.19101H42.0693C42.0999 8.57279 42.1253 8.9393 42.161 9.40761C44.6247 8.00776 47.1342 7.34601 49.8474 8.28773C51.5578 8.8833 52.7896 10.0795 53.9044 11.5557L53.8942 11.5507Z" fill="#101828"/>
<path d="M106.702 25.8139C106.62 25.8241 106.508 25.8444 106.391 25.8444C105.078 25.8444 103.765 25.8444 102.354 25.8444V0.468994H106.702V25.8139Z" fill="#101828"/>
<path d="M69.4402 19.2218C69.0177 20.1177 68.6206 20.9526 68.2032 21.8281C67.2869 21.4107 66.4419 21.0238 65.5664 20.6217C65.9736 19.7614 66.3707 18.9266 66.7983 18.0205C67.6484 18.4074 68.4883 18.7892 69.4402 19.2218Z" fill="#101828"/>
<path d="M64.9507 21.5583C65.8008 21.9502 66.6255 22.332 67.6079 22.78C66.992 23.4417 66.4473 24.0526 65.8721 24.6329C65.8008 24.7041 65.5718 24.6888 65.4496 24.6329C64.7217 24.3173 64.009 23.9762 63.2251 23.6097C63.8054 22.9174 64.3602 22.2557 64.9507 21.5481V21.5583Z" fill="#101828"/>
<path d="M69.7866 18.168C68.8195 17.7251 67.9796 17.3382 67.1396 16.9565C67.3025 16.0758 67.4603 15.241 67.6334 14.3298C68.4224 14.6912 69.1911 15.0374 69.9495 15.4039C70.0412 15.4497 70.1277 15.6279 70.1124 15.7348C70.0208 16.5187 69.9088 17.2975 69.7866 18.168Z" fill="#101828"/>
<path d="M64.7163 25.534C62.899 26.9135 60.6134 27.1069 59.2085 26.1194C60.1502 25.5951 61.1327 25.0504 62.1151 24.5108C62.2067 24.4599 62.3543 24.4497 62.446 24.4905C63.1892 24.8213 63.9222 25.1675 64.7163 25.534Z" fill="#101828"/>
<path d="M66.8696 9.65698C68.7632 10.2373 69.9697 11.9527 70.0766 14.2281C69.2672 13.8565 68.5036 13.5053 67.7452 13.1439C67.6739 13.1082 67.6179 12.9912 67.6026 12.9046C67.5161 12.3549 67.4754 11.7949 67.3583 11.2503C67.2463 10.731 67.0478 10.2322 66.8696 9.65698Z" fill="#101828"/>
<path d="M31.5377 16.7378C31.4715 18.9521 30.1734 20.4792 27.9082 20.7948C25.358 21.1461 23.1386 20.3672 21.3773 18.4584C21.1635 18.2242 21.1126 17.8323 21.0159 17.5065C20.9752 17.3588 21.0362 17.1858 21.0057 17.0331C20.7715 15.8368 21.4027 15.0784 22.2885 14.437C24.2126 13.0371 26.32 12.3296 28.6972 12.9048C30.5603 13.3578 31.5987 14.834 31.5427 16.7429L31.5377 16.7378Z" fill="white"/>
</g>
<defs>
<clipPath id="clip0_115_9086">
<rect width="129.097" height="33.0619" fill="white" transform="translate(0.0332031 0.468994)"/>
</clipPath>
</defs>
</svg>
