<svg width="36" height="40" viewBox="0 0 36 40" fill="none" xmlns="http://www.w3.org/2000/svg">
<path d="M17.7793 0.267822C17.7793 0.267822 17.3466 0.361778 17.1543 0.455735L1.09587 10.2742C0.518927 10.65 0.326611 11.4016 0.663164 11.9654C0.759322 12.1063 0.903559 12.2472 1.09587 12.3882L17.1543 22.2066C17.587 22.4415 18.0678 22.4415 18.5005 22.2066L34.5588 12.3882C35.1358 12.0123 35.3281 11.2607 34.9915 10.697C34.8954 10.556 34.7512 10.4151 34.5588 10.2742L18.5005 0.455735C18.5005 0.455735 18.0197 0.267822 17.7793 0.267822ZM4.17293 17.2269L1.09587 19.106C0.518927 19.4819 0.326611 20.2335 0.711243 20.8442C0.807401 20.9852 0.951638 21.1261 1.09587 21.2201L17.1543 31.0385C17.587 31.2734 18.0678 31.2734 18.5005 31.0385L34.5588 21.2201C35.1358 20.8442 35.3281 20.0926 34.9435 19.4819C34.8473 19.3409 34.7031 19.2 34.5588 19.106L31.4818 17.2269L19.8467 24.3206C18.5966 25.0723 17.0581 25.0723 15.808 24.3206L4.17293 17.2269ZM4.17293 26.0588L1.09587 27.9379C0.518927 28.3137 0.326611 29.0654 0.711243 29.6291C0.807401 29.7701 0.951638 29.911 1.09587 30.005L17.1543 39.8234C17.587 40.0583 18.0678 40.0583 18.5005 39.8234L34.5588 30.005C35.1358 29.6291 35.3281 28.8775 34.9435 28.3137C34.8473 28.1728 34.7031 28.0319 34.5588 27.9379L31.4818 26.0588L19.8467 33.1995C18.5966 33.9511 17.0581 33.9511 15.808 33.1995L4.17293 26.0118V26.0588Z" fill="#C0D7FF"/>
</svg>
