<svg width="167" height="30" viewBox="0 0 167 30" fill="none" xmlns="http://www.w3.org/2000/svg">
<path d="M3.28283 1.46272H8.94182V6.51142H13.0196V10.5337H8.94182V18.828C8.94182 20.5757 9.49662 20.9086 11.383 20.9086H13.0196V25.0141H9.4134C4.83628 25.0141 3.28283 24.1264 3.28283 19.8267V10.5337H0.370117V6.51142H3.28283V1.46272ZM32.2158 19.2441C30.5514 23.6271 26.6678 25.5134 22.9783 25.5134C16.9587 25.5134 12.8254 21.8795 12.8254 15.6934C12.8254 9.75702 17.3193 6.0121 22.7564 6.0121C28.9147 6.0121 32.6874 10.6724 32.299 17.2469H18.5676C18.7341 19.8822 20.7869 21.075 22.8396 21.075C25.0034 21.075 26.3626 20.2983 27.0006 19.2164L32.2158 19.2441ZM18.6509 13.8071H26.6678C26.5568 11.4769 24.9479 10.3118 22.7841 10.3118C20.7314 10.3118 18.956 11.3659 18.6509 13.8071ZM51.7726 13.3078H46.502C46.0026 11.144 44.6434 10.395 42.979 10.395C40.9539 10.395 38.9566 11.782 38.9566 15.7489C38.9566 19.7712 40.9539 21.1027 42.979 21.1027C45.0595 21.1027 46.3633 20.0209 46.7794 18.2455H52.05C50.7739 23.738 46.3355 25.4857 42.6183 25.4857C36.5155 25.4857 33.159 21.5743 33.159 15.6657C33.159 9.75702 37.0148 5.98436 42.6183 5.98436C46.4465 5.98436 50.663 7.73199 51.7726 13.3078ZM58.347 8.98029C59.1515 7.59329 61.1765 6.12306 64.0892 6.12306C68.8328 6.12306 70.3307 8.92481 70.3307 13.9458V25.0696H64.6718V15.3883C64.6718 12.753 64.5885 10.5892 61.8423 10.5892C59.4011 10.5892 58.3747 12.1704 58.3747 15.6379V25.1251H52.7158V0.158936H58.3747L58.347 8.98029ZM83.3686 11.9762C82.9802 10.5892 81.5378 10.2009 79.7624 10.2009C77.7928 10.2009 76.8219 10.6724 76.8219 11.5879C76.8219 12.4478 77.4877 12.9471 79.0966 13.2523L82.5641 13.8626C87.0026 14.667 89.1385 15.9985 89.1385 19.2441C89.1385 23.4052 85.3104 25.5134 80.1785 25.5134C75.2407 25.5134 71.7455 23.4329 71.1075 19.05H76.3781C76.8774 20.8253 78.3199 21.3801 80.2617 21.3801C82.2867 21.3801 83.7015 20.8253 83.7015 19.7157C83.7015 18.9113 82.9802 18.3565 80.7888 17.9958L77.4877 17.441C73.9092 16.8585 71.4681 15.0554 71.4681 11.782C71.4681 8.09261 75.3517 6.06758 79.9288 6.06758C84.1453 6.06758 88.0012 7.75973 88.6947 12.004L83.3686 11.9762ZM92.0513 1.46272H97.7103V6.51142H101.788V10.5337H97.7103V18.828C97.7103 20.5757 98.2651 20.9086 100.151 20.9086H101.76V25.0141H98.1818C93.6047 25.0141 92.0513 24.1264 92.0513 19.8267V10.5337H89.1385V6.51142H92.0513V1.46272ZM114.715 12.753C114.715 10.5337 113.661 9.8125 111.58 9.8125C109.749 9.8125 108.529 10.7557 108.279 12.531H102.981C103.258 9.03578 106.559 5.95662 112.052 5.95662C117.406 5.95662 120.429 8.12035 120.318 13.7516L120.235 17.7739V19.7157C120.235 21.7408 120.374 23.9322 120.651 25.0696H115.076L114.992 22.8226C113.605 24.7922 111.414 25.5134 108.751 25.5134C105.228 25.5134 102.343 23.4606 102.343 20.0763C102.343 15.527 107.475 14.0567 114.659 13.5019L114.715 12.753ZM114.881 16.8308C110.915 17.2191 108.279 17.6075 108.279 19.6602C108.279 20.8531 109.417 21.6575 110.887 21.6575C113.162 21.6575 114.881 20.6866 114.881 17.2746V16.8308ZM133.301 11.9762C132.802 11.893 132.247 11.8375 131.747 11.8653C129.001 11.8653 127.586 12.8639 127.586 15.7489V25.0418H121.9V6.51142H127.364V10.0344C128.224 7.81521 129.778 6.51143 132.413 6.40047H132.829C132.996 6.40047 133.134 6.40046 133.301 6.4282V11.9762ZM145.839 11.9762C145.451 10.5892 144.009 10.2009 142.233 10.2009C140.264 10.2009 139.293 10.6724 139.293 11.5879C139.293 12.4478 139.958 12.9471 141.567 13.2523L145.007 13.8626C149.446 14.667 151.582 15.9985 151.582 19.2441C151.582 23.4052 147.753 25.5134 142.622 25.5134C137.712 25.5134 134.189 23.4329 133.551 19.05H138.821C139.32 20.8253 140.763 21.3801 142.705 21.3801C144.73 21.3801 146.145 20.8253 146.145 19.7157C146.145 18.9113 145.423 18.3565 143.232 17.9958L139.931 17.441C136.352 16.8585 133.939 15.0554 133.939 11.782C133.939 8.09261 137.822 6.06758 142.4 6.06758C146.616 6.06758 150.472 7.75973 151.165 12.004L145.839 11.9762Z" fill="black"/>
<path d="M151.471 29.8409V25.0696H166.783V29.8409H151.471Z" fill="#39C463"/>
</svg>
