<svg width="35" height="40" viewBox="0 0 35 40" fill="none" xmlns="http://www.w3.org/2000/svg">
<path fill-rule="evenodd" clip-rule="evenodd" d="M18.0051 0.334007L34.3335 8.53189C34.7328 8.71107 34.9103 9.11425 34.9103 9.51742C34.4666 16.8642 32.603 22.7774 29.6746 27.6155C26.7461 32.4536 22.7971 36.1269 18.0938 38.9491C17.7388 39.1731 17.3395 39.1283 17.0289 38.9491C12.37 36.1269 8.37663 32.4536 5.44816 27.6155C2.56407 22.7326 0.700498 16.8194 0.256791 9.47263C0.212421 9.02465 0.478645 8.66628 0.83361 8.48709L17.1177 0.334007C17.3839 0.154818 17.7388 0.199615 18.0051 0.334007ZM19.2031 25.0172H15.8753C15.7422 25.0172 15.6534 24.9724 15.5203 24.9724C14.9879 24.7933 14.7216 24.2109 14.8991 23.6733L15.964 20.6271C15.4316 20.3583 14.9435 19.9104 14.6329 19.4176C14.2779 18.88 14.0561 18.2081 14.0561 17.5361C14.0561 16.5506 14.4554 15.6994 15.0766 15.0723C15.6978 14.4451 16.5408 14.0419 17.517 14.0419C18.4488 14.0419 19.3362 14.4451 19.9574 15.0723C20.5786 15.6994 20.9779 16.5506 20.9779 17.5361C20.9779 18.2081 20.7561 18.88 20.4455 19.4176C20.1349 19.9104 19.6468 20.3583 19.1143 20.6271L20.1349 23.6285C20.1792 23.7629 20.2236 23.8973 20.2236 24.0317C20.2236 24.5693 19.7799 25.0172 19.2031 25.0172Z" fill="#2276FF"/>
</svg>
