<svg width="43" height="42" viewBox="0 0 43 42" fill="none" xmlns="http://www.w3.org/2000/svg">
<path d="M0.0251465 21.1036C0.0251465 26.5122 2.13617 31.4251 5.57805 35.0759V33.6336C5.57805 33.3631 5.76161 33.1829 6.03696 33.1829C6.31231 33.1829 6.49588 33.3631 6.49588 33.6336V36.0224C6.9548 36.428 7.41372 36.8337 7.87263 37.2393V33.6336C7.87263 33.3631 8.0562 33.1829 8.33155 33.1829C8.6069 33.1829 8.79047 33.3631 8.79047 33.6336V37.9154C9.24938 38.2309 9.7083 38.5464 10.1672 38.8168V34.9857C10.1672 34.7153 10.3508 34.535 10.6261 34.535C10.9015 34.535 11.0851 34.7153 11.0851 34.9857V39.3126C11.544 39.538 12.0029 39.7633 12.4618 39.9887V27.7742C12.4618 27.5038 12.6454 27.3235 12.9207 27.3235C13.1961 27.3235 13.3796 27.5038 13.3796 27.7742V40.3943C13.8386 40.5746 14.2975 40.7549 14.7564 40.8901V29.1264C14.7564 28.856 14.94 28.6757 15.2153 28.6757C15.4907 28.6757 15.6742 28.856 15.6742 29.1264V41.1155C16.1331 41.2507 16.5921 41.3408 17.051 41.431V27.7742C17.051 27.5038 17.2345 27.3235 17.5099 27.3235C17.7852 27.3235 17.9688 27.5038 17.9688 27.7742V41.6113C18.4277 41.6563 18.8866 41.7465 19.3456 41.7465V23.7178C19.3456 23.4474 19.5291 23.2671 19.8045 23.2671C20.0798 23.2671 20.2634 23.4474 20.2634 23.7178V41.7916C20.5387 41.7916 20.86 41.7916 21.1353 41.7916C21.3189 41.7916 21.4566 41.7916 21.6402 41.7916V29.1264C21.6402 28.856 21.8237 28.6757 22.0991 28.6757C22.3744 28.6757 22.558 28.856 22.558 29.1264V41.7916C23.0169 41.7465 23.4758 41.7014 23.9347 41.6564V31.38C23.9347 31.1096 24.1183 30.9293 24.3937 30.9293C24.669 30.9293 24.8526 31.1096 24.8526 31.38V41.5211C25.3115 41.431 25.7704 41.3408 26.2293 41.2507V28.225C26.2293 27.9545 26.4129 27.7742 26.6882 27.7742C26.9636 27.7742 27.1472 27.9545 27.1472 28.225V40.9803C27.6061 40.8451 28.065 40.7098 28.5239 40.5296V35.4364C28.5239 35.166 28.7075 34.9857 28.9828 34.9857C29.2582 34.9857 29.4417 35.166 29.4417 35.4364V40.169C29.9007 39.9887 30.3596 39.7633 30.8185 39.538V36.7886C30.8185 36.5182 31.0021 36.3379 31.2774 36.3379C31.5528 36.3379 31.7363 36.5182 31.7363 36.7886V39.0422C32.1953 38.7718 32.6542 38.5013 33.1131 38.1858V34.535C33.1131 34.2646 33.2966 34.0843 33.572 34.0843C33.8474 34.0843 34.0309 34.2646 34.0309 34.535V37.5097C34.4898 37.1492 34.9488 36.7886 35.4077 36.383V23.7178C35.4077 23.4474 35.5912 23.2671 35.8666 23.2671C36.1419 23.2671 36.3255 23.4474 36.3255 23.7178V35.5266C36.8303 35.0308 37.2892 34.535 37.7023 33.9941V25.5207C37.7023 25.2502 37.8858 25.0699 38.1612 25.0699C38.4365 25.0699 38.6201 25.2502 38.6201 25.5207V32.7321C39.1249 32.011 39.5838 31.2448 39.9968 30.4335V29.1264C39.9968 28.856 40.1804 28.6757 40.4558 28.6757C40.5934 28.6757 40.6852 28.7208 40.777 28.8109C41.7407 26.4221 42.2914 23.853 42.2914 21.1036C42.2914 17.9937 41.6031 15.064 40.364 12.4498C40.1345 12.3597 39.9968 12.2245 39.9968 11.9991V11.7738C39.5838 10.9625 39.1249 10.1963 38.6201 9.4751V13.802C38.6201 14.0724 38.4365 14.2527 38.1612 14.2527C37.8858 14.2527 37.7023 14.0724 37.7023 13.802V8.21309C37.2892 7.67223 36.8303 7.17644 36.3255 6.68065V16.0556C36.3255 16.326 36.1419 16.5063 35.8666 16.5063C35.5912 16.5063 35.4077 16.326 35.4077 16.0556V5.82429C34.9488 5.41864 34.4898 5.05807 34.0309 4.6975V12.4498C34.0309 12.7203 33.8474 12.9006 33.572 12.9006C33.2966 12.9006 33.1131 12.7203 33.1131 12.4498V4.02142C32.6542 3.70592 32.1953 3.43549 31.7363 3.16506V10.647C31.7363 10.9174 31.5528 11.0977 31.2774 11.0977C31.0021 11.0977 30.8185 10.9174 30.8185 10.647V2.66927C30.3596 2.44391 29.9007 2.21855 29.4417 2.03826V18.3092C29.4417 18.5796 29.2582 18.7599 28.9828 18.7599C28.7075 18.7599 28.5239 18.5796 28.5239 18.3092V1.67769C28.065 1.4974 27.6061 1.36218 27.1472 1.22697V20.5628C27.1472 20.8332 26.9636 21.0135 26.6882 21.0135C26.4129 21.0135 26.2293 20.8332 26.2293 20.5628V0.956539C25.7704 0.866395 25.3115 0.73118 24.8526 0.686108V19.2106C24.8526 19.481 24.669 19.6613 24.3937 19.6613C24.1183 19.6613 23.9347 19.481 23.9347 19.2106V0.550893C23.4758 0.505821 23.0169 0.460749 22.558 0.415677V11.0977C22.558 11.3681 22.3744 11.5484 22.0991 11.5484C21.8237 11.5484 21.6402 11.3681 21.6402 11.0977V0.370605C21.4566 0.370605 21.3189 0.370605 21.1353 0.370605C20.86 0.370605 20.5387 0.370605 20.2634 0.370605V14.2527C20.2634 14.5231 20.0798 14.7034 19.8045 14.7034C19.5291 14.7034 19.3456 14.5231 19.3456 14.2527V0.460749C18.8866 0.505821 18.4277 0.550893 17.9688 0.595964V11.9991C17.9688 12.2696 17.7852 12.4498 17.5099 12.4498C17.2345 12.4498 17.051 12.2696 17.051 11.9991V0.776251C16.5921 0.866395 16.1331 0.956539 15.6742 1.09175V6.59051C15.6742 6.86094 15.4907 7.04123 15.2153 7.04123C14.94 7.04123 14.7564 6.86094 14.7564 6.59051V1.31711C14.2975 1.45233 13.8386 1.63261 13.3796 1.8129V10.647C13.3796 10.9174 13.1961 11.0977 12.9207 11.0977C12.6454 11.0977 12.4618 10.9174 12.4618 10.647V2.21855C12.0029 2.44391 11.544 2.62419 11.0851 2.89462V11.9991C11.0851 12.2696 10.9015 12.4498 10.6261 12.4498C10.3508 12.4498 10.1672 12.2696 10.1672 11.9991V3.39041C9.7083 3.66084 9.24938 3.97635 8.79047 4.29185V10.647C8.79047 10.9174 8.6069 11.0977 8.33155 11.0977C8.0562 11.0977 7.87263 10.9174 7.87263 10.647V4.96793C7.41372 5.3285 6.9548 5.73415 6.49588 6.18486V20.5628C6.49588 20.8332 6.31231 21.0135 6.03696 21.0135C5.76161 21.0135 5.57805 20.8332 5.57805 20.5628V7.0863C5.07324 7.62716 4.61432 8.16802 4.20129 8.70888V19.2106C4.20129 19.481 4.01773 19.6613 3.74238 19.6613C3.46703 19.6613 3.28346 19.481 3.28346 19.2106V10.061C2.77865 10.8723 2.31973 11.6836 1.90671 12.5851V19.2106C1.90671 19.481 1.72314 19.6613 1.44779 19.6613C1.17244 19.6613 0.988873 19.481 0.988873 19.2106V14.9288C0.39228 16.8669 0.0251465 18.9402 0.0251465 21.1036Z" fill="#2276FF"/>
</svg>
