<svg width="173" height="173" viewBox="0 0 173 173" fill="none" xmlns="http://www.w3.org/2000/svg">
<path d="M86.9733 0.977783C39.198 0.977783 0.977783 39.198 0.977783 86.9733C0.977783 134.749 39.198 172.969 86.9733 172.969C134.749 172.969 172.969 134.749 172.969 86.9733C172.969 39.198 134.749 0.977783 86.9733 0.977783ZM131.882 64.9966L79.3292 122.327C77.4182 124.238 74.5517 125.193 72.6407 125.193C70.7297 125.193 67.8632 124.238 65.9521 122.327L42.0645 96.5283C38.2425 92.7063 39.198 86.9733 43.02 83.1512C46.842 79.3292 52.5751 80.2847 56.3971 84.1067L72.6407 102.261L118.505 52.5751C122.327 48.753 128.06 48.753 131.882 51.6196C135.704 54.4861 135.704 61.1746 131.882 64.9966Z" fill="#2276FF"/>
</svg>
