<?xml version="1.0" encoding="UTF-8"?>
<svg id="Layer_1" data-name="Layer 1" xmlns="http://www.w3.org/2000/svg" viewBox="0 0 1132.57 1080">
  <path d="M1064.6,404.1L730.64,70.13c-26.71-26.71-58.37-45.48-92.04-56.45C615.63,4.66,591.31,.09,566.98,0c-.46,0-.92,0-1.38,0-24.34,.08-48.65,4.66-71.61,13.68-33.67,10.97-65.33,29.74-92.04,56.45L67.97,404.1c-90.62,90.62-90.62,238.07,0,328.7l240.35,240.35c68.9,68.91,160.52,106.86,257.97,106.86s189.07-37.95,257.97-106.86l240.34-240.35c90.62-90.62,90.62-238.07,0-328.7Zm-753.26-82.79l207.13-207.13c7.05-7.05,15.3-12.15,24.08-15.43,7.85-1.36,15.78-2.14,23.73-2.14s15.87,.78,23.72,2.14c8.79,3.28,17.04,8.38,24.09,15.43l207.13,207.13c12.77,12.77,19.8,29.75,19.8,47.81s-7.03,35.04-19.8,47.81l-207.13,207.13c-12.77,12.77-29.75,19.8-47.81,19.8s-35.04-7.03-47.81-19.8l-207.13-207.13c-12.77-12.77-19.8-29.75-19.8-47.81s7.03-35.04,19.8-47.81Zm-106.09,98.14c7.64,23.51,20.64,45.65,39.29,64.29l207.13,207.13c31.6,31.6,73.11,47.4,114.62,47.4s83.02-15.8,114.62-47.4l207.13-207.13c18.65-18.65,31.64-40.78,39.29-64.29,20.32,38.71,14.23,87.78-18.28,120.28l-224.13,224.14c-31.69,31.68-73.81,49.14-118.63,49.14s-86.94-17.45-118.63-49.14l-224.13-224.14c-32.5-32.5-38.59-81.57-18.28-120.28Zm792.55,246.55l-240.34,240.35c-51.06,51.06-118.95,79.18-191.17,79.18s-140.1-28.12-191.16-79.18l-240.35-240.35c-40.65-40.65-50.53-100.56-29.72-150.62,8.37,33.43,25.58,65.08,51.67,91.17l224.13,224.14c51.12,51.13,118.28,76.69,185.43,76.69s134.31-25.56,185.43-76.69l224.13-224.14c26.09-26.09,43.29-57.74,51.67-91.17,20.81,50.06,10.93,109.97-29.72,150.62Z"/>
</svg>