<?xml version="1.0" encoding="UTF-8"?>
<svg id="Layer_1" data-name="Layer 1" xmlns="http://www.w3.org/2000/svg" viewBox="0 0 1080 282.98">
  <g>
    <path d="M416.74,263.42c-19.57,0-35.24-3.95-46.99-11.85-11.76-7.9-18.68-19.01-20.74-33.3h38.1c3.76,10.73,13.45,16.09,29.07,16.09,21.45,0,32.18-10.07,32.18-30.2v-15.8h-.85c-9.98,11.29-22.58,16.93-37.82,16.93-17.12,0-32.03-6.3-44.73-18.91-12.7-12.6-19.05-29.35-19.05-50.24s5.83-38.62,17.5-51.51c11.66-12.89,26.72-19.33,45.16-19.33s30.86,6.4,40.08,19.19h.56v-15.24h36.97V203.02c0,18.81-5.74,33.49-17.22,44.03-11.67,10.91-29.07,16.37-52.21,16.37Zm-.56-88.91c11.47,0,20.04-3.67,25.68-11.01,5.65-7.34,8.47-16.75,8.47-28.23s-2.96-20.65-8.89-28.08c-5.93-7.43-14.44-11.15-25.54-11.15-9.79,0-17.64,3.58-23.57,10.72-5.93,7.15-8.89,16.75-8.89,28.79s2.96,21.78,8.89,28.65c5.93,6.87,13.87,10.3,23.85,10.3Z"/>
    <path d="M542.34,69.24v23.14h.85c4.52-8.47,9.5-14.72,14.96-18.77,5.46-4.04,12.32-6.07,20.6-6.07,3.95,0,6.96,.38,9.03,1.13v33.59h-.85c-12.98-1.31-23.43,1.51-31.33,8.47-7.9,6.96-11.85,17.88-11.85,32.74v70.56h-38.38V69.24h36.97Z"/>
    <path d="M685.72,214.03c-1.88-2.44-3.39-7.81-4.52-16.09h-.56c-4.14,6.21-9.41,11.01-15.81,14.39-6.4,3.39-15.34,5.08-26.81,5.08-15.24,0-27.47-3.85-36.69-11.57-9.22-7.71-13.83-18.63-13.83-32.74s5.08-25.45,15.24-32.32c10.16-6.87,24.46-11.61,42.9-14.25,13.55-1.88,22.76-3.81,27.66-5.79,4.89-1.98,7.34-5.5,7.34-10.58s-2.07-9.46-6.21-12.56c-4.14-3.1-10.16-4.66-18.06-4.66-17.5,0-26.81,6.77-27.94,20.32h-34.15c.56-13.73,6.11-25.12,16.65-34.15,10.54-9.03,25.78-13.55,45.72-13.55,40.64,0,60.96,17.78,60.96,53.34v73.66c0,10.92,1.69,17.6,5.08,20.04v1.41h-36.97Zm-38.38-23.43c10.54,0,18.86-2.72,24.98-8.19,6.11-5.46,9.17-11.95,9.17-19.47v-21.73c-4.14,2.45-13.08,5.27-26.81,8.47-10.91,2.45-18.63,5.22-23.14,8.33-4.52,3.1-6.77,7.86-6.77,14.25,0,12.23,7.52,18.35,22.58,18.35Z"/>
    <path d="M736.23,261.44V69.24h36.97v18.06h.85c10.73-14.68,24.93-22.02,42.62-22.02,19,0,34.24,7.06,45.72,21.17,11.47,14.11,17.22,32.55,17.22,55.32s-5.74,41.91-17.22,55.74c-11.48,13.83-26.63,20.74-45.44,20.74s-32.74-6.87-41.77-20.6h-.56v63.79h-38.38Zm72.54-75.08c9.78,0,17.54-3.85,23.28-11.57,5.74-7.71,8.61-18.34,8.61-31.89,0-14.49-2.73-25.87-8.19-34.15-5.46-8.28-13.83-12.42-25.12-12.42s-19.95,4.28-25.4,12.84c-5.46,8.56-8.19,19.81-8.19,33.73s3.01,23.95,9.03,31.75c6.02,7.81,14.68,11.71,25.97,11.71Z"/>
    <path d="M930.13,12.23V88.15h.85c5.46-7.9,11.43-13.69,17.92-17.36,6.49-3.67,14.53-5.5,24.13-5.5,14.86,0,26.91,5.04,36.13,15.1,9.22,10.07,13.83,23.1,13.83,39.09v94.55h-38.39V125.12c0-7.9-2.21-14.3-6.63-19.19-4.42-4.89-10.59-7.34-18.49-7.34-8.47,0-15.48,3.1-21.03,9.31-5.55,6.21-8.33,14.21-8.33,23.99v82.13h-38.38V12.23h38.38Z"/>
    <path d="M1038.79,214.03v-40.92h41.21v40.92h-41.21Z"/>
  </g>
  <path d="M278.95,105.88L191.44,18.38c-7-7-15.29-11.92-24.12-14.79C161.31,1.22,154.94,.02,148.56,0c-.12,0-.24,0-.36,0-6.38,.02-12.75,1.22-18.76,3.58-8.82,2.87-17.12,7.79-24.12,14.79L17.81,105.88c-23.74,23.74-23.74,62.38,0,86.12l62.98,62.98c18.05,18.05,42.06,28,67.59,28s49.54-9.94,67.59-28l62.97-62.98c23.74-23.74,23.74-62.38,0-86.12Zm-197.37-21.69l54.27-54.27c1.85-1.85,4.01-3.18,6.31-4.04,2.06-.36,4.14-.56,6.22-.56s4.16,.2,6.22,.56c2.3,.86,4.46,2.2,6.31,4.04l54.27,54.27c3.35,3.35,5.19,7.79,5.19,12.53s-1.84,9.18-5.19,12.53l-54.27,54.27c-3.35,3.35-7.79,5.19-12.53,5.19s-9.18-1.84-12.53-5.19l-54.27-54.27c-3.35-3.35-5.19-7.79-5.19-12.53s1.84-9.18,5.19-12.53Zm-27.8,25.71c2,6.16,5.41,11.96,10.29,16.85l54.27,54.27c8.28,8.28,19.16,12.42,30.03,12.42s21.75-4.14,30.03-12.42l54.27-54.27c4.89-4.89,8.29-10.69,10.29-16.85,5.32,10.14,3.73,23-4.79,31.52l-58.73,58.73c-8.3,8.3-19.34,12.87-31.08,12.87s-22.78-4.57-31.08-12.87l-58.73-58.73c-8.52-8.52-10.11-21.37-4.79-31.52Zm207.66,64.6l-62.97,62.98c-13.38,13.38-31.17,20.75-50.09,20.75s-36.71-7.37-50.09-20.75l-62.98-62.98c-10.65-10.65-13.24-26.35-7.79-39.47,2.19,8.76,6.7,17.05,13.54,23.89l58.73,58.73c13.4,13.4,30.99,20.09,48.59,20.09s35.19-6.7,48.59-20.09l58.73-58.73c6.84-6.84,11.34-15.13,13.54-23.89,5.45,13.12,2.87,28.81-7.79,39.47Z"/>
</svg>