<svg width="212" height="56" viewBox="0 0 212 56" fill="none" xmlns="http://www.w3.org/2000/svg">
<g clip-path="url(#clip0_699_1001)">
<path d="M81.8045 51.7082C77.963 51.7082 74.8871 50.9328 72.5806 49.3821C70.2721 47.8314 68.9138 45.6505 68.5094 42.8454H75.9883C76.7264 44.9517 78.6285 46.0038 81.6946 46.0038C85.9052 46.0038 88.0114 44.0271 88.0114 40.0757V36.9742H87.8446C85.8855 39.1904 83.4122 40.2975 80.4207 40.2975C77.0601 40.2975 74.1333 39.0608 71.6403 36.5856C69.1474 34.1122 67.9009 30.8243 67.9009 26.7236C67.9009 22.623 69.0453 19.1427 71.3361 16.6124C73.6249 14.0821 76.5811 12.818 80.2008 12.818C83.8205 12.818 86.2585 14.0743 88.0684 16.5849H88.1783V13.5934H95.4354V39.8519C95.4354 43.5443 94.3086 46.4259 92.0551 48.4948C89.7644 50.6364 86.3488 51.7082 81.8065 51.7082H81.8045ZM81.6946 34.2555C83.9461 34.2555 85.6284 33.5351 86.7355 32.0943C87.8446 30.6535 88.3981 28.8063 88.3981 26.5528C88.3981 24.2994 87.8171 22.4993 86.6531 21.0408C85.489 19.5824 83.8185 18.8521 81.6397 18.8521C79.7179 18.8521 78.177 19.5549 77.0129 20.9564C75.8489 22.36 75.2679 24.2444 75.2679 26.6078C75.2679 28.9712 75.8489 30.8831 77.0129 32.2317C78.177 33.5803 79.7356 34.2535 81.6946 34.2535V34.2555Z" fill="white"/>
<path d="M106.459 13.5915V18.1338H106.626C107.514 16.4712 108.491 15.2443 109.563 14.4493C110.635 13.6563 111.981 13.2578 113.607 13.2578C114.382 13.2578 114.973 13.3324 115.379 13.4796V20.0732H115.212C112.664 19.8161 110.613 20.3696 109.062 21.7358C107.512 23.1021 106.736 25.2456 106.736 28.1626V42.0133H99.2024V13.5915H106.459Z" fill="white"/>
<path d="M134.604 42.0131C134.235 41.5342 133.939 40.4801 133.717 38.8547H133.607C132.794 40.0737 131.76 41.0159 130.504 41.6794C129.247 42.3449 127.492 42.6766 125.241 42.6766C122.249 42.6766 119.849 41.9209 118.039 40.4055C116.229 38.892 115.324 36.7485 115.324 33.9787C115.324 31.209 116.321 28.983 118.316 27.6344C120.31 26.2859 123.117 25.3554 126.737 24.8372C129.396 24.4682 131.204 24.0893 132.166 23.7006C133.126 23.312 133.607 22.621 133.607 21.6238C133.607 20.6266 133.201 19.7669 132.388 19.1584C131.575 18.5498 130.394 18.2436 128.843 18.2436C125.408 18.2436 123.58 19.5725 123.358 22.2324H116.655C116.765 19.5372 117.854 17.3014 119.923 15.5288C121.992 13.7563 124.984 12.869 128.898 12.869C136.875 12.869 140.864 16.3592 140.864 23.3395V37.7986C140.864 39.9422 141.196 41.2535 141.861 41.7324V42.0092H134.604V42.0131ZM127.07 37.4139C129.139 37.4139 130.772 36.88 131.974 35.8062C133.173 34.7345 133.774 33.4605 133.774 31.9844V27.7188C132.961 28.1998 131.206 28.7533 128.511 29.3815C126.37 29.8624 124.854 30.4061 123.969 31.0166C123.082 31.6251 122.64 32.5595 122.64 33.8138C122.64 36.2145 124.116 37.4159 127.072 37.4159L127.07 37.4139Z" fill="white"/>
<path d="M144.519 51.3196V13.5914H151.776V17.1365H151.943C154.049 14.2549 156.837 12.8141 160.309 12.8141C164.039 12.8141 167.031 14.1999 169.284 16.9697C171.536 19.7394 172.664 23.3591 172.664 27.8288C172.664 32.2985 171.538 36.0556 169.284 38.7703C167.031 41.4851 164.057 42.8415 160.364 42.8415C156.672 42.8415 153.938 41.493 152.165 38.7978H152.055V51.3196H144.521H144.519ZM158.759 36.5816C160.678 36.5816 162.202 35.8259 163.328 34.3105C164.455 32.797 165.019 30.7104 165.019 28.0506C165.019 25.2063 164.483 22.9724 163.411 21.3471C162.339 19.7218 160.696 18.9091 158.48 18.9091C156.264 18.9091 154.564 19.7492 153.494 21.4295C152.422 23.1098 151.886 25.3182 151.886 28.0506C151.886 30.783 152.477 32.7519 153.659 34.283C154.841 35.8161 156.54 36.5816 158.757 36.5816H158.759Z" fill="white"/>
<path d="M182.581 2.40063V17.3034H182.748C183.82 15.7527 184.992 14.6162 186.266 13.8957C187.54 13.1753 189.118 12.8161 191.002 12.8161C193.919 12.8161 196.285 13.8054 198.095 15.7802C199.904 17.7569 200.809 20.3146 200.809 23.4534V42.0132H193.273V24.5605C193.273 23.0098 192.84 21.7535 191.972 20.7936C191.104 19.8337 189.893 19.3528 188.343 19.3528C186.68 19.3528 185.304 19.9613 184.214 21.1803C183.125 22.3993 182.579 23.9697 182.579 25.8895V42.0113H175.045V2.40063H182.579H182.581Z" fill="white"/>
<path d="M203.911 42.0133V33.9808H212V42.0133H203.911Z" fill="white"/>
<path d="M54.7576 20.7838L37.5797 3.60793C36.2056 2.23385 34.5783 1.26807 32.845 0.704704C31.6653 0.239481 30.4149 0.00392593 29.1625 0C29.1389 0 29.1154 0 29.0918 0C27.8395 0.00392593 26.5891 0.239481 25.4093 0.702741C23.678 1.26611 22.0487 2.23189 20.6747 3.60596L3.49676 20.7838C-1.16331 25.4439 -1.16331 33.0288 3.49676 37.6889L15.8595 50.0516C19.4027 53.5948 24.1157 55.5479 29.1272 55.5479C34.1386 55.5479 38.8517 53.5967 42.3948 50.0516L54.7556 37.6889C59.4157 33.0288 59.4157 25.4439 54.7556 20.7838H54.7576ZM16.0146 16.5262L26.6676 5.87319C27.0307 5.51004 27.4547 5.24896 27.9062 5.08015C28.3106 5.00948 28.7189 4.97022 29.1272 4.97022C29.5355 4.97022 29.9438 5.00948 30.3481 5.08015C30.7996 5.24896 31.2236 5.512 31.5868 5.87319L42.2398 16.5262C42.8974 17.1838 43.2585 18.0553 43.2585 18.9858C43.2585 19.9162 42.8974 20.7878 42.2398 21.4454L31.5868 32.0984C30.9292 32.756 30.0576 33.1171 29.1272 33.1171C28.1967 33.1171 27.3252 32.756 26.6676 32.0984L16.0146 21.4454C15.357 20.7878 14.9958 19.9162 14.9958 18.9858C14.9958 18.0553 15.357 17.1838 16.0146 16.5262ZM10.5575 21.573C10.9501 22.7821 11.6195 23.9207 12.5774 24.8806L23.2304 35.5336C24.8558 37.1589 26.9915 37.9716 29.1252 37.9716C31.2589 37.9716 33.3946 37.1589 35.02 35.5336L45.673 24.8806C46.6329 23.9207 47.3003 22.7821 47.6929 21.573C48.7372 23.5634 48.4251 26.0878 46.7526 27.7602L35.2241 39.2887C33.5949 40.918 31.4278 41.815 29.1232 41.815C26.8187 41.815 24.6516 40.918 23.0224 39.2887L11.4939 27.7602C9.82143 26.0878 9.50932 23.5654 10.5536 21.573H10.5575ZM51.3204 34.2537L38.9596 46.6164C36.3332 49.2429 32.8411 50.6896 29.1272 50.6896C25.4132 50.6896 21.9211 49.2429 19.2947 46.6164L6.93195 34.2537C4.84139 32.1631 4.33299 29.0813 5.4028 26.5059C5.83269 28.2254 6.71799 29.8527 8.06065 31.1954L19.5891 42.7239C22.2195 45.3543 25.6724 46.6675 29.1272 46.6675C32.582 46.6675 36.0348 45.3523 38.6652 42.7239L50.1937 31.1954C51.5364 29.8527 52.4197 28.2254 52.8515 26.5059C53.9213 29.0813 53.4149 32.1612 51.3224 34.2537H51.3204Z" fill="white"/>
</g>
<defs>
<clipPath id="clip0_699_1001">
<rect width="212" height="55.5479" fill="white"/>
</clipPath>
</defs>
</svg>
